<svg width="16" height="624" viewBox="0 0 16 624" fill="none" xmlns="http://www.w3.org/2000/svg">
<g clip-path="url(#clip0_97_58)">
<path d="M0.595852 211.943C0.595852 211.646 0.595852 211.424 0.595852 211.128C0.743951 211.202 0.818 211.276 0.966098 211.35C2.89138 209.425 4.81666 207.5 6.66789 205.648C5.77929 204.76 4.96475 203.945 4.07616 203.057C3.11352 204.019 2.00279 205.13 0.966098 206.167C0.818 206.093 0.743951 206.019 0.595852 205.945C0.595852 205.648 0.595852 205.352 0.595852 205.056C0.743951 205.13 0.818 205.278 0.966098 205.278C1.85469 204.389 2.74328 203.501 3.63187 202.612C2.81733 201.798 1.92874 200.909 1.04015 200.021C0.892049 200.169 0.818 200.243 0.669901 200.391C0.669901 199.873 0.669901 199.354 0.669901 198.836C0.743951 198.91 0.818 198.91 0.966098 198.984C0.966098 198.762 0.966098 198.688 0.966098 198.54C0.966098 197.059 0.966098 195.504 0.966098 194.023C0.966098 193.8 0.892049 193.652 0.669901 193.504C0.669901 193.208 0.669901 192.986 0.669901 192.69C0.743951 192.69 0.818 192.764 0.966098 192.838C0.966098 192.69 0.966098 192.542 0.966098 192.468C0.966098 190.987 0.966098 189.506 0.966098 188.025C0.966098 187.802 0.966098 187.58 0.669901 187.432C0.669901 187.136 0.669901 186.914 0.669901 186.618C0.743951 186.618 0.818 186.692 0.966098 186.766C0.966098 186.618 0.966098 186.47 0.966098 186.321C0.966098 184.841 0.966098 183.36 0.966098 181.879C0.966098 181.656 0.966098 181.36 0.669901 181.286C0.669901 180.99 0.669901 180.768 0.669901 180.472C0.743951 180.472 0.818 180.546 0.892049 180.62C0.892049 178.991 0.892049 177.362 0.892049 175.732C0.743951 175.732 0.743951 175.807 0.669901 175.881C0.669901 175.362 0.669901 174.918 0.669901 174.4C0.818 174.548 0.966098 174.696 1.1142 174.77C2.00279 173.881 2.89138 172.993 3.70592 172.178C2.74328 171.215 1.70659 170.179 0.743951 169.068C0.743951 168.772 0.743951 168.55 0.743951 168.253C0.818 168.328 0.966098 168.402 1.04015 168.476C2.00279 169.438 3.03948 170.475 4.00211 171.438C4.07616 171.512 4.15021 171.586 4.22426 171.66C5.11285 170.771 6.00144 169.883 6.89003 168.994C6.66788 168.772 6.37169 168.55 6.14954 168.328C4.37236 166.55 2.52113 164.699 0.743951 162.922C0.743951 162.626 0.743951 162.404 0.743951 162.107C0.892049 162.181 0.966098 162.256 1.04015 162.33C3.03948 164.329 5.0388 166.328 7.11218 168.402C7.18623 168.476 7.26028 168.55 7.33433 168.624C8.22292 167.735 9.11151 166.847 10.0001 166.032C6.89003 162.922 3.85402 159.886 0.743951 156.776C0.743951 156.48 0.743951 156.258 0.743951 155.961C0.892049 156.035 0.966098 156.109 1.1142 156.258C4.15021 159.294 7.18623 162.33 10.2222 165.366C10.2963 165.44 10.4444 165.514 10.4444 165.588C11.333 164.699 12.2216 163.811 13.0361 162.996C9.11151 159.071 5.11285 155.073 1.1142 151.074C1.04015 151.148 0.892049 151.222 0.818 151.296C0.818 151 0.818 150.778 0.818 150.482C0.818 150.408 0.892049 150.26 0.892049 150.185C0.892049 148.556 0.892049 146.927 0.892049 145.372C0.892049 145.298 0.892049 145.15 0.818 145.076C0.818 144.558 0.818 144.039 0.818 143.521C0.966098 143.669 1.04015 143.743 1.18825 143.817C4.15021 140.855 7.11218 137.893 10.0001 135.005C9.18556 134.117 8.29697 133.302 7.40838 132.414C5.40905 134.413 3.33567 136.486 1.26229 138.634C1.1142 138.486 1.04015 138.412 0.892049 138.338C0.892049 138.041 0.892049 137.819 0.892049 137.523C1.04015 137.597 1.1142 137.671 1.26229 137.745C3.18757 135.82 5.11285 133.895 6.96408 132.043C6.07549 131.155 5.26095 130.34 4.37236 129.452C3.40972 130.414 2.29898 131.525 1.26229 132.562C1.1142 132.488 1.04015 132.414 0.892049 132.34C0.892049 132.043 0.892049 131.747 0.892049 131.451C1.04015 131.525 1.1142 131.673 1.26229 131.673C2.15088 130.785 3.03948 129.896 3.92807 129.007C3.11352 128.193 2.22493 127.304 1.33634 126.416C1.18825 126.564 1.1142 126.638 0.966098 126.786C0.966098 126.268 0.966098 125.749 0.966098 125.231C1.04015 125.305 1.1142 125.305 1.26229 125.379C1.26229 125.157 1.26229 125.083 1.26229 124.935C1.26229 123.454 1.26229 121.899 1.26229 120.418C1.26229 120.196 1.18825 120.047 0.966098 119.899C0.966098 119.603 0.966098 119.381 0.966098 119.085C1.04015 119.085 1.1142 119.159 1.26229 119.233C1.26229 119.085 1.26229 118.937 1.26229 118.863C1.26229 117.382 1.26229 115.901 1.26229 114.42C1.26229 114.198 1.26229 113.975 0.966098 113.827C0.966098 113.531 0.966098 113.309 0.966098 113.013C1.04015 113.013 1.1142 113.087 1.26229 113.161C1.26229 113.013 1.26229 112.865 1.26229 112.717C1.26229 111.236 1.26229 109.755 1.26229 108.274C1.26229 108.052 1.26229 107.755 0.966098 107.681C0.966098 107.385 0.966098 107.163 0.966098 106.867C1.04015 106.867 1.1142 106.941 1.18825 107.015C1.18825 105.386 1.18825 103.757 1.18825 102.128C1.04015 102.128 1.04015 102.202 0.966098 102.276C0.966098 101.757 0.966098 101.313 0.966098 100.795C1.1142 100.943 1.26229 101.091 1.41039 101.165C2.29898 100.276 3.18757 99.3877 4.00211 98.5732C3.03948 97.6106 2.00279 96.5739 1.04015 95.4631C1.04015 95.1669 1.04015 94.9448 1.04015 94.6486C1.1142 94.7227 1.26229 94.7967 1.33634 94.8707C2.29898 95.8334 3.33567 96.8701 4.29831 97.8327C4.37236 97.9068 4.44641 97.9808 4.52046 98.0549C5.40905 97.1663 6.29764 96.2777 7.18623 95.3891C6.96408 95.1669 6.66788 94.9448 6.44574 94.7227C4.66856 92.9455 2.81733 91.0942 1.04015 89.3171C1.04015 89.0209 1.04015 88.7987 1.04015 88.5025C1.18825 88.5766 1.26229 88.6506 1.33634 88.7247C3.33567 90.724 5.335 92.7233 7.40838 94.7967C7.48243 94.8708 7.55647 94.9448 7.63052 95.0189C8.51911 94.1303 9.4077 93.2417 10.2963 92.3531C7.18623 89.243 4.07616 86.133 0.966098 83.0969C0.966098 82.8007 0.966098 82.5786 0.966098 82.2824C1.1142 82.3564 1.18825 82.4305 1.33634 82.5786C4.37236 85.6146 7.40838 88.6506 10.4444 91.6866C10.5184 91.7607 10.6665 91.8347 10.6665 91.9088C11.5551 91.0202 12.4437 90.1316 13.2583 89.3171C9.25961 85.3925 5.335 81.3938 1.33634 77.4692C1.26229 77.5432 1.1142 77.6173 1.04015 77.6913C1.04015 77.3951 1.04015 77.173 1.04015 76.8768C1.04015 76.8028 1.1142 76.6547 1.1142 76.5806C1.1142 74.9515 1.1142 73.3224 1.1142 71.7674C1.1142 71.6934 1.1142 71.5453 1.04015 71.4712C1.04015 70.9529 1.04015 70.4345 1.04015 69.9162C1.18825 70.0643 1.26229 70.1383 1.41039 70.2124C4.37236 67.2504 7.33433 64.2884 10.2222 61.4005C9.4077 60.5119 8.51911 59.6974 7.63052 58.8088C5.6312 60.8081 3.55782 62.8815 1.48444 65.0289C1.33634 64.8808 1.26229 64.8068 1.1142 64.7327C1.1142 64.4365 1.1142 64.2144 1.1142 63.9182C1.26229 63.9922 1.33634 64.0663 1.48444 64.1403C3.40972 62.2151 5.335 60.2898 7.18623 58.4386C6.29764 57.55 5.4831 56.7354 4.59451 55.8468C3.63187 56.8095 2.52113 57.9202 1.48444 58.9569C1.33634 58.8828 1.26229 58.8088 1.1142 58.7348C1.1142 58.4386 1.1142 58.1424 1.1142 57.8462C1.26229 57.9202 1.33634 58.0683 1.48444 58.0683C2.37303 57.1797 3.26162 56.2911 4.15021 55.4025C3.33567 54.588 2.44708 53.6994 1.55849 52.8108C1.41039 52.9589 1.33634 53.033 1.18825 53.1811C1.18825 52.6627 1.18825 52.1444 1.18825 51.626C1.26229 51.7001 1.33634 51.7001 1.48444 51.7741C1.48444 51.552 1.48444 51.4779 1.48444 51.3298C1.48444 49.8489 1.48444 48.2938 1.48444 46.8128C1.48444 46.5907 1.41039 46.4426 1.18825 46.2945C1.18825 45.9983 1.18825 45.7761 1.18825 45.48C1.26229 45.48 1.33634 45.554 1.48444 45.6281C1.48444 45.48 1.48444 45.3319 1.48444 45.2578C1.48444 43.7768 1.48444 42.2958 1.48444 40.8149C1.48444 40.5927 1.48444 40.3706 1.18825 40.2225C1.18825 39.9263 1.18825 39.7041 1.18825 39.4079C1.26229 39.4079 1.33634 39.482 1.48444 39.556C1.48444 39.4079 1.48444 39.2598 1.48444 39.1117C1.48444 37.6307 1.48444 36.1498 1.48444 34.6688C1.48444 34.4466 1.48444 34.1504 1.18825 34.0764C1.18825 33.7802 1.18825 33.558 1.18825 33.2618C1.26229 33.2618 1.33634 33.3359 1.41039 33.4099C1.41039 31.7809 1.41039 30.1518 1.41039 28.5227C1.26229 28.5227 1.26229 28.5967 1.18825 28.6708C1.18825 28.1524 1.18825 27.7081 1.18825 27.1898C1.33634 27.3379 1.48444 27.486 1.63254 27.56C2.52113 26.6715 3.40972 25.7829 4.22426 24.9683C3.26162 24.0057 2.22493 22.969 1.26229 21.8583C1.26229 21.5621 1.26229 21.3399 1.26229 21.0437C1.33634 21.1178 1.48444 21.1918 1.55849 21.2659C2.52113 22.2285 3.55782 23.2652 4.52046 24.2278C4.59451 24.3019 4.66856 24.3759 4.74261 24.45C5.6312 23.5614 6.51979 22.6728 7.40838 21.7842C7.18623 21.5621 6.89003 21.3399 6.66789 21.1178C4.81666 19.2665 3.03948 17.4894 1.26229 15.6381C1.26229 15.3419 1.26229 15.1198 1.26229 14.8236C0.669901 14.3052 0.818 14.3793 0.892049 14.4533C2.89138 16.4527 4.8907 18.452 6.96408 20.4513C7.03813 20.5254 7.11218 20.5994 7.18623 20.6735C8.07482 19.7849 8.96341 18.8963 9.852 18.0818C6.74193 14.9717 3.63187 11.9357 0.595852 8.89966C0.595852 8.60346 0.595852 8.38131 0.595852 8.08511C0.743951 8.15916 0.818 8.23321 0.966098 8.38131C4.00211 11.4173 7.03813 14.4533 10.0741 17.4894C10.1482 17.5634 10.2963 17.6375 10.2963 17.7115C11.1849 16.8229 12.0735 15.9343 12.888 15.1198C8.81531 11.1211 4.8907 7.12248 0.892049 3.19787C0.818 3.19787 0.669901 3.27192 0.595852 3.42002C0.595852 2.60547 0.595852 1.86498 0.595852 1.05044C0.818 1.05044 1.04015 1.05044 1.26229 1.05044C1.26229 1.42069 1.26229 1.86498 1.26229 2.23523C1.26229 2.38333 1.33634 2.60547 1.48444 2.75357C2.07684 3.42002 2.81733 4.08646 3.48377 4.7529C3.48377 4.7529 3.55782 4.82695 3.70592 4.901C3.70592 3.56811 3.70592 2.30928 3.70592 1.05044C3.92807 1.05044 4.07616 1.05044 4.29831 1.05044C4.29831 2.45738 4.29831 3.93836 4.29831 5.34529C4.37236 5.49339 4.44641 5.64149 4.52046 5.78959C5.1869 6.45603 5.85334 7.12248 6.59384 7.78892C6.66788 7.86297 6.74193 7.86297 6.81598 7.93702C6.81598 6.97438 6.81598 6.08579 6.81598 5.27125C6.81598 3.86431 6.81598 2.45738 6.81598 1.05044C7.03813 1.05044 7.18623 1.05044 7.40838 1.05044C7.40838 3.56811 7.40838 6.01174 7.40838 8.45536C7.40838 8.60346 7.48243 8.75156 7.55647 8.82561C8.22292 9.49205 8.88936 10.1585 9.5558 10.8249C9.62985 10.899 9.7039 10.899 9.77795 10.973C9.77795 10.7509 9.77795 10.6028 9.77795 10.4547C9.77795 7.41867 9.77795 4.38266 9.77795 1.34664C9.77795 1.19854 9.77795 1.05044 9.77795 0.902344C9.92605 0.902344 10.1482 0.902344 10.2963 0.902344C10.2963 1.05044 10.2963 1.19854 10.2963 1.42069C10.2963 4.67885 10.2963 7.93702 10.2963 11.2692C10.2963 11.4173 10.2963 11.6395 10.4444 11.7876C11.2589 12.6021 12.0735 13.4167 12.888 14.2312C12.888 14.7495 12.888 15.2679 12.888 15.7862C12.1475 16.5267 11.4811 17.2672 10.7406 18.0818C11.407 18.7482 12.1475 19.4887 12.888 20.2292C12.888 20.5254 12.888 20.7475 12.888 21.0437C12.3697 20.5254 11.8513 20.0811 11.333 19.5627C10.9627 19.1925 10.5925 18.8222 10.2963 18.526C9.4077 19.4146 8.51911 20.3032 7.70457 21.1178C7.70457 21.1178 7.77862 21.1918 7.85267 21.2659C9.48175 22.895 11.1108 24.524 12.7399 26.1531C12.814 26.2272 12.888 26.2272 12.9621 26.3012C12.9621 26.5974 12.9621 26.8936 12.9621 27.1898C12.888 27.1158 12.7399 27.0417 12.6659 26.9677C10.9627 25.2645 9.25961 23.5614 7.55647 21.8583C7.40838 21.7102 7.40838 21.6361 7.33433 21.5621C6.37169 22.5247 5.55715 23.4133 4.66856 24.2278C4.66856 24.2278 4.74261 24.3019 4.81666 24.3759C7.48243 27.0417 10.1482 29.7075 12.7399 32.2992C12.814 32.3732 12.888 32.4473 12.9621 32.4473C12.9621 32.7435 12.9621 33.0397 12.9621 33.3359C12.814 33.1878 12.7399 33.1137 12.6659 33.0397C9.92605 30.2999 7.26028 27.6341 4.52046 24.8943C4.44641 24.7462 4.37236 24.6721 4.29831 24.5981C3.40972 25.4867 2.52113 26.3753 1.70659 27.1898C1.78064 27.2639 1.85469 27.3379 1.92874 27.4119C4.66856 30.1518 7.33433 32.8175 10.0741 35.5574C11.0368 36.52 12.0735 37.5567 13.0361 38.5193C13.0361 38.8155 13.0361 39.0377 13.0361 39.3339C12.9621 39.2598 12.814 39.1858 12.7399 39.1117C11.1108 37.4826 9.5558 35.9276 7.92672 34.2985C7.85267 34.2245 7.77862 34.0764 7.77862 33.9283C7.77862 33.9283 7.70457 34.0023 7.63052 34.0764C7.63052 37.6307 7.63052 41.1111 7.63052 44.6654C7.63052 44.6654 7.70457 44.6654 7.70457 44.7395C7.77862 44.6654 7.85267 44.5173 7.92672 44.4433C9.5558 42.8142 11.1108 41.2591 12.6659 39.7041C12.7399 39.6301 12.888 39.556 12.9621 39.482C12.9621 39.7782 12.9621 40.0003 12.9621 40.2965C12.814 40.4446 12.7399 40.5187 12.6659 40.5927C10.8146 42.4439 8.96341 44.2952 7.11218 46.1464C5.335 47.9236 3.63187 49.6267 1.85469 51.4039C1.78064 51.4779 1.70659 51.626 1.63254 51.626C2.52113 52.5146 3.40972 53.4032 4.29831 54.2918C4.37236 54.1437 4.44641 54.0697 4.52046 53.9216C7.26028 51.1817 9.92605 48.4419 12.6659 45.7761C12.7399 45.7021 12.888 45.628 12.9621 45.554C12.9621 45.8502 12.9621 46.1464 12.9621 46.4426C12.888 46.5166 12.814 46.5907 12.7399 46.6647C10.1482 49.2565 7.48243 51.9222 4.8907 54.5139C4.81666 54.588 4.74261 54.662 4.66856 54.7361C5.55715 55.6247 6.44574 56.5133 7.26028 57.3278C7.33433 57.2538 7.40838 57.1797 7.55647 57.1057C9.25961 55.4025 10.9627 53.6994 12.6659 51.9963C12.7399 51.9222 12.888 51.8482 12.9621 51.7741C12.9621 52.0703 12.9621 52.3665 12.9621 52.6627C12.888 52.7368 12.814 52.8108 12.7399 52.8108C11.1108 54.4399 9.48175 56.069 7.85267 57.6981C7.77862 57.7721 7.70457 57.8462 7.70457 57.8462C8.59316 58.7347 9.48175 59.6233 10.2963 60.4379C10.8887 59.8455 11.6292 59.105 12.2956 58.4386C12.5178 58.2164 12.6659 58.0683 12.888 57.9202C12.888 58.2164 12.888 58.4386 12.888 58.7348C12.1475 59.4752 11.407 60.2157 10.7406 60.8822C11.4811 61.6227 12.2216 62.3632 12.888 63.1037C12.888 63.3999 12.888 63.622 12.888 63.9182C12.814 63.8441 12.6659 63.7701 12.5918 63.696C11.9254 63.0296 11.2589 62.3632 10.5925 61.6967C10.5184 61.6227 10.4444 61.5486 10.2963 61.4746C10.2963 61.6967 10.2963 61.8448 10.2963 61.9929C10.2963 66.3618 10.2963 70.7307 10.2963 75.0996C10.2963 78.4318 10.2963 81.764 10.2963 85.1703C10.2963 85.3184 10.2963 85.5406 10.4444 85.6887C11.2589 86.5032 12.0735 87.3177 12.888 88.1323C12.888 88.6506 12.888 89.169 12.888 89.6873C12.1475 90.4278 11.4811 91.1683 10.7406 91.9828C11.407 92.6493 12.1475 93.3898 12.888 94.1303C12.888 94.4265 12.888 94.6486 12.888 94.9448C12.3697 94.4265 11.8513 93.9822 11.333 93.4638C10.9627 93.0936 10.5925 92.7233 10.2963 92.4271C9.4077 93.3157 8.51911 94.2043 7.70457 95.0189C7.70457 95.0189 7.77862 95.0929 7.85267 95.167C9.48175 96.796 11.1108 98.4251 12.7399 100.054C12.814 100.128 12.888 100.128 12.9621 100.202C12.9621 100.498 12.9621 100.795 12.9621 101.091C12.888 101.017 12.7399 100.943 12.6659 100.869C10.9627 99.1656 9.25961 97.4625 7.55647 95.7593C7.40838 95.6112 7.40838 95.5372 7.33433 95.4631C6.37169 96.4258 5.55715 97.3144 4.66856 98.1289C4.66856 98.1289 4.74261 98.203 4.81666 98.277C7.48243 100.943 10.1482 103.609 12.7399 106.2C12.814 106.274 12.888 106.348 12.9621 106.348C12.9621 106.645 12.9621 106.941 12.9621 107.237C12.814 107.089 12.7399 107.015 12.6659 106.941C9.92605 104.201 7.26028 101.535 4.52046 98.7954C4.37236 98.6473 4.29831 98.5732 4.29831 98.5732C3.40972 99.4618 2.52113 100.35 1.70659 101.165C1.78064 101.239 1.85469 101.313 1.92874 101.387C4.66856 104.127 7.33433 106.793 10.0741 109.532C11.0368 110.495 12.0735 111.532 13.0361 112.494C13.0361 112.791 13.0361 113.013 13.0361 113.309C12.9621 113.235 12.814 113.161 12.7399 113.087C11.1108 111.458 9.5558 109.903 7.92672 108.274C7.85267 108.2 7.77862 108.052 7.77862 107.903C7.77862 107.903 7.70457 107.977 7.63052 108.052C7.63052 111.606 7.63052 115.086 7.63052 118.641H7.70457C7.77862 118.566 7.85267 118.492 7.92672 118.418C9.5558 116.789 11.1108 115.234 12.6659 113.679C12.7399 113.605 12.888 113.531 12.9621 113.457C12.9621 113.753 12.9621 113.975 12.9621 114.272C12.814 114.42 12.7399 114.494 12.6659 114.568C10.8146 116.419 8.96341 118.27 7.11218 120.122C5.335 121.899 3.63187 123.602 1.85469 125.379C1.78064 125.453 1.70659 125.601 1.63254 125.601C2.52113 126.49 3.40972 127.378 4.29831 128.267C4.37236 128.119 4.44641 128.045 4.52046 127.897C7.26028 125.157 9.92605 122.417 12.6659 119.751C12.7399 119.677 12.888 119.603 12.9621 119.529C12.9621 119.825 12.9621 120.122 12.9621 120.418C12.888 120.492 12.814 120.566 12.7399 120.64C10.1482 123.232 7.48243 125.897 4.8907 128.489C4.81666 128.563 4.74261 128.637 4.66856 128.711C5.55715 129.6 6.44574 130.488 7.26028 131.303C7.33433 131.229 7.40838 131.155 7.55647 131.081C9.25961 129.378 10.9627 127.675 12.6659 125.971C12.7399 125.897 12.888 125.823 12.9621 125.749C12.9621 126.045 12.9621 126.342 12.9621 126.638C12.888 126.712 12.814 126.786 12.7399 126.786C11.1108 128.415 9.48175 130.044 7.85267 131.673C7.77862 131.747 7.70457 131.821 7.70457 131.821C8.59316 132.71 9.48175 133.598 10.2963 134.413C10.8887 133.821 11.6292 133.08 12.2956 132.414C12.5178 132.192 12.6659 132.043 12.888 131.895C12.888 132.192 12.888 132.414 12.888 132.71C12.1475 133.45 11.407 134.191 10.7406 134.857C11.4811 135.598 12.2216 136.338 12.888 137.079C12.888 137.375 12.888 137.597 12.888 137.893C12.814 137.819 12.6659 137.745 12.5918 137.671C11.9254 137.005 11.2589 136.338 10.5925 135.672C10.5184 135.598 10.4444 135.524 10.2963 135.45C10.2963 135.672 10.2963 135.82 10.2963 135.968C10.2963 140.337 10.2963 144.706 10.2963 149.075C10.2963 152.407 10.2963 155.739 10.2963 159.145C10.2963 159.294 10.2963 159.516 10.4444 159.664C11.2589 160.478 12.0735 161.293 12.888 162.107C12.888 162.626 12.888 163.144 12.888 163.662C12.1475 164.403 11.4811 165.143 10.7406 165.958C11.407 166.624 12.1475 167.365 12.888 168.105C12.888 168.402 12.888 168.624 12.888 168.92C12.3697 168.402 11.8513 167.957 11.333 167.439C10.9627 167.069 10.5925 166.698 10.2963 166.402C9.4077 167.291 8.51911 168.179 7.70457 168.994C7.70457 168.994 7.77862 169.068 7.85267 169.142C9.48175 170.771 11.1108 172.4 12.7399 174.029C12.814 174.103 12.888 174.103 12.9621 174.177C12.9621 174.474 12.9621 174.77 12.9621 175.066C12.888 174.992 12.7399 174.918 12.6659 174.844C10.9627 173.141 9.25961 171.438 7.55647 169.734C7.40838 169.586 7.40838 169.512 7.33433 169.438C6.37169 170.401 5.55715 171.29 4.66856 172.104C4.66856 172.104 4.74261 172.178 4.81666 172.252C7.48243 174.918 10.1482 177.584 12.7399 180.175C12.814 180.249 12.888 180.324 12.9621 180.324C12.9621 180.62 12.9621 180.916 12.9621 181.212C12.814 181.064 12.7399 180.99 12.6659 180.916C9.92605 178.176 7.26028 175.51 4.52046 172.77C4.37236 172.622 4.29831 172.548 4.29831 172.548C3.40972 173.437 2.52113 174.326 1.70659 175.14C1.78064 175.214 1.85469 175.288 1.92874 175.362C4.66856 178.102 7.33433 180.768 10.0741 183.508C11.0368 184.47 12.0735 185.507 13.0361 186.47C13.0361 186.766 13.0361 186.988 13.0361 187.284C12.9621 187.21 12.814 187.136 12.7399 187.062C11.1108 185.433 9.5558 183.878 7.92672 182.249C7.85267 182.175 7.77862 182.027 7.77862 181.879C7.77862 181.879 7.70457 181.953 7.63052 182.027C7.63052 185.581 7.63052 189.061 7.63052 192.69C7.77862 192.542 7.85267 192.468 7.92672 192.394C9.5558 190.764 11.1108 189.209 12.6659 187.654C12.7399 187.58 12.888 187.506 12.9621 187.432C12.9621 187.728 12.9621 187.951 12.9621 188.247C12.814 188.395 12.7399 188.469 12.6659 188.543C10.8146 190.394 8.96341 192.245 7.11218 194.097C5.335 195.874 3.63187 197.577 1.85469 199.354C1.78064 199.428 1.70659 199.576 1.63254 199.576C2.52113 200.465 3.40972 201.353 4.29831 202.242C4.37236 202.094 4.44641 202.02 4.52046 201.872C7.26028 199.132 9.92605 196.392 12.6659 193.726C12.7399 193.652 12.888 193.578 12.9621 193.504C12.9621 193.8 12.9621 194.097 12.9621 194.393C12.888 194.467 12.814 194.541 12.7399 194.615C10.1482 197.207 7.48243 199.873 4.8907 202.464C4.81666 202.538 4.74261 202.612 4.66856 202.686C5.55715 203.575 6.44574 204.464 7.26028 205.278C7.33433 205.204 7.40838 205.13 7.55647 205.056C9.25961 203.353 10.9627 201.65 12.6659 199.947C12.7399 199.873 12.888 199.798 12.9621 199.724C12.9621 200.021 12.9621 200.317 12.9621 200.613C12.888 200.687 12.814 200.761 12.7399 200.761C11.1108 202.39 9.48175 204.019 7.85267 205.648C7.77862 205.722 7.70457 205.796 7.70457 205.796C8.59316 206.685 9.48175 207.574 10.2963 208.388C10.9627 207.722 11.6292 207.055 12.2956 206.389C12.5178 206.167 12.6659 206.019 12.888 205.87C12.888 206.167 12.888 206.389 12.888 206.685C12.1475 207.426 11.407 208.166 10.7406 208.832C11.4811 209.573 12.2216 210.313 12.888 211.054C12.888 211.35 12.888 211.572 12.888 211.868C12.814 211.794 12.6659 211.72 12.5918 211.646C11.9254 210.98 11.2589 210.313 10.5925 209.647C10.5184 209.573 10.4444 209.499 10.2963 209.425C10.2963 209.647 10.2963 209.795 10.2963 209.943C10.2963 214.312 10.2963 218.681 10.2963 223.05C10.2963 226.382 10.2963 229.714 10.2963 233.121C10.2963 233.269 10.2963 233.491 10.4444 233.639C11.2589 234.453 12.0735 235.268 12.888 236.083C12.888 236.601 12.888 237.119 12.888 237.638C12.1475 238.378 11.4811 239.119 10.7406 239.933C11.407 240.6 12.1475 241.34 12.888 242.081C12.888 242.377 12.888 242.599 12.888 242.895C12.3697 242.377 11.8513 241.932 11.333 241.414C10.9627 241.044 10.5925 240.674 10.2963 240.377C9.4077 241.266 8.51911 242.155 7.70457 242.969C7.70457 242.969 7.77862 243.043 7.85267 243.117C9.48175 244.746 11.1108 246.375 12.7399 248.004C12.814 248.079 12.888 248.079 12.9621 248.153C12.9621 248.449 12.9621 248.745 12.9621 249.041C12.888 248.967 12.7399 248.893 12.6659 248.819C10.9627 247.116 9.25961 245.413 7.55647 243.71C7.40838 243.562 7.40838 243.487 7.33433 243.413C6.37169 244.376 5.55715 245.265 4.66856 246.079C4.66856 246.079 4.74261 246.153 4.81666 246.227C7.48243 248.893 10.1482 251.559 12.7399 254.151C12.814 254.225 12.888 254.299 12.9621 254.299C12.9621 254.595 12.9621 254.891 12.9621 255.187C12.814 255.039 12.7399 254.965 12.6659 254.891C9.92605 252.151 7.26028 249.485 4.52046 246.746C4.37236 246.598 4.29831 246.523 4.29831 246.523C3.40972 247.412 2.52113 248.301 1.70659 249.115C1.78064 249.189 1.85469 249.263 1.92874 249.337C4.66856 252.077 7.33433 254.743 10.0741 257.483C11.0368 258.445 12.0735 259.482 13.0361 260.445C13.0361 260.741 13.0361 260.963 13.0361 261.259C12.9621 261.185 12.814 261.111 12.7399 261.037C11.1108 259.408 9.5558 257.853 7.92672 256.224C7.85267 256.15 7.77862 256.002 7.77862 255.854C7.77862 255.854 7.70457 255.928 7.63052 256.002C7.63052 259.556 7.63052 263.036 7.63052 266.591C7.63052 266.591 7.70457 266.591 7.70457 266.665C7.77862 266.591 7.85267 266.443 7.92672 266.369C9.5558 264.74 11.1108 263.185 12.6659 261.63C12.7399 261.555 12.888 261.481 12.9621 261.407C12.9621 261.704 12.9621 261.926 12.9621 262.222C12.814 262.37 12.7399 262.444 12.6659 262.518C10.8146 264.369 8.96341 266.221 7.11218 268.072C5.335 269.849 3.63187 271.552 1.85469 273.329C1.78064 273.403 1.70659 273.551 1.63254 273.551C2.52113 274.44 3.40972 275.329 4.29831 276.217C4.37236 276.069 4.44641 275.995 4.52046 275.847C7.26028 273.107 9.92605 270.367 12.6659 267.702C12.7399 267.628 12.888 267.553 12.9621 267.479C12.9621 267.776 12.9621 268.072 12.9621 268.368C12.888 268.442 12.814 268.516 12.7399 268.59C10.1482 271.182 7.48243 273.848 4.8907 276.439C4.81666 276.513 4.74261 276.587 4.66856 276.662C5.55715 277.55 6.44574 278.439 7.26028 279.253C7.33433 279.179 7.40838 279.105 7.55647 279.031C9.25961 277.328 10.9627 275.625 12.6659 273.922C12.7399 273.848 12.888 273.774 12.9621 273.7C12.9621 273.996 12.9621 274.292 12.9621 274.588C12.888 274.662 12.814 274.736 12.7399 274.736C11.1108 276.365 9.48175 277.994 7.85267 279.623C7.77862 279.698 7.70457 279.772 7.70457 279.772C8.59316 280.66 9.48175 281.549 10.2963 282.363C10.9627 281.697 11.6292 281.03 12.2956 280.364C12.5178 280.142 12.6659 279.994 12.888 279.846C12.888 280.142 12.888 280.364 12.888 280.66C12.1475 281.401 11.407 282.141 10.7406 282.808C11.4811 283.548 12.2216 284.289 12.888 285.029C12.888 285.325 12.888 285.547 12.888 285.844C12.814 285.77 12.6659 285.695 12.5918 285.621C11.9254 284.955 11.2589 284.289 10.5925 283.622C10.5184 283.548 10.4444 283.474 10.2963 283.4C10.2963 283.622 10.2963 283.77 10.2963 283.918C10.2963 288.287 10.2963 292.656 10.2963 297.025C10.2963 300.357 10.2963 303.689 10.2963 307.096C10.2963 307.244 10.2963 307.466 10.4444 307.614C11.2589 308.429 12.0735 309.243 12.888 310.058C12.888 310.576 12.888 311.094 12.888 311.613C12.1475 312.353 11.4811 313.094 10.7406 313.908C11.407 314.575 12.1475 315.315 12.888 316.056C12.888 316.352 12.888 316.574 12.888 316.87C12.3697 316.352 11.8513 315.908 11.333 315.389C10.9627 315.019 10.5925 314.649 10.2963 314.353C9.4077 315.241 8.51911 316.13 7.70457 316.944C7.70457 316.944 7.77862 317.018 7.85267 317.092C9.48175 318.721 11.1108 320.351 12.7399 321.98C12.814 322.054 12.888 322.054 12.9621 322.128C12.9621 322.424 12.9621 322.72 12.9621 323.016C12.888 322.942 12.7399 322.868 12.6659 322.794C10.9627 321.091 9.25961 319.388 7.55647 317.685C7.40838 317.537 7.40838 317.463 7.33433 317.389C6.37169 318.351 5.55715 319.24 4.66856 320.054C4.66856 320.054 4.74261 320.128 4.81666 320.202C7.48243 322.868 10.1482 325.534 12.7399 328.126C12.814 328.2 12.888 328.274 12.9621 328.274C12.9621 328.57 12.9621 328.866 12.9621 329.162C12.814 329.014 12.7399 328.94 12.6659 328.866C9.92605 326.126 7.26028 323.461 4.52046 320.721C4.37236 320.573 4.37236 320.499 4.29831 320.425C3.33567 321.387 2.52113 322.202 1.55849 323.164C1.63254 323.238 1.70659 323.312 1.78064 323.387C3.70592 325.312 5.6312 327.237 7.48243 329.088C7.55647 329.162 7.63052 329.31 7.70457 329.385C7.40838 329.385 7.11218 329.385 6.81598 329.385C6.74193 329.31 6.66788 329.162 6.59384 329.088C6.00144 328.496 5.40905 327.904 4.81666 327.311C4.74261 327.163 4.66856 327.089 4.59451 326.941C4.52046 326.941 4.44641 327.015 4.44641 327.089C4.44641 327.829 4.44641 328.644 4.44641 329.459C4.22426 329.459 4.07616 329.459 3.85402 329.459C3.85402 328.496 3.85402 327.607 3.85402 326.645C3.85402 326.497 3.77997 326.274 3.70592 326.2C2.96543 325.46 2.29898 324.719 1.55849 324.053C1.48444 323.979 1.48444 323.979 1.33634 323.905C1.33634 324.127 1.33634 324.201 1.33634 324.349C1.33634 326.052 1.33634 327.755 1.33634 329.459C1.04015 329.459 0.743951 329.459 0.447754 329.459C0.447754 329.162 0.447754 328.866 0.447754 328.496C0.521803 328.496 0.595852 328.57 0.669901 328.644C0.669901 327.015 0.669901 325.386 0.669901 323.757C0.521803 323.757 0.521803 323.831 0.447754 323.905C0.447754 323.387 0.447754 322.942 0.447754 322.424C0.595852 322.572 0.743951 322.72 0.892049 322.794C1.78064 321.906 2.66923 321.017 3.48377 320.202C2.52113 319.24 1.48444 318.203 0.521803 317.092C0.521803 316.796 0.521803 316.574 0.521803 316.278C0.595852 316.352 0.743951 316.426 0.818 316.5C1.78064 317.463 2.81733 318.499 3.77997 319.462C3.85402 319.536 3.92807 319.61 4.00211 319.684C4.8907 318.795 5.77929 317.907 6.66789 317.018C6.44574 316.796 6.14954 316.574 5.92739 316.352C4.15021 314.575 2.29898 312.723 0.521803 310.946C0.521803 310.65 0.521803 310.428 0.521803 310.132C0.669901 310.206 0.743951 310.28 0.818 310.354C2.81733 312.353 4.81666 314.353 6.89003 316.426C6.96408 316.5 7.03813 316.574 7.11218 316.648C8.00077 315.759 8.88936 314.871 9.77795 313.982C6.74193 310.946 3.63187 307.91 0.595852 304.8C0.595852 304.504 0.595852 304.282 0.595852 303.986C0.743951 304.06 0.818 304.134 0.966098 304.282C4.00211 307.318 7.03813 310.354 10.0741 313.39C10.1482 313.464 10.2963 313.538 10.2963 313.612C11.1849 312.723 12.0735 311.835 12.888 311.02C8.96341 307.096 4.96475 303.097 0.966098 299.098C0.892049 299.172 0.743951 299.246 0.669901 299.321C0.669901 299.024 0.669901 298.802 0.669901 298.506C0.669901 298.432 0.743951 298.284 0.743951 298.21C0.743951 296.581 0.743951 294.952 0.743951 293.397C0.743951 293.323 0.743951 293.174 0.669901 293.1C0.669901 292.582 0.669901 292.064 0.669901 291.545C0.818 291.693 0.892049 291.768 1.04015 291.842C4.00211 288.88 6.96408 285.918 9.852 283.03C9.03746 282.141 8.14887 281.327 7.26028 280.438C5.26095 282.437 3.18757 284.511 1.1142 286.658C0.966098 286.51 0.892049 286.436 0.743951 286.362C0.743951 286.066 0.743951 285.844 0.743951 285.547C0.892049 285.621 0.966098 285.696 1.1142 285.77C3.03947 283.844 4.96475 281.919 6.81598 280.068C5.92739 279.179 5.11285 278.365 4.22426 277.476C3.26162 278.439 2.15088 279.549 1.1142 280.586C0.966098 280.512 0.892049 280.438 0.743951 280.364C0.743951 280.068 0.743951 279.772 0.743951 279.475C0.892049 279.549 0.966098 279.698 1.1142 279.698C2.00279 278.809 2.89138 277.92 3.77997 277.032C2.96543 276.217 2.07684 275.329 1.18825 274.44C1.04015 274.588 0.966098 274.662 0.818 274.81C0.818 274.292 0.818 273.774 0.818 273.255C0.892049 273.329 0.966098 273.329 1.1142 273.403C1.1142 273.181 1.1142 273.107 1.1142 272.959C1.1142 271.478 1.1142 269.923 1.1142 268.442C1.1142 268.22 1.04015 268.072 0.818 267.924C0.818 267.627 0.818 267.405 0.818 267.109C0.892049 267.109 0.966098 267.183 1.1142 267.257C1.1142 267.109 1.1142 266.961 1.1142 266.887C1.1142 265.406 1.1142 263.925 1.1142 262.444C1.1142 262.222 1.1142 262 0.818 261.852C0.818 261.555 0.818 261.333 0.818 261.037C0.892049 261.037 0.966098 261.111 1.1142 261.185C1.1142 261.037 1.1142 260.889 1.1142 260.741C1.1142 259.26 1.1142 257.779 1.1142 256.298C1.1142 256.076 1.1142 255.78 0.818 255.706C0.818 255.409 0.818 255.187 0.818 254.891C0.892049 254.891 0.966098 254.965 1.04015 255.039C1.04015 253.41 1.04015 251.781 1.04015 250.152C0.892049 250.152 0.892049 250.226 0.818 250.3C0.818 249.782 0.818 249.337 0.818 248.819C0.966098 248.967 1.1142 249.115 1.26229 249.189C2.15088 248.301 3.03948 247.412 3.85402 246.598C2.89138 245.635 1.85469 244.598 0.892049 243.487C0.892049 243.191 0.892049 242.969 0.892049 242.673C0.966098 242.747 1.1142 242.821 1.18825 242.895C2.15088 243.858 3.18757 244.894 4.15021 245.857C4.22426 245.931 4.29831 246.005 4.37236 246.079C5.26095 245.191 6.14954 244.302 7.03813 243.413C6.81598 243.191 6.51979 242.969 6.29764 242.747C4.52046 240.97 2.66923 239.119 0.892049 237.341C0.892049 237.045 0.892049 236.823 0.892049 236.527C1.04015 236.601 1.1142 236.675 1.18825 236.749C3.18757 238.748 5.1869 240.748 7.26028 242.821C7.33433 242.895 7.40838 242.969 7.48243 243.043C8.37102 242.155 9.25961 241.266 10.1482 240.451C6.59384 237.489 3.48377 234.379 0.447754 231.343C0.447754 231.047 0.447754 230.825 0.447754 230.529C0.595852 230.603 0.669901 230.677 0.818 230.825C3.85402 233.861 6.89003 236.897 9.92605 239.933C10.0001 240.007 10.1482 240.081 10.1482 240.155C11.0368 239.267 11.9254 238.378 12.7399 237.564C8.81531 233.565 4.81666 229.64 0.818 225.642C0.743951 225.716 0.595852 225.79 0.521803 225.864C0.521803 225.568 0.521803 225.345 0.521803 225.049C0.521803 224.975 0.595852 224.827 0.595852 224.753C0.595852 223.124 0.595852 221.495 0.595852 219.94C0.595852 219.866 0.595852 219.718 0.521803 219.644C0.521803 219.125 0.521803 218.607 0.521803 218.089C0.669901 218.237 0.743951 218.311 0.892049 218.385C3.85402 215.423 6.81598 212.461 9.7039 209.573C8.81531 208.684 8.00077 207.87 7.11218 206.981C5.11285 208.981 3.03948 211.054 0.966098 213.201C0.818 212.165 0.669901 212.091 0.595852 211.943ZM1.48444 272.663C1.55849 272.663 1.55849 272.663 1.63254 272.589C2.37303 271.848 3.11352 271.108 3.85402 270.367C3.92807 270.293 4.00211 270.145 4.00211 269.997C4.00211 264.147 4.00211 258.297 4.00211 252.373C4.00211 252.225 3.92807 252.077 3.85402 252.003C3.11352 251.263 2.37303 250.522 1.63254 249.782C1.63254 249.782 1.55849 249.782 1.48444 249.708C1.48444 257.409 1.48444 265.036 1.48444 272.663ZM1.48444 28.0043C1.48444 35.7055 1.48444 43.3325 1.48444 51.0336C1.55849 51.0336 1.63254 50.9596 1.63254 50.9596C2.37303 50.2191 3.11352 49.4786 3.85402 48.7381C3.92807 48.6641 4.00211 48.516 4.00211 48.3679C4.00211 42.518 4.00211 36.6681 4.00211 30.8182C4.00211 30.6701 4.00211 30.5961 3.92807 30.448C3.11352 29.6334 2.37303 28.8189 1.48444 28.0043ZM1.48444 198.762C1.55849 198.762 1.63254 198.688 1.63254 198.688C2.37303 197.947 3.11352 197.207 3.85402 196.466C3.92807 196.392 4.00211 196.244 4.00211 196.096C4.00211 190.246 4.00211 184.396 4.00211 178.546C4.00211 178.398 3.92807 178.176 3.77997 178.028C3.11352 177.287 2.44708 176.621 1.70659 175.955C1.63254 175.881 1.55849 175.807 1.48444 175.807C1.48444 183.508 1.48444 191.135 1.48444 198.762ZM1.48444 101.905C1.48444 109.607 1.48444 117.234 1.48444 124.935C1.55849 124.935 1.55849 124.935 1.63254 124.861C2.37303 124.12 3.11352 123.38 3.92807 122.565C4.00211 122.491 4.07616 122.343 4.07616 122.195C4.07616 116.345 4.07616 110.495 4.07616 104.645C4.07616 104.497 4.07616 104.423 4.00211 104.275C3.11352 103.535 2.37303 102.72 1.48444 101.905ZM9.852 283.474C9.11151 284.215 8.37102 284.955 7.63052 285.695C7.48243 285.844 7.40838 286.066 7.40838 286.214C7.40838 292.138 7.40838 297.988 7.40838 303.912C7.40838 304.06 7.48243 304.282 7.63052 304.43C8.29697 305.096 8.96341 305.763 9.62985 306.429C9.7039 306.503 9.77795 306.577 9.852 306.651C9.852 298.876 9.852 291.249 9.852 283.474ZM9.852 85.0222C9.852 77.247 9.852 69.62 9.852 61.8448C9.11151 62.5853 8.44506 63.2518 7.70457 63.9922C7.48243 64.2144 7.40838 64.4365 7.40838 64.7327C7.40838 70.4345 7.40838 76.2104 7.40838 81.9121C7.40838 82.4305 7.55647 82.8007 7.92672 83.171C8.59316 83.6893 9.18556 84.2817 9.852 85.0222ZM9.77795 158.923C9.77795 151.148 9.77795 143.521 9.77795 135.746C9.03746 136.486 8.37102 137.153 7.63052 137.893C7.40838 138.115 7.33433 138.338 7.33433 138.634C7.33433 144.039 7.33433 149.519 7.33433 154.925C7.33433 155.443 7.18623 156.035 7.40838 156.48C7.63052 156.924 8.07482 157.22 8.44506 157.59C8.96341 157.961 9.33366 158.405 9.77795 158.923ZM9.852 209.573C9.11151 210.313 8.51911 210.98 7.77862 211.646C7.48243 211.868 7.40838 212.165 7.40838 212.535C7.40838 213.942 7.40838 215.423 7.40838 216.83C7.40838 221.199 7.40838 225.568 7.40838 229.862C7.40838 230.159 7.48243 230.381 7.70457 230.529C8.22292 231.047 8.81531 231.64 9.33365 232.158C9.48175 232.306 9.62985 232.528 9.77795 232.676L9.852 232.602C9.852 224.975 9.852 217.348 9.852 209.573ZM6.66789 155.813L6.74193 155.739C6.74193 150.111 6.74193 144.484 6.74193 138.856C6.66788 138.856 6.66788 138.856 6.59384 138.93C5.85334 139.671 5.11285 140.411 4.44641 141.077C4.37236 141.151 4.37236 141.3 4.37236 141.448C4.37236 145.298 4.37236 149.223 4.37236 153.073C4.37236 153.222 4.44641 153.444 4.59451 153.592C5.11285 154.184 5.70525 154.702 6.22359 155.221C6.37169 155.443 6.51979 155.591 6.66789 155.813ZM6.74193 81.9121C6.74193 76.2104 6.74193 70.5826 6.74193 64.8808C6.59384 65.0289 6.51979 65.0289 6.44574 65.103C5.85334 65.7694 5.335 66.3618 4.66856 66.9542C4.44641 67.1764 4.29831 67.4726 4.29831 67.7688C4.29831 71.3972 4.29831 74.9515 4.29831 78.5059C4.29831 79.2464 4.44641 79.7647 5.0388 80.209C5.6312 80.7274 6.14954 81.3197 6.74193 81.9121ZM6.66789 229.714C6.66789 229.714 6.74193 229.64 6.81598 229.64C6.81598 224.013 6.81598 218.385 6.81598 212.757C6.74193 212.757 6.74193 212.757 6.66789 212.831C5.92739 213.572 5.1869 214.312 4.52046 214.979C4.37236 215.053 4.37236 215.201 4.37236 215.349C4.37236 219.273 4.37236 223.124 4.37236 227.049C4.37236 227.197 4.44641 227.345 4.59451 227.493C5.0388 228.011 5.4831 228.381 5.92739 228.9C6.14954 229.122 6.44574 229.418 6.66789 229.714ZM6.74193 286.584C6.66788 286.584 6.66788 286.584 6.59384 286.658C5.85334 287.399 5.11285 288.139 4.44641 288.806C4.37236 288.954 4.37236 289.102 4.37236 289.25C4.37236 293.1 4.37236 297.025 4.37236 300.876C4.37236 301.024 4.44641 301.246 4.59451 301.394C5.11285 301.986 5.70525 302.505 6.22359 303.023C6.37169 303.171 6.51979 303.393 6.74193 303.615L6.81598 303.541C6.74193 297.914 6.74193 292.286 6.74193 286.584ZM4.66856 178.917C4.66856 184.544 4.66856 190.098 4.66856 195.726C5.40905 194.985 6.14954 194.245 6.89003 193.504C6.96408 193.43 7.03813 193.282 7.03813 193.134C7.03813 189.283 7.03813 185.433 7.03813 181.582C7.03813 181.434 7.03813 181.36 6.89003 181.212C6.14954 180.472 5.4831 179.731 4.66856 178.917ZM4.66856 105.015C4.66856 110.643 4.66856 116.197 4.66856 121.751C5.40905 121.01 6.14954 120.27 6.89003 119.529C6.96408 119.455 7.03813 119.307 7.03813 119.159C7.03813 115.308 7.03813 111.458 7.03813 107.607C7.03813 107.459 7.03813 107.385 6.89003 107.237C6.14954 106.571 5.40905 105.83 4.66856 105.015ZM4.59451 269.553C4.66856 269.479 4.74261 269.479 4.74261 269.405C5.40905 268.738 6.14954 268.072 6.81598 267.331C6.89003 267.257 6.96408 267.035 6.96408 266.887C6.96408 263.036 6.96408 259.26 6.96408 255.409C6.96408 255.261 6.89003 255.039 6.74193 254.891C6.14954 254.225 5.4831 253.632 4.81666 252.966C4.74261 252.892 4.66856 252.818 4.59451 252.818C4.59451 258.445 4.59451 263.925 4.59451 269.553ZM4.66856 47.9236C5.4831 47.109 6.22359 46.4426 6.89003 45.7021C6.96408 45.628 7.03813 45.48 7.03813 45.3319C7.03813 41.4813 7.03813 37.6307 7.03813 33.8542C7.03813 33.7061 6.96408 33.484 6.81598 33.3359C6.29764 32.8175 5.77929 32.2992 5.1869 31.7068C5.0388 31.5587 4.8907 31.3366 4.74261 31.1885L4.66856 31.2625C4.66856 36.7421 4.66856 42.2958 4.66856 47.9236ZM3.70592 215.793C3.55782 215.941 3.48377 215.941 3.48377 216.015C2.81733 216.682 2.15088 217.274 1.55849 218.015C1.41039 218.163 1.33634 218.385 1.33634 218.533C1.33634 220.384 1.33634 222.161 1.33634 224.013C1.33634 224.161 1.41039 224.383 1.55849 224.531C2.15088 225.197 2.89138 225.864 3.48377 226.53C3.55782 226.604 3.63187 226.678 3.70592 226.752C3.70592 222.976 3.70592 219.421 3.70592 215.793ZM3.70592 152.703C3.70592 149.075 3.70592 145.52 3.70592 141.892C3.63187 141.966 3.55782 141.966 3.55782 142.04C2.81733 142.781 2.15088 143.447 1.41039 144.188C1.33634 144.262 1.26229 144.41 1.26229 144.558C1.26229 146.409 1.26229 148.26 1.26229 150.037C1.26229 150.185 1.33634 150.408 1.48444 150.482C2.07684 151.148 2.74328 151.741 3.40972 152.407C3.48377 152.481 3.55782 152.555 3.70592 152.703ZM3.70592 67.9909C3.63187 67.9909 3.55782 68.0649 3.55782 68.0649C2.81733 68.8054 2.07684 69.5459 1.41039 70.2124C1.33634 70.2864 1.26229 70.4345 1.26229 70.5826C1.26229 72.4339 1.26229 74.211 1.26229 76.0623C1.26229 76.2104 1.33634 76.4325 1.48444 76.5806C2.15088 77.247 2.81733 77.9135 3.48377 78.5799C3.55782 78.654 3.63187 78.728 3.70592 78.728C3.70592 75.1737 3.70592 71.6193 3.70592 67.9909ZM3.70592 300.505C3.70592 296.877 3.70592 293.323 3.70592 289.694C3.63187 289.768 3.55782 289.768 3.55782 289.842C2.81733 290.583 2.15088 291.249 1.41039 291.99C1.33634 292.064 1.26229 292.212 1.26229 292.36C1.26229 294.211 1.26229 296.062 1.26229 297.84C1.26229 297.988 1.33634 298.21 1.48444 298.284C2.07684 298.95 2.74328 299.543 3.40972 300.209C3.48377 300.283 3.55782 300.357 3.70592 300.505Z" fill="#E4C590"/>
<path d="M0.595703 507.621C0.595703 507.325 0.595703 507.102 0.595703 506.806C0.743801 506.88 0.817851 506.954 0.965949 507.028C2.89123 505.103 4.81651 503.178 6.66774 501.327C5.77915 500.438 4.9646 499.623 4.07601 498.735C3.11337 499.698 2.00264 500.808 0.965949 501.845C0.817851 501.771 0.743801 501.697 0.595703 501.623C0.595703 501.327 0.595703 501.03 0.595703 500.734C0.743801 500.808 0.817851 500.956 0.965949 500.956C1.85454 500.068 2.74313 499.179 3.63172 498.291C2.81718 497.476 1.92859 496.587 1.04 495.699C0.8919 495.847 0.817851 495.921 0.669752 496.069C0.669752 495.551 0.669752 495.032 0.669752 494.514C0.743801 494.588 0.817851 494.588 0.965949 494.662C0.965949 494.44 0.965949 494.366 0.965949 494.218C0.965949 492.737 0.965949 491.182 0.965949 489.701C0.965949 489.479 0.8919 489.331 0.669752 489.183C0.669752 488.886 0.669752 488.664 0.669752 488.368C0.743801 488.368 0.817851 488.442 0.965949 488.516C0.965949 488.368 0.965949 488.22 0.965949 488.146C0.965949 486.665 0.965949 485.184 0.965949 483.703C0.965949 483.481 0.965949 483.259 0.669752 483.111C0.669752 482.814 0.669752 482.592 0.669752 482.296C0.743801 482.296 0.817851 482.37 0.965949 482.444C0.965949 482.296 0.965949 482.148 0.965949 482C0.965949 480.519 0.965949 479.038 0.965949 477.557C0.965949 477.335 0.965949 477.039 0.669752 476.964C0.669752 476.668 0.669752 476.446 0.669752 476.15C0.743801 476.15 0.817851 476.224 0.8919 476.298C0.8919 474.669 0.8919 473.04 0.8919 471.411C0.743801 471.411 0.743801 471.485 0.669752 471.559C0.669752 471.041 0.669752 470.596 0.669752 470.078C0.817851 470.226 0.965949 470.374 1.11405 470.448C2.00264 469.56 2.89123 468.671 3.70577 467.856C2.74313 466.894 1.70644 465.857 0.743801 464.746C0.743801 464.45 0.743801 464.228 0.743801 463.932C0.817851 464.006 0.965949 464.08 1.04 464.154C2.00264 465.117 3.03933 466.153 4.00197 467.116C4.07601 467.19 4.15006 467.264 4.22411 467.338C5.1127 466.449 6.00129 465.561 6.88988 464.672C6.66774 464.45 6.37154 464.228 6.14939 464.006C4.37221 462.229 2.52098 460.377 0.743801 458.6C0.743801 458.304 0.743801 458.082 0.743801 457.786C0.8919 457.86 0.965949 457.934 1.04 458.008C3.03933 460.007 5.03865 462.007 7.11203 464.08C7.18608 464.154 7.26013 464.228 7.33418 464.302C8.22277 463.413 9.11136 462.525 9.99995 461.71C6.96393 458.674 3.85387 455.638 0.817851 452.528C0.817851 452.232 0.817851 452.01 0.817851 451.714C0.965949 451.788 1.04 451.862 1.1881 452.01C4.22411 455.046 7.26013 458.082 10.2961 461.118C10.3702 461.192 10.5183 461.266 10.5183 461.34C11.4069 460.451 12.2955 459.563 13.11 458.748C9.18541 454.824 5.18675 450.825 1.1881 446.826C1.11405 446.9 0.965949 446.975 0.8919 447.049C0.8919 446.752 0.8919 446.53 0.8919 446.234C0.8919 446.16 0.965949 446.012 0.965949 445.938C0.965949 444.309 0.965949 442.68 0.965949 441.125C0.965949 441.051 0.965949 440.903 0.8919 440.828C0.8919 440.31 0.8919 439.792 0.8919 439.273C1.04 439.422 1.11405 439.496 1.26215 439.57C4.22411 436.608 7.18608 433.646 10.074 430.758C9.25946 429.869 8.37087 429.055 7.48228 428.166C5.48295 430.165 3.40957 432.239 1.33619 434.386C1.1881 434.238 1.11405 434.164 0.965949 434.09C0.965949 433.794 0.965949 433.572 0.965949 433.275C1.11405 433.35 1.1881 433.424 1.33619 433.498C3.26147 431.572 5.18675 429.647 7.03798 427.796C6.14939 426.907 5.33485 426.093 4.44626 425.204C3.48362 426.167 2.37288 427.277 1.33619 428.314C1.1881 428.24 1.11405 428.166 0.965949 428.092C0.965949 427.796 0.965949 427.5 0.965949 427.203C1.11405 427.277 1.1881 427.426 1.33619 427.426C2.22479 426.537 3.11337 425.648 4.00197 424.76C3.18742 423.945 2.29883 423.057 1.41024 422.168C1.26215 422.316 1.1881 422.39 1.04 422.538C1.04 422.02 1.04 421.502 1.04 420.983C1.11405 421.057 1.1881 421.057 1.33619 421.131C1.33619 420.909 1.33619 420.835 1.33619 420.687C1.33619 419.206 1.33619 417.651 1.33619 416.17C1.33619 415.948 1.26215 415.8 1.04 415.652C1.04 415.356 1.04 415.133 1.04 414.837C1.11405 414.837 1.1881 414.911 1.33619 414.985C1.33619 414.837 1.33619 414.689 1.33619 414.615C1.33619 413.134 1.33619 411.653 1.33619 410.172C1.33619 409.95 1.33619 409.728 1.04 409.58C1.04 409.284 1.04 409.061 1.04 408.765C1.11405 408.765 1.1881 408.839 1.33619 408.913C1.33619 408.765 1.33619 408.617 1.33619 408.469C1.33619 406.988 1.33619 405.507 1.33619 404.026C1.33619 403.804 1.33619 403.508 1.04 403.434C1.04 403.137 1.04 402.915 1.04 402.619C1.11405 402.619 1.1881 402.693 1.26215 402.767C1.26215 401.138 1.26215 399.509 1.26215 397.88C1.11405 397.88 1.11405 397.954 1.04 398.028C1.04 397.51 1.04 397.065 1.04 396.547C1.1881 396.695 1.33619 396.843 1.48429 396.917C2.37288 396.029 3.26147 395.14 4.07601 394.326C3.11337 393.363 2.07669 392.326 1.11405 391.216C1.11405 390.919 1.11405 390.697 1.11405 390.401C1.1881 390.475 1.33619 390.549 1.41024 390.623C2.37288 391.586 3.40957 392.622 4.37221 393.585C4.44626 393.659 4.52031 393.733 4.59436 393.807C5.48295 392.919 6.37154 392.03 7.26013 391.141C7.03798 390.919 6.74178 390.697 6.51964 390.475C4.74246 388.698 2.89123 386.847 1.11405 385.069C1.11405 384.773 1.11405 384.551 1.11405 384.255C1.26215 384.329 1.33619 384.403 1.41024 384.477C3.40957 386.476 5.4089 388.476 7.48228 390.549C7.55633 390.623 7.63038 390.697 7.70442 390.771C8.59301 389.883 9.4816 388.994 10.3702 388.105C7.33418 385.069 4.22411 382.033 1.1881 378.923C1.1881 378.627 1.1881 378.405 1.1881 378.109C1.33619 378.183 1.41024 378.257 1.55834 378.405C4.59436 381.441 7.63038 384.477 10.6664 387.513C10.7404 387.587 10.8885 387.661 10.8885 387.735C11.7771 386.847 12.6657 385.958 13.4803 385.143C9.55565 381.219 5.557 377.22 1.55834 373.222C1.48429 373.296 1.33619 373.37 1.26215 373.444C1.26215 373.148 1.26215 372.925 1.26215 372.629C1.26215 372.555 1.33619 372.407 1.33619 372.333C1.33619 370.704 1.33619 369.075 1.33619 367.52C1.33619 367.446 1.33619 367.298 1.26215 367.224C1.26215 366.705 1.26215 366.187 1.26215 365.669C1.41024 365.817 1.48429 365.891 1.63239 365.965C4.59436 363.003 7.55633 360.041 10.4442 357.153C9.6297 356.264 8.74111 355.45 7.85252 354.561C5.85319 356.56 3.77982 358.634 1.70644 360.781C1.55834 360.633 1.48429 360.559 1.33619 360.485C1.33619 360.189 1.33619 359.967 1.33619 359.671C1.48429 359.745 1.55834 359.819 1.70644 359.893C3.63172 357.967 5.557 356.042 7.40823 354.191C6.51964 353.302 5.7051 352.488 4.81651 351.599C3.85387 352.562 2.74313 353.673 1.70644 354.709C1.55834 354.635 1.48429 354.561 1.33619 354.487C1.33619 354.191 1.33619 353.895 1.33619 353.599C1.48429 353.673 1.55834 353.821 1.70644 353.821C2.59503 352.932 3.48362 352.043 4.37221 351.155C3.55767 350.34 2.66908 349.452 1.78049 348.563C1.63239 348.711 1.55834 348.785 1.41024 348.933C1.41024 348.415 1.41024 347.897 1.41024 347.378C1.48429 347.452 1.55834 347.452 1.70644 347.526C1.70644 347.304 1.70644 347.23 1.70644 347.082C1.70644 345.601 1.70644 344.046 1.70644 342.565C1.70644 342.343 1.63239 342.195 1.41024 342.047C1.41024 341.751 1.41024 341.529 1.41024 341.232C1.48429 341.232 1.55834 341.306 1.70644 341.38C1.70644 341.232 1.70644 341.084 1.70644 341.01C1.70644 339.529 1.70644 338.048 1.70644 336.567C1.70644 336.345 1.70644 336.123 1.41024 335.975C1.41024 335.679 1.41024 335.456 1.41024 335.16C1.48429 335.16 1.55834 335.234 1.70644 335.308C1.70644 335.16 1.70644 335.012 1.70644 334.864C1.70644 333.383 1.70644 331.902 1.70644 330.421C1.70644 330.199 1.70644 329.903 1.41024 329.829C1.41024 329.533 1.41024 329.31 1.41024 329.014C1.48429 329.014 1.55834 329.088 1.63239 329.162C1.63239 327.533 1.63239 325.904 1.63239 324.275C1.48429 324.275 1.48429 324.349 1.41024 324.423C1.41024 323.905 1.41024 323.461 1.41024 322.942C1.55834 323.09 1.70644 323.238 1.85454 323.312C2.74313 322.424 3.63172 321.535 4.44626 320.721C3.48362 319.758 2.44693 318.721 1.48429 317.611C1.48429 317.314 1.48429 317.092 1.48429 316.796C1.55834 316.87 1.70644 316.944 1.78049 317.018C2.74313 317.981 3.77982 319.018 4.74246 319.98C4.81651 320.054 4.89056 320.128 4.9646 320.202C5.85319 319.314 6.74178 318.425 7.63037 317.537C7.40823 317.314 7.11203 317.092 6.88988 316.87C5.1127 315.093 3.26147 313.242 1.48429 311.465C1.48429 311.168 1.48429 310.946 1.48429 310.65C1.63239 310.724 1.70644 310.798 1.78049 310.872C3.77982 312.871 5.77915 314.871 7.85252 316.944C7.92657 317.018 8.00062 317.092 8.07467 317.166C8.96326 316.278 9.85185 315.389 10.7404 314.575C7.70442 311.539 4.59436 308.503 1.55834 305.393C1.55834 305.096 1.55834 304.874 1.55834 304.578C1.70644 304.652 1.78049 304.726 1.92859 304.874C4.9646 307.91 8.00062 310.946 11.0366 313.982C11.1107 314.056 11.2588 314.13 11.2588 314.204C12.1474 313.316 13.036 312.427 13.8505 311.613C9.9259 307.688 5.92724 303.689 1.92859 299.691C1.85454 299.765 1.70644 299.839 1.63239 299.913C1.63239 299.172 1.63239 298.358 1.63239 297.543C1.85454 297.543 2.07669 297.543 2.29883 297.543C2.29883 297.914 2.29883 298.358 2.29883 298.728C2.29883 298.876 2.37288 299.098 2.52098 299.246C3.18742 299.913 3.85387 300.579 4.52031 301.246C4.59436 301.32 4.66841 301.394 4.74246 301.468C4.74246 300.135 4.74246 298.876 4.74246 297.617C4.9646 297.617 5.1127 297.617 5.33485 297.617C5.33485 299.024 5.33485 300.505 5.33485 301.912C5.33485 302.06 5.4089 302.282 5.48295 302.356C6.14939 303.023 6.81583 303.689 7.48228 304.356C7.55633 304.43 7.63038 304.43 7.70442 304.504C7.70442 303.541 7.70442 302.653 7.70442 301.838C7.70442 300.431 7.70442 299.024 7.70442 297.617C7.92657 297.617 8.07467 297.617 8.29682 297.617C8.29682 300.135 8.29682 302.579 8.29682 305.022C8.29682 305.17 8.37087 305.318 8.44492 305.393C9.11136 306.059 9.7778 306.725 10.4442 307.392C10.5183 307.466 10.5923 307.466 10.6664 307.54C10.6664 307.318 10.6664 307.17 10.6664 307.022C10.6664 303.986 10.6664 300.95 10.6664 297.914C10.6664 297.765 10.6664 297.617 10.6664 297.469C10.8145 297.469 11.0366 297.469 11.1847 297.469C11.1847 297.617 11.1847 297.765 11.1847 297.988C11.1847 301.246 11.1847 304.504 11.1847 307.836C11.1847 307.984 11.1847 308.206 11.3328 308.354C12.1474 309.169 12.9619 309.984 13.7765 310.798C13.7765 311.316 13.7765 311.835 13.7765 312.353C13.036 313.094 12.3695 313.834 11.629 314.649C12.2955 315.315 13.036 316.056 13.7765 316.796C13.7765 317.092 13.7765 317.314 13.7765 317.611C13.2581 317.092 12.7398 316.648 12.2214 316.13C11.8512 315.759 11.4809 315.389 11.1847 315.093C10.2961 315.982 9.40756 316.87 8.59301 317.685C8.59301 317.685 8.66706 317.759 8.74111 317.833C10.3702 319.462 11.9993 321.091 13.6284 322.72C13.7024 322.794 13.7765 322.794 13.8505 322.868C13.8505 323.164 13.8505 323.461 13.8505 323.757C13.7765 323.683 13.6284 323.609 13.5543 323.535C11.8512 321.831 10.148 320.128 8.44492 318.425C8.29682 318.277 8.29682 318.203 8.22277 318.129C7.26013 319.092 6.44559 319.98 5.557 320.795C5.557 320.795 5.63105 320.869 5.7051 320.943C8.37087 323.609 11.0366 326.274 13.6284 328.866C13.7024 328.94 13.7765 329.014 13.8505 329.014C13.8505 329.31 13.8505 329.607 13.8505 329.903C13.7024 329.755 13.6284 329.681 13.5543 329.607C10.8145 326.867 8.14872 324.201 5.4089 321.461C5.2608 321.313 5.18675 321.239 5.18675 321.239C4.29816 322.128 3.40957 323.016 2.59503 323.831C2.66908 323.905 2.74313 323.979 2.81718 324.053C5.557 326.793 8.22277 329.459 10.9626 332.198C11.9252 333.161 12.9619 334.198 13.9246 335.16C13.9246 335.456 13.9246 335.679 13.9246 335.975C13.8505 335.901 13.7024 335.827 13.6284 335.753C11.9993 334.124 10.4442 332.569 8.81516 330.939C8.74111 330.865 8.66706 330.717 8.66706 330.569C8.66706 330.569 8.59301 330.643 8.51897 330.717C8.51897 334.272 8.51897 337.752 8.51897 341.306C8.51897 341.306 8.59301 341.306 8.59301 341.38C8.66706 341.306 8.74111 341.158 8.81516 341.084C10.4442 339.455 11.9993 337.9 13.5543 336.345C13.6284 336.271 13.7765 336.197 13.8505 336.123C13.8505 336.419 13.8505 336.641 13.8505 336.937C13.7024 337.086 13.6284 337.16 13.5543 337.234C11.7031 339.085 9.85185 340.936 8.00062 342.787C6.22344 344.565 4.52031 346.268 2.74313 348.045C2.66908 348.119 2.59503 348.267 2.52098 348.267C3.40957 349.156 4.29816 350.044 5.18675 350.933C5.2608 350.785 5.33485 350.711 5.4089 350.563C8.14872 347.823 10.8145 345.083 13.5543 342.417C13.6284 342.343 13.7765 342.269 13.8505 342.195C13.8505 342.491 13.8505 342.787 13.8505 343.084C13.7765 343.158 13.7024 343.232 13.6284 343.306C11.0366 345.897 8.37087 348.563 5.77915 351.155C5.7051 351.229 5.63105 351.303 5.557 351.377C6.44559 352.266 7.33418 353.154 8.14872 353.969C8.22277 353.895 8.29682 353.821 8.44492 353.747C10.148 352.043 11.8512 350.34 13.5543 348.637C13.6284 348.563 13.7765 348.489 13.8505 348.415C13.8505 348.711 13.8505 349.007 13.8505 349.304C13.7765 349.378 13.7024 349.452 13.6284 349.452C11.9993 351.081 10.3702 352.71 8.74111 354.339C8.66706 354.413 8.59301 354.487 8.59301 354.487C9.4816 355.376 10.3702 356.264 11.1847 357.079C11.7771 356.486 12.5176 355.746 13.1841 355.08C13.4062 354.857 13.5543 354.709 13.7765 354.561C13.7765 354.857 13.7765 355.08 13.7765 355.376C13.036 356.116 12.2955 356.857 11.629 357.523C12.3695 358.264 13.11 359.004 13.7765 359.745C13.7765 360.041 13.7765 360.263 13.7765 360.559C13.7024 360.485 13.5543 360.411 13.4803 360.337C12.8138 359.671 12.1474 359.004 11.4809 358.338C11.4069 358.264 11.3328 358.19 11.1847 358.116C11.1847 358.338 11.1847 358.486 11.1847 358.634C11.1847 363.003 11.1847 367.372 11.1847 371.741C11.1847 375.073 11.1847 378.405 11.1847 381.811C11.1847 381.959 11.1847 382.182 11.3328 382.33C12.1474 383.144 12.9619 383.959 13.7765 384.773C13.7765 385.292 13.7765 385.81 13.7765 386.328C13.036 387.069 12.3695 387.809 11.629 388.624C12.2955 389.29 13.036 390.031 13.7765 390.771C13.7765 391.067 13.7765 391.29 13.7765 391.586C13.2581 391.067 12.7398 390.623 12.2214 390.105C11.8512 389.735 11.4809 389.364 11.1847 389.068C10.2961 389.957 9.40756 390.845 8.59301 391.66C8.59301 391.66 8.66706 391.734 8.74111 391.808C10.3702 393.437 11.9993 395.066 13.6284 396.695C13.7024 396.769 13.7765 396.769 13.8505 396.843C13.8505 397.139 13.8505 397.436 13.8505 397.732C13.7765 397.658 13.6284 397.584 13.5543 397.51C11.8512 395.807 10.148 394.103 8.44492 392.4C8.29682 392.252 8.29682 392.178 8.22277 392.104C7.26013 393.067 6.44559 393.955 5.557 394.77C5.557 394.77 5.63105 394.844 5.7051 394.918C8.37087 397.584 11.0366 400.249 13.6284 402.841C13.7024 402.915 13.7765 402.989 13.8505 402.989C13.8505 403.286 13.8505 403.582 13.8505 403.878C13.7024 403.73 13.6284 403.656 13.5543 403.582C10.8145 400.842 8.14872 398.176 5.4089 395.436C5.2608 395.288 5.18675 395.214 5.18675 395.214C4.29816 396.103 3.40957 396.991 2.59503 397.806C2.66908 397.88 2.74313 397.954 2.81718 398.028C5.557 400.768 8.22277 403.434 10.9626 406.173C11.9252 407.136 12.9619 408.173 13.9246 409.135C13.9246 409.432 13.9246 409.654 13.9246 409.95C13.8505 409.876 13.7024 409.802 13.6284 409.728C11.9993 408.099 10.4442 406.544 8.81516 404.915C8.74111 404.841 8.66706 404.692 8.66706 404.544C8.66706 404.544 8.59301 404.618 8.51897 404.692C8.51897 408.247 8.51897 411.727 8.51897 415.282H8.59301C8.66706 415.207 8.74111 415.133 8.81516 415.059C10.4442 413.43 11.9993 411.875 13.5543 410.32C13.6284 410.246 13.7765 410.172 13.8505 410.098C13.8505 410.394 13.8505 410.616 13.8505 410.913C13.7024 411.061 13.6284 411.135 13.5543 411.209C11.7031 413.06 9.85185 414.911 8.00062 416.762C6.22344 418.54 4.52031 420.243 2.74313 422.02C2.66908 422.094 2.59503 422.242 2.52098 422.242C3.40957 423.131 4.29816 424.019 5.18675 424.908C5.2608 424.76 5.33485 424.686 5.4089 424.538C8.14872 421.798 10.8145 419.058 13.5543 416.392C13.6284 416.318 13.7765 416.244 13.8505 416.17C13.8505 416.466 13.8505 416.762 13.8505 417.059C13.7765 417.133 13.7024 417.207 13.6284 417.281C11.0366 419.873 8.37087 422.538 5.77915 425.13C5.7051 425.204 5.63105 425.278 5.557 425.352C6.44559 426.241 7.33418 427.129 8.14872 427.944C8.22277 427.87 8.29682 427.796 8.44492 427.722C10.148 426.019 11.8512 424.315 13.5543 422.612C13.6284 422.538 13.7765 422.464 13.8505 422.39C13.8505 422.686 13.8505 422.983 13.8505 423.279C13.7765 423.353 13.7024 423.427 13.6284 423.427C11.9993 425.056 10.3702 426.685 8.74111 428.314C8.66706 428.388 8.59301 428.462 8.59301 428.462C9.4816 429.351 10.3702 430.239 11.1847 431.054C11.7771 430.462 12.5176 429.721 13.1841 429.055C13.4062 428.832 13.5543 428.684 13.7765 428.536C13.7765 428.832 13.7765 429.055 13.7765 429.351C13.036 430.091 12.2955 430.832 11.629 431.498C12.3695 432.239 13.11 432.979 13.7765 433.72C13.7765 434.016 13.7765 434.238 13.7765 434.534C13.7024 434.46 13.5543 434.386 13.4803 434.312C12.8138 433.646 12.1474 432.979 11.4809 432.313C11.4069 432.239 11.3328 432.165 11.1847 432.091C11.1847 432.313 11.1847 432.461 11.1847 432.609C11.1847 436.978 11.1847 441.347 11.1847 445.716C11.1847 449.048 11.1847 452.38 11.1847 455.786C11.1847 455.934 11.1847 456.157 11.3328 456.305C12.1474 457.119 12.9619 457.934 13.7765 458.748C13.7765 459.267 13.7765 459.785 13.7765 460.303C13.036 461.044 12.3695 461.784 11.629 462.599C12.2955 463.265 13.036 464.006 13.7765 464.746C13.7765 465.043 13.7765 465.265 13.7765 465.561C13.2581 465.043 12.7398 464.598 12.2214 464.08C11.8512 463.71 11.4809 463.339 11.1847 463.043C10.2961 463.932 9.40756 464.82 8.59301 465.635C8.59301 465.635 8.66706 465.709 8.74111 465.783C10.3702 467.412 11.9993 469.041 13.6284 470.67C13.7024 470.744 13.7765 470.744 13.8505 470.818C13.8505 471.115 13.8505 471.411 13.8505 471.707C13.7765 471.633 13.6284 471.559 13.5543 471.485C11.8512 469.782 10.148 468.079 8.44492 466.375C8.29682 466.227 8.29682 466.153 8.22277 466.079C7.26013 467.042 6.44559 467.93 5.557 468.745C5.557 468.745 5.63105 468.819 5.7051 468.893C8.37087 471.559 11.0366 474.225 13.6284 476.816C13.7024 476.89 13.7765 476.964 13.8505 476.964C13.8505 477.261 13.8505 477.557 13.8505 477.853C13.7024 477.705 13.6284 477.631 13.5543 477.557C10.8145 474.817 8.14872 472.151 5.4089 469.411C5.2608 469.263 5.18675 469.189 5.18675 469.189C4.29816 470.078 3.40957 470.966 2.59503 471.781C2.66908 471.855 2.74313 471.929 2.81718 472.003C5.557 474.743 8.22277 477.409 10.9626 480.149C11.9252 481.111 12.9619 482.148 13.9246 483.111C13.9246 483.407 13.9246 483.629 13.9246 483.925C13.8505 483.851 13.7024 483.777 13.6284 483.703C11.9993 482.074 10.4442 480.519 8.81516 478.89C8.74111 478.816 8.66706 478.668 8.66706 478.519C8.66706 478.519 8.59301 478.594 8.51897 478.668C8.51897 482.222 8.51897 485.702 8.51897 489.331C8.66706 489.183 8.74111 489.109 8.81516 489.034C10.4442 487.405 11.9993 485.85 13.5543 484.295C13.6284 484.221 13.7765 484.147 13.8505 484.073C13.8505 484.369 13.8505 484.592 13.8505 484.888C13.7024 485.036 13.6284 485.11 13.5543 485.184C11.7031 487.035 9.85185 488.886 8.00062 490.738C6.22344 492.515 4.52031 494.218 2.74313 495.995C2.66908 496.069 2.59503 496.217 2.52098 496.217C3.40957 497.106 4.29816 497.994 5.18675 498.883C5.2608 498.735 5.33485 498.661 5.4089 498.513C8.14872 495.773 10.8145 493.033 13.5543 490.367C13.6284 490.293 13.7765 490.219 13.8505 490.145C13.8505 490.441 13.8505 490.738 13.8505 491.034C13.7765 491.108 13.7024 491.182 13.6284 491.256C11.0366 493.848 8.37087 496.513 5.77915 499.105C5.7051 499.179 5.63105 499.253 5.557 499.327C6.44559 500.216 7.33418 501.105 8.14872 501.919C8.22277 501.845 8.29682 501.771 8.44492 501.697C10.148 499.994 11.8512 498.291 13.5543 496.588C13.6284 496.513 13.7765 496.439 13.8505 496.365C13.8505 496.662 13.8505 496.958 13.8505 497.254C13.7765 497.328 13.7024 497.402 13.6284 497.402C11.9993 499.031 10.3702 500.66 8.74111 502.289C8.66706 502.363 8.59301 502.437 8.59301 502.437C9.4816 503.326 10.3702 504.215 11.1847 505.029C11.8512 504.363 12.5176 503.696 13.1841 503.03C13.4062 502.808 13.5543 502.66 13.7765 502.511C13.7765 502.808 13.7765 503.03 13.7765 503.326C13.036 504.066 12.2955 504.807 11.629 505.473C12.3695 506.214 13.11 506.954 13.7765 507.695C13.7765 507.991 13.7765 508.213 13.7765 508.509C13.7024 508.435 13.5543 508.361 13.4803 508.287C12.8138 507.621 12.1474 506.954 11.4809 506.288C11.4069 506.214 11.3328 506.14 11.1847 506.066C11.1847 506.288 11.1847 506.436 11.1847 506.584C11.1847 510.953 11.1847 515.322 11.1847 519.691C11.1847 523.023 11.1847 526.355 11.1847 529.762C11.1847 529.91 11.1847 530.132 11.3328 530.28C12.1474 531.094 12.9619 531.909 13.7765 532.723C13.7765 533.242 13.7765 533.76 13.7765 534.279C13.036 535.019 12.3695 535.76 11.629 536.574C12.2955 537.241 13.036 537.981 13.7765 538.721C13.7765 539.018 13.7765 539.24 13.7765 539.536C13.2581 539.018 12.7398 538.573 12.2214 538.055C11.8512 537.685 11.4809 537.315 11.1847 537.018C10.2961 537.907 9.40756 538.796 8.59301 539.61C8.59301 539.61 8.66706 539.684 8.74111 539.758C10.3702 541.387 11.9993 543.016 13.6284 544.645C13.7024 544.719 13.7765 544.719 13.8505 544.794C13.8505 545.09 13.8505 545.386 13.8505 545.682C13.7765 545.608 13.6284 545.534 13.5543 545.46C11.8512 543.757 10.148 542.054 8.44492 540.351C8.29682 540.202 8.29682 540.128 8.22277 540.054C7.26013 541.017 6.44559 541.906 5.557 542.72C5.557 542.72 5.63105 542.794 5.7051 542.868C8.37087 545.534 11.0366 548.2 13.6284 550.792C13.7024 550.866 13.7765 550.94 13.8505 550.94C13.8505 551.236 13.8505 551.532 13.8505 551.828C13.7024 551.68 13.6284 551.606 13.5543 551.532C10.8145 548.792 8.14872 546.126 5.4089 543.387C5.2608 543.238 5.18675 543.164 5.18675 543.164C4.29816 544.053 3.40957 544.942 2.59503 545.756C2.66908 545.83 2.74313 545.904 2.81718 545.978C5.557 548.718 8.22277 551.384 10.9626 554.124C11.9252 555.086 12.9619 556.123 13.9246 557.086C13.9246 557.382 13.9246 557.604 13.9246 557.9C13.8505 557.826 13.7024 557.752 13.6284 557.678C11.9993 556.049 10.4442 554.494 8.81516 552.865C8.74111 552.791 8.66706 552.643 8.66706 552.495C8.66706 552.495 8.59301 552.569 8.51897 552.643C8.51897 556.197 8.51897 559.677 8.51897 563.232C8.51897 563.232 8.59301 563.232 8.59301 563.306C8.66706 563.232 8.74111 563.084 8.81516 563.01C10.4442 561.381 11.9993 559.825 13.5543 558.27C13.6284 558.196 13.7765 558.122 13.8505 558.048C13.8505 558.345 13.8505 558.567 13.8505 558.863C13.7024 559.011 13.6284 559.085 13.5543 559.159C11.7031 561.01 9.85185 562.862 8.00062 564.713C6.22344 566.49 4.52031 568.193 2.74313 569.97C2.66908 570.044 2.59503 570.192 2.52098 570.192C3.40957 571.081 4.29816 571.97 5.18675 572.858C5.2608 572.71 5.33485 572.636 5.4089 572.488C8.14872 569.748 10.8145 567.008 13.5543 564.343C13.6284 564.268 13.7765 564.194 13.8505 564.12C13.8505 564.417 13.8505 564.713 13.8505 565.009C13.7765 565.083 13.7024 565.157 13.6284 565.231C11.0366 567.823 8.37087 570.489 5.77915 573.08C5.7051 573.154 5.63105 573.228 5.557 573.302C6.44559 574.191 7.33418 575.08 8.14872 575.894C8.22277 575.82 8.29682 575.746 8.44492 575.672C10.148 573.969 11.8512 572.266 13.5543 570.563C13.6284 570.489 13.7765 570.415 13.8505 570.34C13.8505 570.637 13.8505 570.933 13.8505 571.229C13.7765 571.303 13.7024 571.377 13.6284 571.377C11.9993 573.006 10.3702 574.635 8.74111 576.264C8.66706 576.338 8.59301 576.413 8.59301 576.413C9.4816 577.301 10.3702 578.19 11.1847 579.004C11.8512 578.338 12.5176 577.671 13.1841 577.005C13.4062 576.783 13.5543 576.635 13.7765 576.487C13.7765 576.783 13.7765 577.005 13.7765 577.301C13.036 578.042 12.2955 578.782 11.629 579.449C12.3695 580.189 13.11 580.929 13.7765 581.67C13.7765 581.966 13.7765 582.188 13.7765 582.485C13.7024 582.411 13.5543 582.336 13.4803 582.262C12.8138 581.596 12.1474 580.93 11.4809 580.263C11.4069 580.189 11.3328 580.115 11.1847 580.041C11.1847 580.263 11.1847 580.411 11.1847 580.559C11.1847 584.928 11.1847 589.297 11.1847 593.666C11.1847 596.998 11.1847 600.33 11.1847 603.737C11.1847 603.885 11.1847 604.107 11.3328 604.255C12.1474 605.07 12.9619 605.884 13.7765 606.699C13.7765 607.217 13.7765 607.735 13.7765 608.254C13.036 608.994 12.3695 609.735 11.629 610.549C12.2955 611.216 13.036 611.956 13.7765 612.697C13.7765 612.993 13.7765 613.215 13.7765 613.511C13.2581 612.993 12.7398 612.548 12.2214 612.03C11.8512 611.66 11.4809 611.29 11.1847 610.993C10.2961 611.882 9.40756 612.771 8.59301 613.585C8.59301 613.585 8.66706 613.659 8.74111 613.733C10.3702 615.362 11.9993 616.991 13.6284 618.621C13.7024 618.695 13.7765 618.695 13.8505 618.769C13.8505 619.065 13.8505 619.361 13.8505 619.657C13.7765 619.583 13.6284 619.509 13.5543 619.435C11.8512 617.732 10.148 616.029 8.44492 614.326C8.29682 614.178 8.29682 614.104 8.22277 614.029C7.26013 614.992 6.44559 615.881 5.557 616.695C5.557 616.695 5.63105 616.769 5.7051 616.843C8.37087 619.509 11.0366 622.175 13.6284 624.767C13.7024 624.841 13.7765 624.915 13.8505 624.915C13.8505 625.211 13.8505 625.507 13.8505 625.803C13.7024 625.655 13.6284 625.581 13.5543 625.507C10.8145 622.767 8.14872 620.102 5.4089 617.362C5.2608 617.214 5.2608 617.14 5.18675 617.066C4.22411 618.028 3.40957 618.843 2.44693 619.805C2.52098 619.879 2.59503 619.953 2.66908 620.027C4.59436 621.953 6.51964 623.878 8.37087 625.729C8.44492 625.803 8.51896 625.951 8.59301 626.025C8.29682 626.025 8.00062 626.025 7.70442 626.025C7.63038 625.951 7.55633 625.803 7.48228 625.729C6.88988 625.137 6.29749 624.544 5.7051 623.952C5.63105 623.804 5.557 623.73 5.48295 623.582C5.4089 623.582 5.33485 623.656 5.33485 623.73C5.33485 624.47 5.33485 625.285 5.33485 626.099C5.1127 626.099 4.9646 626.099 4.74246 626.099C4.74246 625.137 4.74246 624.248 4.74246 623.286C4.74246 623.138 4.66841 622.915 4.59436 622.841C3.85387 622.101 3.18742 621.36 2.44693 620.694C2.29883 619.361 2.29883 619.361 2.15074 619.287C2.15074 619.509 2.15074 619.583 2.15074 619.731C2.15074 621.434 2.15074 623.138 2.15074 624.841C1.85454 624.841 1.55834 624.841 1.26215 624.841C1.26215 624.544 1.26215 624.248 1.26215 623.878C1.33619 623.878 1.41024 623.952 1.48429 624.026C1.48429 622.397 1.48429 620.768 1.48429 619.139C1.33619 619.139 1.33619 619.213 1.26215 619.287C1.26215 618.769 1.26215 618.324 1.26215 617.806C1.41024 617.954 1.55834 618.102 1.70644 618.176C2.59503 617.288 3.48362 616.399 4.29816 615.585C3.33552 614.622 2.29883 613.585 1.33619 612.474C1.33619 612.178 1.33619 611.956 1.33619 611.66C1.41024 611.734 1.55834 611.808 1.63239 611.882C2.59503 612.845 3.63172 613.881 4.59436 614.844C4.66841 614.918 4.74246 614.992 4.81651 615.066C5.7051 614.178 6.59369 613.289 7.48228 612.4C7.26013 612.178 6.96393 611.956 6.74178 611.734C4.9646 609.957 3.11338 608.106 1.33619 606.328C1.33619 606.032 1.33619 605.81 1.33619 605.514C1.48429 605.588 1.55834 605.662 1.63239 605.736C3.63172 607.735 5.63105 609.735 7.70442 611.808C7.77847 611.882 7.85252 611.956 7.92657 612.03C8.81516 611.142 9.70375 610.253 10.5923 609.364C7.55633 606.328 4.44626 603.292 1.41024 600.182C1.41024 599.886 1.41024 599.664 1.41024 599.368C1.55834 599.442 1.63239 599.516 1.78049 599.664C4.81651 602.7 7.85252 605.736 10.8885 608.772C10.9626 608.846 11.1107 608.92 11.1107 608.994C11.9993 608.106 12.8879 607.217 13.7024 606.402C9.7778 602.478 5.77915 598.479 1.78049 594.481C1.70644 594.555 1.55834 594.629 1.48429 594.703C1.48429 594.406 1.48429 594.184 1.48429 593.888C1.48429 593.814 1.55834 593.666 1.55834 593.592C1.55834 591.963 1.55834 590.334 1.55834 588.779C1.55834 588.705 1.55834 588.557 1.48429 588.483C1.48429 587.964 1.48429 587.446 1.48429 586.928C1.63239 587.076 1.70644 587.15 1.85454 587.224C4.81651 584.262 7.77847 581.3 10.6664 578.412C9.85185 577.523 8.96326 576.709 8.07467 575.82C6.07534 577.819 4.00197 579.893 1.92859 582.04C1.78049 581.892 1.70644 581.818 1.55834 581.744C1.55834 581.448 1.55834 581.226 1.55834 580.929C1.70644 581.004 1.78049 581.078 1.92859 581.152C3.85387 579.226 5.77915 577.301 7.63037 575.45C6.74178 574.561 5.92724 573.747 5.03865 572.858C4.07601 573.821 2.96528 574.932 1.92859 575.968C1.78049 575.894 1.70644 575.82 1.55834 575.746C1.55834 575.45 1.55834 575.154 1.55834 574.857C1.70644 574.932 1.78049 575.08 1.92859 575.08C2.81718 574.191 3.70577 573.302 4.59436 572.414C3.77982 571.599 2.89123 570.711 2.00264 569.822C1.85454 569.97 1.78049 570.044 1.63239 570.192C1.63239 569.674 1.63239 569.156 1.63239 568.637C1.70644 568.711 1.78049 568.711 1.92859 568.785C1.92859 568.563 1.92859 568.489 1.92859 568.341C1.92859 566.86 1.92859 565.305 1.92859 563.824C1.92859 563.602 1.85454 563.454 1.63239 563.306C1.63239 563.01 1.63239 562.787 1.63239 562.491C1.70644 562.491 1.78049 562.565 1.92859 562.639C1.92859 562.491 1.92859 562.343 1.92859 562.269C1.92859 560.788 1.92859 559.307 1.92859 557.826C1.92859 557.604 1.92859 557.382 1.63239 557.234C1.63239 556.938 1.63239 556.715 1.63239 556.419C1.70644 556.419 1.78049 556.493 1.92859 556.567C1.92859 556.419 1.92859 556.271 1.92859 556.123C1.92859 554.642 1.92859 553.161 1.92859 551.68C1.92859 551.458 1.92859 551.162 1.63239 551.088C1.63239 550.791 1.63239 550.569 1.63239 550.273C1.70644 550.273 1.78049 550.347 1.85454 550.421C1.85454 548.792 1.85454 547.163 1.85454 545.534C1.70644 545.534 1.70644 545.608 1.63239 545.682C1.63239 545.164 1.63239 544.719 1.63239 544.201C1.78049 544.349 1.92859 544.497 2.07669 544.571C2.96528 543.683 3.85387 542.794 4.66841 541.98C3.70577 541.017 2.66908 539.98 1.70644 538.87C1.70644 538.573 1.70644 538.351 1.70644 538.055C1.78049 538.129 1.92859 538.203 2.00264 538.277C2.96528 539.24 4.00197 540.277 4.9646 541.239C5.03865 541.313 5.1127 541.387 5.18675 541.461C6.07534 540.573 6.96393 539.684 7.85252 538.796C7.63037 538.573 7.33418 538.351 7.11203 538.129C5.33485 536.352 3.48362 534.501 1.70644 532.723C1.70644 532.427 1.70644 532.205 1.70644 531.909C1.85454 531.983 1.92859 532.057 2.00264 532.131C4.00197 534.13 6.00129 536.13 8.07467 538.203C8.14872 538.277 8.22277 538.351 8.29682 538.425C9.18541 537.537 10.074 536.648 10.9626 535.834C7.92657 532.798 4.81651 529.762 1.78049 526.651C1.78049 526.355 1.78049 526.133 1.78049 525.837C1.92859 525.911 2.00264 525.985 2.15074 526.133C5.18675 529.169 8.22277 532.205 11.2588 535.241C11.3328 535.315 11.4809 535.389 11.4809 535.463C12.3695 534.575 13.2581 533.686 14.0727 532.872C9.55565 528.577 5.557 524.578 1.55834 520.653C1.48429 520.728 1.33619 520.802 1.26215 520.876C1.26215 520.579 1.26215 520.357 1.26215 520.061C1.26215 519.987 1.33619 519.839 1.33619 519.765C1.33619 518.136 1.33619 516.507 1.33619 514.952C1.33619 514.878 1.33619 514.73 1.26215 514.655C1.26215 514.137 1.26215 513.619 1.26215 513.1C1.41024 513.249 1.48429 513.323 1.63239 513.397C4.59436 510.435 7.55633 507.473 10.4442 504.585C9.55565 503.696 8.74111 502.882 7.85252 501.993C5.85319 503.992 3.77982 506.066 1.70644 508.213C0.817851 507.843 0.669752 507.695 0.595703 507.621ZM1.48429 568.341C1.55834 568.341 1.55834 568.341 1.63239 568.267C2.37288 567.527 3.11338 566.786 3.85387 566.046C3.92792 565.972 4.00197 565.823 4.00197 565.675C4.00197 559.825 4.00197 553.976 4.00197 548.052C4.00197 547.904 3.92792 547.755 3.85387 547.681C3.11338 546.941 2.37288 546.2 1.63239 545.46C1.63239 545.46 1.55834 545.46 1.48429 545.386C1.48429 553.013 1.48429 560.64 1.48429 568.341ZM1.48429 323.609C1.48429 331.31 1.48429 338.937 1.48429 346.638C1.55834 346.638 1.63239 346.564 1.63239 346.564C2.37288 345.823 3.11338 345.083 3.85387 344.342C3.92792 344.268 4.00197 344.12 4.00197 343.972C4.00197 338.122 4.00197 332.272 4.00197 326.422C4.00197 326.274 4.00197 326.2 3.92792 326.052C3.11338 325.238 2.37288 324.497 1.48429 323.609ZM1.48429 494.44C1.55834 494.44 1.63239 494.366 1.63239 494.366C2.37288 493.626 3.11338 492.885 3.85387 492.145C3.92792 492.071 4.00197 491.922 4.00197 491.774C4.00197 485.924 4.00197 480.075 4.00197 474.225C4.00197 474.077 3.92792 473.854 3.77982 473.706C3.11337 472.966 2.44693 472.299 1.70644 471.633C1.63239 471.559 1.55834 471.485 1.48429 471.485C1.48429 479.112 1.48429 486.739 1.48429 494.44ZM1.48429 397.51C1.48429 405.211 1.48429 412.838 1.48429 420.539C1.55834 420.539 1.55834 420.539 1.63239 420.465C2.37288 419.724 3.11338 418.984 3.92792 418.169C4.00197 418.095 4.07601 417.947 4.07601 417.799C4.07601 411.949 4.07601 406.099 4.07601 400.249C4.07601 400.101 4.07601 400.027 4.00197 399.879C3.11337 399.139 2.37288 398.398 1.48429 397.51ZM9.85185 579.152C9.11136 579.893 8.37087 580.633 7.63037 581.374C7.48228 581.522 7.40823 581.744 7.40823 581.892C7.40823 587.816 7.40823 593.666 7.40823 599.59C7.40823 599.738 7.48228 599.96 7.63037 600.108C8.29682 600.775 8.96326 601.441 9.6297 602.108C9.70375 602.182 9.7778 602.256 9.85185 602.33C9.85185 594.555 9.85185 586.853 9.85185 579.152ZM9.85185 380.626C9.85185 372.851 9.85185 365.224 9.85185 357.449C9.11136 358.19 8.44492 358.856 7.70442 359.597C7.48228 359.819 7.40823 360.041 7.40823 360.337C7.40823 366.039 7.40823 371.815 7.40823 377.516C7.40823 378.035 7.55633 378.405 7.92657 378.775C8.59301 379.294 9.18541 379.96 9.85185 380.626ZM9.7778 454.528C9.7778 446.752 9.7778 439.125 9.7778 431.35C9.03731 432.091 8.37087 432.757 7.63037 433.498C7.40823 433.72 7.33418 433.942 7.33418 434.238C7.33418 439.644 7.33418 445.123 7.33418 450.529C7.33418 451.047 7.18608 451.64 7.40823 452.084C7.63038 452.528 8.07467 452.824 8.44492 453.195C8.96326 453.639 9.33351 454.083 9.7778 454.528ZM9.85185 505.251C9.11136 505.992 8.51897 506.658 7.77847 507.325C7.48228 507.547 7.40823 507.843 7.40823 508.213C7.40823 509.62 7.40823 511.101 7.40823 512.508C7.40823 516.877 7.40823 521.246 7.40823 525.541C7.40823 525.837 7.48228 526.059 7.70442 526.207C8.22277 526.726 8.81516 527.318 9.33351 527.836C9.4816 527.984 9.6297 528.206 9.7778 528.355L9.85185 528.281C9.85185 520.653 9.85185 512.952 9.85185 505.251ZM6.66774 451.418L6.74178 451.343C6.74178 445.716 6.74178 440.088 6.74178 434.46C6.66774 434.46 6.66774 434.46 6.59369 434.534C5.85319 435.275 5.1127 436.015 4.44626 436.682C4.37221 436.756 4.37221 436.978 4.37221 437.052C4.37221 440.903 4.37221 444.827 4.37221 448.678C4.37221 448.826 4.44626 449.048 4.59436 449.196C5.1127 449.788 5.7051 450.307 6.22344 450.825C6.37154 451.047 6.51964 451.269 6.66774 451.418ZM6.74178 377.59C6.74178 371.889 6.74178 366.261 6.74178 360.559C6.59369 360.707 6.51964 360.707 6.44559 360.781C5.85319 361.374 5.2608 361.966 4.66841 362.558C4.44626 362.781 4.29816 363.077 4.29816 363.373C4.29816 367.001 4.29816 370.556 4.29816 374.11C4.29816 374.851 4.44626 375.369 5.03865 375.813C5.63105 376.406 6.14939 376.924 6.74178 377.59ZM6.66774 525.319C6.66774 525.319 6.74179 525.245 6.81583 525.245C6.81583 519.617 6.81583 513.989 6.81583 508.361C6.74179 508.361 6.74179 508.361 6.66774 508.435C5.92724 509.176 5.18675 509.916 4.52031 510.583C4.37221 510.731 4.37221 510.879 4.37221 510.953C4.37221 514.878 4.37221 518.728 4.37221 522.653C4.37221 522.801 4.44626 522.949 4.59436 523.097C5.03865 523.615 5.48295 523.986 5.92724 524.504C6.14939 524.8 6.44559 525.022 6.66774 525.319ZM6.74178 582.262C6.66774 582.262 6.66774 582.262 6.59369 582.336C5.85319 583.077 5.1127 583.817 4.44626 584.484C4.37221 584.558 4.37221 584.78 4.37221 584.854C4.37221 588.705 4.37221 592.629 4.37221 596.48C4.37221 596.628 4.44626 596.85 4.59436 596.998C5.1127 597.591 5.7051 598.109 6.22344 598.627C6.37154 598.775 6.51964 598.998 6.74178 599.22L6.81583 599.146C6.74179 593.518 6.74178 587.89 6.74178 582.262ZM4.66841 474.521C4.66841 480.149 4.66841 485.702 4.66841 491.33C5.4089 490.589 6.14939 489.849 6.88988 489.109C6.96393 489.034 7.03798 488.886 7.03798 488.738C7.03798 484.888 7.03798 481.037 7.03798 477.187C7.03798 477.039 7.03798 476.964 6.88988 476.816C6.14939 476.076 5.48295 475.335 4.66841 474.521ZM4.66841 400.694C4.66841 406.322 4.66841 411.875 4.66841 417.429C5.4089 416.688 6.14939 415.948 6.88988 415.207C6.96393 415.133 7.03798 414.985 7.03798 414.837C7.03798 410.987 7.03798 407.136 7.03798 403.286C7.03798 403.137 7.03798 403.063 6.88988 402.915C6.14939 402.175 5.4089 401.434 4.66841 400.694ZM4.59436 565.231C4.66841 565.157 4.74246 565.157 4.74246 565.083C5.4089 564.417 6.14939 563.75 6.81583 563.01C6.88988 562.936 6.96393 562.713 6.96393 562.565C6.96393 558.715 6.96393 554.938 6.96393 551.088C6.96393 550.94 6.88988 550.717 6.74178 550.569C6.14939 549.903 5.48295 549.311 4.81651 548.644C4.74246 548.57 4.66841 548.496 4.59436 548.496C4.59436 554.05 4.59436 559.603 4.59436 565.231ZM4.66841 343.528C5.48295 342.713 6.22344 342.047 6.88988 341.306C6.96393 341.232 7.03798 341.084 7.03798 340.936C7.03798 337.086 7.03798 333.235 7.03798 329.458C7.03798 329.31 6.96393 329.088 6.81583 328.94C6.29749 328.422 5.77915 327.903 5.18675 327.311C5.03865 327.163 4.89056 326.941 4.74246 326.793L4.66841 326.867C4.66841 332.42 4.66841 337.9 4.66841 343.528ZM3.70577 511.397C3.55767 511.545 3.48362 511.545 3.48362 511.619C2.81718 512.286 2.15074 512.878 1.55834 513.619C1.41024 513.767 1.33619 513.989 1.33619 514.137C1.33619 515.988 1.33619 517.766 1.33619 519.617C1.33619 519.765 1.41024 519.987 1.55834 520.135C2.15074 520.802 2.89123 521.468 3.48362 522.134C3.55767 522.209 3.63172 522.283 3.70577 522.357C3.70577 518.58 3.70577 515.026 3.70577 511.397ZM3.70577 448.381C3.70577 444.753 3.70577 441.199 3.70577 437.57C3.63172 437.644 3.55767 437.644 3.55767 437.718C2.81718 438.459 2.15074 439.125 1.41024 439.866C1.33619 439.94 1.26215 440.088 1.26215 440.236C1.26215 442.087 1.26215 443.939 1.26215 445.716C1.26215 445.864 1.33619 446.086 1.48429 446.16C2.07669 446.826 2.74313 447.419 3.40957 448.085C3.48362 448.159 3.55767 448.233 3.70577 448.381ZM3.70577 363.669C3.63172 363.669 3.55767 363.743 3.55767 363.743C2.81718 364.484 2.07669 365.224 1.41024 365.891C1.33619 365.965 1.26215 366.113 1.26215 366.261C1.26215 368.112 1.26215 369.889 1.26215 371.741C1.26215 371.889 1.33619 372.111 1.48429 372.259C2.15074 372.925 2.81718 373.592 3.48362 374.258C3.55767 374.332 3.63172 374.406 3.70577 374.406C3.70577 370.852 3.70577 367.298 3.70577 363.669ZM3.70577 596.11C3.70577 592.481 3.70577 588.927 3.70577 585.298C3.63172 585.372 3.55767 585.372 3.55767 585.447C2.81718 586.187 2.15074 586.853 1.41024 587.594C1.33619 587.668 1.26215 587.816 1.26215 587.964C1.26215 589.815 1.26215 591.667 1.26215 593.444C1.26215 593.592 1.33619 593.814 1.48429 593.888C2.07669 594.555 2.74313 595.147 3.40957 595.813C3.48362 595.887 3.55767 595.961 3.70577 596.11Z" fill="#E4C590"/>
</g>
<defs>
<clipPath id="clip0_97_58">
<rect width="12.8846" height="623.42" fill="white" transform="translate(0.669922 0.310059)"/>
</clipPath>
</defs>
</svg>
