<svg width="20" height="20" viewBox="0 0 20 20" fill="none" xmlns="http://www.w3.org/2000/svg">
<g clip-path="url(#clip0_97_91)">
<path fill-rule="evenodd" clip-rule="evenodd" d="M17.9308 7.20667C17.9291 5.73805 17.3449 4.33008 16.3066 3.29154C15.2682 2.25299 13.8603 1.66865 12.3917 1.66667C12.1707 1.66667 11.9587 1.57887 11.8024 1.42259C11.6461 1.26631 11.5583 1.05435 11.5583 0.833333C11.5583 0.61232 11.6461 0.400358 11.8024 0.244078C11.9587 0.0877974 12.1707 0 12.3917 0C14.3023 0.00220553 16.1341 0.762185 17.4851 2.11322C18.8361 3.46425 19.5961 5.29602 19.5983 7.20667C19.5983 7.42768 19.5105 7.63964 19.3543 7.79592C19.198 7.9522 18.986 8.04 18.765 8.04C18.544 8.04 18.332 7.9522 18.1757 7.79592C18.0195 7.63964 17.9308 7.42768 17.9308 7.20667ZM6.545 3.22333C6.91417 3.22333 7.21167 3.40167 7.21167 3.62167L7.20833 4.61C7.20833 4.66525 7.18638 4.71824 7.14731 4.75731C7.10824 4.79638 7.05525 4.81833 7 4.81833H3.43333C3.37808 4.81833 3.32509 4.79638 3.28602 4.75731C3.24695 4.71824 3.225 4.66525 3.225 4.61V3.62167C3.225 3.40167 3.525 3.22333 3.89167 3.22333H4.18C4.20728 3.22333 4.23429 3.21793 4.25947 3.20744C4.28466 3.19695 4.30751 3.18158 4.32673 3.16221C4.34594 3.14285 4.36113 3.11987 4.37142 3.0946C4.3817 3.06933 4.38689 3.04228 4.38667 3.015V1.23167C4.38667 1.01065 4.47446 0.798691 4.63074 0.642411C4.78702 0.486131 4.99899 0.398333 5.22 0.398333C5.44101 0.398333 5.65298 0.486131 5.80926 0.642411C5.96554 0.798691 6.05333 1.01065 6.05333 1.23167V3.01667C6.05377 3.07163 6.07592 3.12419 6.11494 3.1629C6.15396 3.20161 6.2067 3.22334 6.26167 3.22333H6.545ZM7.21167 14.9475H3.22833C3.06257 14.9475 2.9036 15.0133 2.78639 15.1306C2.66918 15.2478 2.60333 15.4067 2.60333 15.5725C2.60333 15.7383 2.66918 15.8972 2.78639 16.0144C2.9036 16.1317 3.06257 16.1975 3.22833 16.1975H7.21167C7.37743 16.1975 7.5364 16.1317 7.65361 16.0144C7.77082 15.8972 7.83667 15.7383 7.83667 15.5725C7.83667 15.4067 7.77082 15.2478 7.65361 15.1306C7.5364 15.0133 7.37743 14.9475 7.21167 14.9475ZM7.21167 12.6125C7.37743 12.6125 7.5364 12.5467 7.65361 12.4294C7.77082 12.3122 7.83667 12.1533 7.83667 11.9875H7.83333C7.83334 11.8223 7.76795 11.6638 7.65146 11.5467C7.53496 11.4296 7.37685 11.3634 7.21167 11.3625H3.22833C3.06257 11.3625 2.9036 11.4283 2.78639 11.5456C2.66918 11.6628 2.60333 11.8217 2.60333 11.9875C2.60333 12.1533 2.66918 12.3122 2.78639 12.4294C2.9036 12.5467 3.06257 12.6125 3.22833 12.6125H7.21167ZM3.22833 9.0275H7.21167C7.37743 9.0275 7.5364 8.96165 7.65361 8.84444C7.77082 8.72723 7.83667 8.56826 7.83667 8.4025C7.83667 8.23674 7.77082 8.07777 7.65361 7.96056C7.5364 7.84335 7.37743 7.7775 7.21167 7.7775H3.22833C3.06257 7.7775 2.9036 7.84335 2.78639 7.96056C2.66918 8.07777 2.60333 8.23674 2.60333 8.4025C2.60333 8.56826 2.66918 8.72723 2.78639 8.84444C2.9036 8.96165 3.06257 9.0275 3.22833 9.0275ZM18.5783 17.9258H19.1667C19.3877 17.9258 19.5996 18.0136 19.7559 18.1699C19.9122 18.3262 20 18.5382 20 18.7592C20 18.9802 19.9122 19.1921 19.7559 19.3484C19.5996 19.5047 19.3877 19.5925 19.1667 19.5925H0.833333C0.61232 19.5925 0.400358 19.5047 0.244078 19.3484C0.0877974 19.1921 0 18.9802 0 18.7592C0 18.5382 0.0877974 18.3262 0.244078 18.1699C0.400358 18.0136 0.61232 17.9258 0.833333 17.9258H1.00917C1.06442 17.9258 1.11741 17.9039 1.15648 17.8648C1.19555 17.8257 1.2175 17.7728 1.2175 17.7175V6.41083C1.2175 6.19438 1.30343 5.98679 1.4564 5.83366C1.60938 5.68053 1.81688 5.59439 2.03333 5.59417H8.40667C8.62297 5.59461 8.83027 5.68084 8.98306 5.83395C9.13585 5.98706 9.22167 6.19453 9.22167 6.41083V17.7167C9.22167 17.8325 9.315 17.925 9.43 17.925H10.19C10.2453 17.925 10.2982 17.9031 10.3373 17.864C10.3764 17.8249 10.3983 17.7719 10.3983 17.7167V11.19C10.3983 10.9708 10.5767 10.7925 10.7967 10.7925H13.1867C13.4067 10.7925 13.585 10.9708 13.585 11.19V17.7167C13.585 17.8325 13.6783 17.925 13.7933 17.925H14.9717C14.9989 17.9249 15.0259 17.9194 15.051 17.9089C15.0761 17.8984 15.099 17.883 15.1181 17.8636C15.1373 17.8443 15.1525 17.8214 15.1629 17.7961C15.1732 17.7709 15.1784 17.7439 15.1783 17.7167V11.19C15.1783 10.9708 15.3567 10.7925 15.5767 10.7925H17.9717C18.1917 10.7925 18.37 10.9708 18.37 11.19V17.7167C18.37 17.8325 18.4633 17.9258 18.5783 17.9258ZM12.3908 5.14333C12.9379 5.14422 13.4624 5.362 13.8492 5.74894C14.2359 6.13588 14.4535 6.6604 14.4542 7.2075C14.4542 7.42851 14.542 7.64048 14.6982 7.79676C14.8545 7.95304 15.0665 8.04083 15.2875 8.04083C15.5085 8.04083 15.7205 7.95304 15.8768 7.79676C16.033 7.64048 16.1208 7.42851 16.1208 7.2075C16.12 6.21844 15.7267 5.27012 15.0274 4.57067C14.3281 3.87122 13.3799 3.47777 12.3908 3.47667C12.1698 3.47667 11.9579 3.56446 11.8016 3.72074C11.6453 3.87702 11.5575 4.08899 11.5575 4.31C11.5575 4.53101 11.6453 4.74298 11.8016 4.89926C11.9579 5.05554 12.1698 5.14333 12.3908 5.14333Z" fill="#202125" fill-opacity="0.64"/>
</g>
<defs>
<clipPath id="clip0_97_91">
<rect width="20" height="20" fill="white"/>
</clipPath>
</defs>
</svg>
