<svg width="16" height="11" viewBox="0 0 16 11" fill="none" xmlns="http://www.w3.org/2000/svg">
<g clip-path="url(#clip0_97_1970)">
<path fill-rule="evenodd" clip-rule="evenodd" d="M15.3187 3.94029C15.3187 4.02317 15.2858 4.10265 15.2271 4.16123C15.1685 4.21982 15.089 4.25271 15.0061 4.25269C14.5917 4.25254 14.1942 4.41702 13.9011 4.70995C13.608 5.00287 13.4432 5.40024 13.4431 5.81464C13.4429 6.22904 13.6074 6.62653 13.9003 6.91965C14.1933 7.21278 14.5906 7.37754 15.005 7.37769C15.0879 7.37771 15.1674 7.41067 15.226 7.46929C15.2846 7.52792 15.3175 7.60741 15.3174 7.69029L15.3167 9.87779C15.3166 10.1264 15.2177 10.3649 15.0418 10.5406C14.866 10.7164 14.6275 10.8151 14.3788 10.815L1.25383 10.8104C1.00519 10.8103 0.766771 10.7114 0.591017 10.5356C0.415263 10.3597 0.316574 10.1212 0.316661 9.87256L0.317424 7.68506C0.317453 7.60218 0.350405 7.5227 0.409031 7.46412C0.467656 7.40553 0.547153 7.37264 0.630033 7.37267C1.04443 7.37281 1.44192 7.20833 1.73505 6.91541C2.02818 6.62248 2.19293 6.22511 2.19308 5.81071C2.19322 5.39631 2.02874 4.99883 1.73582 4.7057C1.4429 4.41257 1.04553 4.24781 0.631124 4.24767C0.548244 4.24764 0.46877 4.21469 0.410185 4.15606C0.351601 4.09744 0.318704 4.01794 0.318733 3.93506L0.319497 1.74756C0.319584 1.49892 0.418439 1.2605 0.594316 1.08474C0.770192 0.908988 1.00868 0.810299 1.25732 0.810386L14.3823 0.814967C14.631 0.815054 14.8694 0.913909 15.0451 1.08979C15.2209 1.26566 15.3196 1.50415 15.3195 1.75279L15.3187 3.94029ZM9.98782 2.98218L4.98607 7.98044C4.90324 8.06927 4.85812 8.18678 4.86022 8.30822C4.86232 8.42966 4.91148 8.54554 4.99733 8.63146C5.08318 8.71737 5.19903 8.7666 5.32047 8.76879C5.44191 8.77097 5.55945 8.72594 5.64834 8.64317L10.6501 3.64491C10.7329 3.55608 10.778 3.43857 10.7759 3.31713C10.7738 3.19569 10.7247 3.07981 10.6388 2.9939C10.553 2.90798 10.4371 2.85875 10.3157 2.85656C10.1942 2.85438 10.0767 2.89941 9.98782 2.98218ZM4.69373 3.93659C4.69385 3.60506 4.82566 3.28717 5.06016 3.05283C5.29466 2.81849 5.61265 2.68691 5.94417 2.68702C6.27569 2.68714 6.59359 2.81894 6.82792 3.05345C7.06226 3.28795 7.19385 3.60594 7.19373 3.93746C7.19362 4.26898 7.06181 4.58688 6.82731 4.82121C6.59281 5.05555 6.27482 5.18714 5.9433 5.18702C5.61178 5.18691 5.29388 5.0551 5.05954 4.8206C4.8252 4.58609 4.69362 4.26811 4.69373 3.93659ZM10.9424 7.68877C10.9425 7.35725 10.811 7.03926 10.5766 6.80476C10.3423 6.57025 10.0244 6.43845 9.69286 6.43833C9.36134 6.43822 9.04335 6.5698 8.80885 6.80414C8.57435 7.03848 8.44254 7.35637 8.44242 7.68789C8.44231 8.01941 8.57389 8.3374 8.80823 8.57191C9.04257 8.80641 9.36047 8.93821 9.69199 8.93833C10.0235 8.93845 10.3415 8.80686 10.576 8.57252C10.8105 8.33818 10.9423 8.02029 10.9424 7.68877Z" fill="white"/>
</g>
<defs>
<clipPath id="clip0_97_1970">
<rect width="15" height="10" fill="white" transform="translate(0.319824 0.810059) rotate(0.02)"/>
</clipPath>
</defs>
</svg>
