<svg width="13" height="13" viewBox="0 0 13 13" fill="none" xmlns="http://www.w3.org/2000/svg">
<g clip-path="url(#clip0_97_1802)">
<path fill-rule="evenodd" clip-rule="evenodd" d="M6.04004 0.23061C9.34004 0.231762 12.0391 2.9327 12.0379 6.2327C12.0368 9.5327 9.33585 12.2318 6.03585 12.2306C2.73585 12.2295 0.0367927 9.52852 0.0379447 6.22852C0.0390966 2.92852 2.74004 0.229458 6.04004 0.23061ZM6.03969 1.23061C3.28969 1.22965 1.0389 3.47886 1.03794 6.22886C1.03698 8.97886 3.2862 11.2296 6.0362 11.2306C8.7862 11.2316 11.037 8.98235 11.0379 6.23235C11.0389 3.48236 8.78969 1.23157 6.03969 1.23061ZM8.38756 7.33143C8.58751 7.4815 8.68742 7.73153 8.53733 7.98148C7.937 8.93127 7.13681 9.48099 6.03679 9.53061C4.93681 9.48023 4.13697 9.02995 3.6373 8.07977C3.53739 7.82974 3.53746 7.62974 3.68753 7.42979C3.78758 7.27982 3.9876 7.22989 4.18758 7.27996C4.38756 7.33003 4.43751 7.48005 4.53746 7.63009C4.88723 8.28021 5.48712 8.58042 6.18716 8.48066C6.78718 8.43087 7.18728 8.13101 7.58744 7.68115C7.63747 7.58117 7.68751 7.48119 7.78753 7.43122C7.8876 7.23126 8.13761 7.18134 8.38756 7.33143ZM8.03882 3.73131C8.53882 3.73148 8.98868 4.13164 8.98848 4.68164C8.98829 5.23164 8.58815 5.6315 8.03815 5.63131C7.53815 5.63113 7.08829 5.23098 7.08849 4.68098C7.08868 4.13098 7.48882 3.73112 8.03882 3.73131ZM4.03882 3.72991C4.53882 3.73009 4.98868 4.13024 4.98849 4.68024C4.98829 5.23024 4.58817 5.5801 4.03817 5.57991C3.48817 5.57972 3.08831 5.17958 3.0885 4.62958C3.08868 4.12958 3.53882 3.72974 4.03882 3.72991Z" fill="#202125" fill-opacity="0.64"/>
</g>
<defs>
<clipPath id="clip0_97_1802">
<rect width="12" height="12" fill="white" transform="translate(0.0400391 0.228516) rotate(0.02)"/>
</clipPath>
</defs>
</svg>
