<svg width="16" height="11" viewBox="0 0 16 11" fill="none" xmlns="http://www.w3.org/2000/svg">
<g clip-path="url(#clip0_97_2010)">
<path fill-rule="evenodd" clip-rule="evenodd" d="M15.9877 3.94029C15.9876 4.02317 15.9547 4.10265 15.8961 4.16123C15.8374 4.21982 15.7579 4.25271 15.6751 4.25269C15.2607 4.25254 14.8632 4.41702 14.5701 4.70995C14.2769 5.00287 14.1122 5.40024 14.112 5.81464C14.1119 6.22904 14.2764 6.62653 14.5693 6.91965C14.8622 7.21278 15.2596 7.37754 15.674 7.37769C15.7569 7.37771 15.8363 7.41067 15.8949 7.46929C15.9535 7.52792 15.9864 7.60741 15.9864 7.69029L15.9856 9.87779C15.9855 10.1264 15.8867 10.3649 15.7108 10.5406C15.5349 10.7164 15.2964 10.8151 15.0478 10.815L1.92278 10.8104C1.67414 10.8103 1.43572 10.7114 1.25996 10.5356C1.08421 10.3597 0.985519 10.1212 0.985606 9.87256L0.98637 7.68506C0.986399 7.60218 1.01935 7.5227 1.07798 7.46412C1.1366 7.40553 1.2161 7.37264 1.29898 7.37267C1.71338 7.37281 2.11086 7.20833 2.40399 6.91541C2.69712 6.62248 2.86188 6.22511 2.86202 5.81071C2.86217 5.39631 2.69769 4.99883 2.40476 4.7057C2.11184 4.41257 1.71447 4.24781 1.30007 4.24767C1.21719 4.24764 1.13772 4.21469 1.07913 4.15606C1.02055 4.09744 0.98765 4.01794 0.987679 3.93506L0.988442 1.74756C0.988529 1.49892 1.08738 1.2605 1.26326 1.08474C1.43914 0.908988 1.67763 0.810299 1.92627 0.810386L15.0513 0.814967C15.2999 0.815054 15.5383 0.913909 15.7141 1.08979C15.8898 1.26566 15.9885 1.50415 15.9884 1.75279L15.9877 3.94029ZM10.6568 2.98218L5.65502 7.98044C5.57219 8.06927 5.52707 8.18678 5.52917 8.30822C5.53127 8.42966 5.58042 8.54554 5.66628 8.63146C5.75213 8.71737 5.86798 8.7666 5.98942 8.76879C6.11085 8.77097 6.2284 8.72594 6.31729 8.64317L11.319 3.64491C11.4019 3.55608 11.447 3.43857 11.4449 3.31713C11.4428 3.19569 11.3936 3.07981 11.3078 2.9939C11.2219 2.90798 11.1061 2.85875 10.9846 2.85656C10.8632 2.85438 10.7457 2.89941 10.6568 2.98218ZM5.36268 3.93659C5.36279 3.60506 5.4946 3.28717 5.7291 3.05283C5.96361 2.81849 6.28159 2.68691 6.61311 2.68702C6.94464 2.68714 7.26253 2.81894 7.49687 3.05345C7.73121 3.28795 7.86279 3.60594 7.86268 3.93746C7.86256 4.26898 7.73076 4.58688 7.49625 4.82121C7.26175 5.05555 6.94376 5.18714 6.61224 5.18702C6.28072 5.18691 5.96282 5.0551 5.72849 4.8206C5.49415 4.58609 5.36256 4.26811 5.36268 3.93659ZM11.6114 7.68877C11.6115 7.35725 11.4799 7.03926 11.2456 6.80476C11.0112 6.57025 10.6933 6.43845 10.3618 6.43833C10.0303 6.43822 9.7123 6.5698 9.47779 6.80414C9.24329 7.03848 9.11148 7.35637 9.11137 7.68789C9.11125 8.01941 9.24284 8.3374 9.47718 8.57191C9.71152 8.80641 10.0294 8.93821 10.3609 8.93833C10.6925 8.93845 11.0104 8.80686 11.2449 8.57252C11.4794 8.33818 11.6113 8.02029 11.6114 7.68877Z" fill="white"/>
</g>
<defs>
<clipPath id="clip0_97_2010">
<rect width="15" height="10" fill="white" transform="translate(0.98877 0.810059) rotate(0.02)"/>
</clipPath>
</defs>
</svg>
