<svg width="13" height="13" viewBox="0 0 13 13" fill="none" xmlns="http://www.w3.org/2000/svg">
<g clip-path="url(#clip0_97_1724)">
<path fill-rule="evenodd" clip-rule="evenodd" d="M6.03955 0.23061C9.33955 0.231762 12.0386 2.9327 12.0375 6.2327C12.0363 9.5327 9.33536 12.2318 6.03536 12.2306C2.73536 12.2295 0.0363045 9.52852 0.0374564 6.22852C0.0386083 2.92852 2.73955 0.229458 6.03955 0.23061ZM6.0392 1.23061C3.2892 1.22965 1.03842 3.47886 1.03746 6.22886C1.0365 8.97886 3.28571 11.2296 6.03571 11.2306C8.78571 11.2316 11.0365 8.98235 11.0375 6.23235C11.0384 3.48236 8.7892 1.23157 6.0392 1.23061ZM8.38707 7.33143C8.58702 7.4815 8.68693 7.73153 8.53685 7.98148C7.93651 8.93127 7.13632 9.48099 6.0363 9.53061C4.93632 9.48023 4.13648 9.02995 3.63681 8.07977C3.5369 7.82974 3.53697 7.62974 3.68704 7.42979C3.78709 7.27982 3.98711 7.22989 4.18709 7.27996C4.38707 7.33003 4.43702 7.48005 4.53697 7.63009C4.88674 8.28021 5.48664 8.58042 6.18667 8.48066C6.78669 8.43087 7.18679 8.13101 7.58695 7.68115C7.63698 7.58117 7.68702 7.48119 7.78704 7.43122C7.88711 7.23126 8.13712 7.18134 8.38707 7.33143ZM8.03833 3.73131C8.53833 3.73148 8.98819 4.13164 8.988 4.68164C8.9878 5.23164 8.58767 5.6315 8.03767 5.63131C7.53767 5.63113 7.08781 5.23098 7.088 4.68098C7.08819 4.13098 7.48833 3.73112 8.03833 3.73131ZM4.03833 3.72991C4.53833 3.73009 4.98819 4.13024 4.988 4.68024C4.9878 5.23024 4.58768 5.5801 4.03768 5.57991C3.48768 5.57972 3.08782 5.17958 3.08801 4.62958C3.08819 4.12958 3.53833 3.72974 4.03833 3.72991Z" fill="#202125" fill-opacity="0.64"/>
</g>
<defs>
<clipPath id="clip0_97_1724">
<rect width="12" height="12" fill="white" transform="translate(0.0395508 0.228516) rotate(0.02)"/>
</clipPath>
</defs>
</svg>
