<svg width="13" height="13" viewBox="0 0 13 13" fill="none" xmlns="http://www.w3.org/2000/svg">
<g clip-path="url(#clip0_97_1713)">
<path fill-rule="evenodd" clip-rule="evenodd" d="M3.13832 4.9986C3.27877 5.13915 3.47124 5.21822 3.66924 5.21829L3.68874 5.2183C3.79058 5.21621 3.89089 5.19313 3.98339 5.15049C4.07589 5.10784 4.1586 5.04656 4.22633 4.97048L5.80544 3.21753C5.93438 3.07429 6.00345 2.88703 5.9984 2.69437C5.99335 2.5017 5.91457 2.31832 5.7783 2.18203L4.98808 1.39075C4.84133 1.2479 4.64393 1.16907 4.43915 1.17156C4.23415 1.17649 4.03812 1.26692 3.90107 1.41887L2.32045 3.17432C2.19183 3.3172 2.1229 3.50396 2.12786 3.69613C2.13282 3.88831 2.21128 4.07127 2.34709 4.20733L3.13832 4.9986ZM6.29844 6.06571L7.02423 5.23646C7.71121 5.70129 8.52203 5.94894 9.35148 5.94727L9.68748 5.94739C9.8864 5.94746 10.0772 5.86851 10.2179 5.72791C10.3586 5.5873 10.4377 5.39656 10.4377 5.19765C10.4378 4.99874 10.3589 4.80795 10.2183 4.66724C10.0777 4.52654 9.88692 4.44746 9.68801 4.44739L9.35201 4.44727C8.6459 4.445 7.96919 4.1643 7.46878 3.66612C7.39794 3.59108 7.31147 3.53255 7.21548 3.49467C7.11949 3.45679 7.01635 3.44049 6.91336 3.44692C6.81073 3.45027 6.70988 3.47466 6.61707 3.51858C6.52425 3.5625 6.44144 3.62501 6.37377 3.70223L4.62307 5.70162C4.55281 5.78204 4.50053 5.87654 4.46973 5.9788C4.43894 6.08105 4.43033 6.18871 4.4445 6.29455C4.45866 6.4004 4.49526 6.50201 4.55186 6.59257C4.60846 6.68313 4.68374 6.76056 4.77268 6.81967L5.1046 7.04079C5.54131 7.33532 5.87954 7.75417 6.07549 8.24311C6.27144 8.73206 6.31609 9.26857 6.20365 9.78317C6.18021 9.88003 6.17631 9.98058 6.19217 10.079C6.20803 10.1773 6.24333 10.2716 6.29602 10.3561C6.34871 10.4407 6.41772 10.5139 6.49903 10.5716C6.58034 10.6292 6.67231 10.67 6.76957 10.6916C6.86684 10.7133 6.96744 10.7154 7.06551 10.6977C7.16358 10.68 7.25715 10.643 7.34075 10.5888C7.42435 10.5346 7.4963 10.4642 7.55241 10.3819C7.60852 10.2995 7.64766 10.2068 7.66753 10.1092C7.82787 9.37441 7.78515 8.60985 7.54395 7.89751C7.30276 7.18517 6.8722 6.55193 6.29844 6.06571ZM11.9363 9.44818C11.9364 9.11665 11.8048 8.79867 11.5705 8.56416C11.3361 8.32966 11.0182 8.19785 10.6867 8.19774C10.3552 8.19762 10.0372 8.32921 9.80269 8.56355C9.56819 8.79789 9.43638 9.11578 9.43626 9.4473C9.43615 9.77882 9.56773 10.0968 9.80207 10.3313C10.0364 10.5658 10.3543 10.6976 10.6858 10.6977C11.0173 10.6979 11.3353 10.5663 11.5698 10.3319C11.8043 10.0976 11.9361 9.7797 11.9363 9.44818ZM12.9363 9.44852C12.9361 10.0453 12.6988 10.6175 12.2767 11.0393C11.8546 11.4611 11.2822 11.6979 10.6855 11.6977C10.0887 11.6975 9.51653 11.4603 9.09472 11.0382C8.67291 10.6161 8.43605 10.0437 8.43626 9.44695C8.43647 8.85022 8.67372 8.278 9.09583 7.85619C9.51793 7.43438 10.0903 7.19753 10.687 7.19774C11.2838 7.19795 11.856 7.4352 12.2778 7.8573C12.6996 8.27941 12.9365 8.85179 12.9363 9.44852ZM4.43626 9.44556C4.43638 9.11404 4.30479 8.79605 4.07046 8.56155C3.83612 8.32704 3.51822 8.19524 3.1867 8.19512C2.85518 8.19501 2.53719 8.32659 2.30269 8.56093C2.06819 8.79527 1.93638 9.11316 1.93626 9.44468C1.93615 9.77621 2.06773 10.0942 2.30207 10.3287C2.53641 10.5632 2.85431 10.695 3.18583 10.6951C3.51735 10.6952 3.83534 10.5637 4.06984 10.3293C4.30434 10.095 4.43615 9.77708 4.43626 9.44556ZM5.43626 9.44591C5.43606 10.0426 5.1988 10.6149 4.7767 11.0367C4.35459 11.4585 3.78222 11.6953 3.18548 11.6951C2.58874 11.6949 2.01653 11.4577 1.59472 11.0356C1.17291 10.6135 0.936055 10.0411 0.936264 9.44434C0.936472 8.8476 1.17372 8.27539 1.59583 7.85358C2.01793 7.43177 2.59031 7.19491 3.18705 7.19512C3.78379 7.19533 4.356 7.43258 4.77781 7.85469C5.19962 8.27679 5.43647 8.84917 5.43626 9.44591ZM7.00129 2.19645C7.0014 1.88151 7.12662 1.57951 7.3494 1.35688C7.57218 1.13426 7.87426 1.00926 8.18921 1.00937C8.50415 1.00948 8.80615 1.13469 9.02878 1.35747C9.2514 1.58025 9.3764 1.88234 9.37629 2.19728C9.37618 2.51223 9.25097 2.81423 9.02819 3.03685C8.80541 3.25947 8.50332 3.38448 8.18838 3.38437C7.87343 3.38426 7.57143 3.25904 7.34881 3.03626C7.12619 2.81349 7.00118 2.5114 7.00129 2.19645Z" fill="#1FC70A"/>
</g>
<defs>
<clipPath id="clip0_97_1713">
<rect width="12" height="12" fill="white" transform="translate(0.939453 0.196777) rotate(0.02)"/>
</clipPath>
</defs>
</svg>
