<svg width="12" height="12" viewBox="0 0 12 12" fill="none" xmlns="http://www.w3.org/2000/svg">
<g clip-path="url(#clip0_97_108)">
<path fill-rule="evenodd" clip-rule="evenodd" d="M6.75 3.75C6.75 3.94891 6.67098 4.13968 6.53033 4.28033C6.38968 4.42098 6.19891 4.5 6 4.5C5.80109 4.5 5.61032 4.42098 5.46967 4.28033C5.32902 4.13968 5.25 3.94891 5.25 3.75C5.25 3.55109 5.32902 3.36032 5.46967 3.21967C5.61032 3.07902 5.80109 3 6 3C6.19891 3 6.38968 3.07902 6.53033 3.21967C6.67098 3.36032 6.75 3.55109 6.75 3.75ZM6.75 6V8.25C6.75 8.44891 6.67098 8.63968 6.53033 8.78033C6.38968 8.92098 6.19891 9 6 9C5.80109 9 5.61032 8.92098 5.46967 8.78033C5.32902 8.63968 5.25 8.44891 5.25 8.25V6C5.25 5.80109 5.32902 5.61032 5.46967 5.46967C5.61032 5.32902 5.80109 5.25 6 5.25C6.19891 5.25 6.38968 5.32902 6.53033 5.46967C6.67098 5.61032 6.75 5.80109 6.75 6ZM6 11.25C3.10575 11.25 0.75 8.89425 0.75 6C0.75 3.10575 3.10575 0.75 6 0.75C8.89425 0.75 11.25 3.10575 11.25 6C11.25 8.89425 8.89425 11.25 6 11.25ZM6 0C2.69175 0 0 2.69175 0 6C0 9.30825 2.69175 12 6 12C9.30825 12 12 9.30825 12 6C12 2.69175 9.30825 0 6 0Z" fill="#202125" fill-opacity="0.64"/>
</g>
<defs>
<clipPath id="clip0_97_108">
<rect width="12" height="12" fill="white"/>
</clipPath>
</defs>
</svg>
