<svg width="13" height="13" viewBox="0 0 13 13" fill="none" xmlns="http://www.w3.org/2000/svg">
<g clip-path="url(#clip0_97_1587)">
<path fill-rule="evenodd" clip-rule="evenodd" d="M3.13856 4.99763C3.27901 5.13818 3.47148 5.21724 3.66948 5.21731L3.68898 5.21732C3.79082 5.21524 3.89113 5.19215 3.98363 5.14951C4.07614 5.10687 4.15884 5.04559 4.22657 4.96951L5.80568 3.21656C5.93463 3.07332 6.0037 2.88606 5.99865 2.69339C5.9936 2.50073 5.91481 2.31734 5.77854 2.18105L4.98832 1.38977C4.84158 1.24692 4.64417 1.1681 4.4394 1.17058C4.23439 1.17551 4.03836 1.26594 3.90131 1.41789L2.3207 3.17334C2.19208 3.31622 2.12315 3.50298 2.1281 3.69516C2.13306 3.88733 2.21152 4.07029 2.34734 4.20635L3.13856 4.99763ZM6.29869 6.06473L7.02448 5.23548C7.71145 5.70031 8.52227 5.94796 9.35173 5.9463L9.68773 5.94641C9.88664 5.94648 10.0774 5.86753 10.2181 5.72693C10.3588 5.58633 10.4379 5.39559 10.438 5.19668C10.4381 4.99776 10.3591 4.80697 10.2185 4.66627C10.0779 4.52557 9.88717 4.44648 9.68825 4.44641L9.35225 4.4463C8.64614 4.44402 7.96943 4.16332 7.46903 3.66514C7.39819 3.5901 7.31171 3.53157 7.21572 3.49369C7.11974 3.45581 7.01659 3.43951 6.9136 3.44594C6.81097 3.4493 6.71013 3.47369 6.61731 3.5176C6.5245 3.56152 6.44169 3.62403 6.37401 3.70126L4.62331 5.70065C4.55305 5.78107 4.50077 5.87557 4.46998 5.97782C4.43918 6.08008 4.43058 6.18773 4.44474 6.29358C4.4589 6.39943 4.49551 6.50103 4.55211 6.59159C4.6087 6.68215 4.68399 6.75958 4.77292 6.8187L5.10485 7.03981C5.54156 7.33434 5.87979 7.75319 6.07574 8.24214C6.27169 8.73108 6.31633 9.26759 6.20389 9.7822C6.18045 9.87905 6.17655 9.9796 6.19241 10.078C6.20827 10.1764 6.24358 10.2706 6.29626 10.3552C6.34895 10.4397 6.41796 10.513 6.49927 10.5706C6.58058 10.6282 6.67255 10.669 6.76982 10.6907C6.86708 10.7123 6.96769 10.7144 7.06575 10.6967C7.16382 10.6791 7.25739 10.642 7.34099 10.5878C7.42459 10.5336 7.49655 10.4633 7.55266 10.3809C7.60876 10.2986 7.6479 10.2059 7.66778 10.1082C7.82811 9.37343 7.78539 8.60887 7.5442 7.89653C7.30301 7.18419 6.87244 6.55095 6.29869 6.06473ZM11.9365 9.4472C11.9366 9.11568 11.805 8.79769 11.5707 8.56319C11.3364 8.32869 11.0185 8.19688 10.6869 8.19676C10.3554 8.19665 10.0374 8.32823 9.80293 8.56257C9.56843 8.79691 9.43662 9.11481 9.43651 9.44633C9.43639 9.77785 9.56798 10.0958 9.80232 10.3303C10.0367 10.5648 10.3546 10.6966 10.6861 10.6968C11.0176 10.6969 11.3356 10.5653 11.5701 10.331C11.8046 10.0966 11.9364 9.77872 11.9365 9.4472ZM12.9365 9.44755C12.9363 10.0443 12.699 10.6165 12.2769 11.0383C11.8548 11.4601 11.2825 11.697 10.6857 11.6968C10.089 11.6966 9.51677 11.4593 9.09496 11.0372C8.67315 10.6151 8.4363 10.0427 8.43651 9.44598C8.43672 8.84924 8.67397 8.27703 9.09607 7.85522C9.51818 7.43341 10.0906 7.19655 10.6873 7.19676C11.284 7.19697 11.8562 7.43422 12.2781 7.85633C12.6999 8.27843 12.9367 8.85081 12.9365 9.44755ZM4.43651 9.44458C4.43662 9.11306 4.30504 8.79507 4.0707 8.56057C3.83636 8.32607 3.51846 8.19426 3.18694 8.19414C2.85542 8.19403 2.53744 8.32561 2.30293 8.55995C2.06843 8.79429 1.93662 9.11219 1.93651 9.44371C1.93639 9.77523 2.06798 10.0932 2.30232 10.3277C2.53665 10.5622 2.85455 10.694 3.18607 10.6941C3.51759 10.6943 3.83558 10.5627 4.07008 10.3283C4.30458 10.094 4.43639 9.7761 4.43651 9.44458ZM5.43651 9.44493C5.4363 10.0417 5.19905 10.6139 4.77694 11.0357C4.35484 11.4575 3.78246 11.6944 3.18572 11.6941C2.58899 11.6939 2.01677 11.4567 1.59496 11.0346C1.17315 10.6125 0.9363 10.0401 0.936508 9.44336C0.936716 8.84662 1.17397 8.27441 1.59607 7.8526C2.01818 7.43079 2.59056 7.19394 3.18729 7.19414C3.78403 7.19435 4.35624 7.43161 4.77805 7.85371C5.19986 8.27581 5.43672 8.84819 5.43651 9.44493ZM7.00154 2.19548C7.00165 1.88053 7.12686 1.57853 7.34964 1.35591C7.57242 1.13329 7.87451 1.00828 8.18945 1.00839C8.5044 1.0085 8.8064 1.13372 9.02902 1.35649C9.25164 1.57927 9.37665 1.88136 9.37654 2.1963C9.37643 2.51125 9.25121 2.81325 9.02843 3.03587C8.80566 3.25849 8.50357 3.3835 8.18862 3.38339C7.87368 3.38328 7.57168 3.25806 7.34906 3.03529C7.12643 2.81251 7.00143 2.51042 7.00154 2.19548Z" fill="#1FC70A"/>
</g>
<defs>
<clipPath id="clip0_97_1587">
<rect width="12" height="12" fill="white" transform="translate(0.939941 0.196289) rotate(0.02)"/>
</clipPath>
</defs>
</svg>
