<svg width="13" height="13" viewBox="0 0 13 13" fill="none" xmlns="http://www.w3.org/2000/svg">
<g clip-path="url(#clip0_97_1685)">
<path fill-rule="evenodd" clip-rule="evenodd" d="M6.03955 0.229633C9.33955 0.230785 12.0386 2.93173 12.0375 6.23173C12.0363 9.53173 9.33536 12.2308 6.03536 12.2296C2.73536 12.2285 0.0363045 9.52754 0.0374564 6.22754C0.0386083 2.92754 2.73955 0.228482 6.03955 0.229633ZM6.0392 1.22963C3.2892 1.22867 1.03842 3.47789 1.03746 6.22789C1.0365 8.97789 3.28571 11.2287 6.03571 11.2296C8.78571 11.2306 11.0365 8.98138 11.0375 6.23138C11.0384 3.48138 8.7892 1.23059 6.0392 1.22963ZM8.38707 7.33045C8.58702 7.48052 8.68693 7.73056 8.53685 7.98051C7.93651 8.9303 7.13632 9.48002 6.0363 9.52963C4.93632 9.47925 4.13648 9.02897 3.63681 8.0788C3.5369 7.82876 3.53697 7.62876 3.68704 7.42881C3.78709 7.27885 3.98711 7.22892 4.18709 7.27899C4.38707 7.32906 4.43702 7.47907 4.53697 7.62911C4.88674 8.27923 5.48664 8.57944 6.18667 8.47969C6.78669 8.42989 7.18679 8.13003 7.58695 7.68017C7.63698 7.58019 7.68702 7.48021 7.78704 7.43024C7.88711 7.23028 8.13712 7.18037 8.38707 7.33045ZM8.03833 3.73033C8.53833 3.73051 8.98819 4.13066 8.988 4.68066C8.9878 5.23066 8.58767 5.63052 8.03767 5.63033C7.53767 5.63016 7.08781 5.23 7.088 4.68C7.08819 4.13 7.48833 3.73014 8.03833 3.73033ZM4.03833 3.72894C4.53833 3.72911 4.98819 4.12927 4.988 4.67927C4.9878 5.22927 4.58768 5.57913 4.03768 5.57893C3.48768 5.57874 3.08782 5.1786 3.08801 4.6286C3.08819 4.1286 3.53833 3.72876 4.03833 3.72894Z" fill="#202125" fill-opacity="0.64"/>
</g>
<defs>
<clipPath id="clip0_97_1685">
<rect width="12" height="12" fill="white" transform="translate(0.0395508 0.227539) rotate(0.02)"/>
</clipPath>
</defs>
</svg>
