<svg width="40" height="40" viewBox="0 0 40 40" fill="none" xmlns="http://www.w3.org/2000/svg">
<rect width="40" height="40" rx="20" fill="#009DE0" fill-opacity="0.08"/>
<g clip-path="url(#clip0_97_121)">
<path d="M11.1684 18.7712H25.4276C25.5139 18.7703 25.5908 18.7165 25.6212 18.6358C25.6517 18.5549 25.6294 18.4638 25.5651 18.4062L21.7009 15.4061C21.2306 14.9627 21.196 14.2264 21.6227 13.7409C22.0494 13.2553 22.784 13.195 23.2842 13.6045L29.2684 18.4703C29.6989 18.85 29.9455 19.3963 29.9455 19.9703C29.9455 20.5443 29.6989 21.0907 29.2684 21.4703L23.2859 26.3345C22.7855 26.7387 22.0554 26.6764 21.6307 26.1933C21.2059 25.7103 21.2377 24.9782 21.7026 24.5337L25.5667 21.5337C25.631 21.4761 25.6534 21.3848 25.6229 21.3041C25.5925 21.2233 25.5156 21.1695 25.4292 21.1687H11.1684C10.5182 21.1515 10 20.6195 10 19.9691C10 19.3187 10.5182 18.7866 11.1684 18.7695V18.7712Z" fill="#009DE0"/>
</g>
<defs>
<clipPath id="clip0_97_121">
<rect width="20" height="20" fill="white" transform="translate(10 10)"/>
</clipPath>
</defs>
</svg>
