<svg width="40" height="40" viewBox="0 0 40 40" fill="none" xmlns="http://www.w3.org/2000/svg">
<rect width="40" height="40" rx="20" fill="#009DE0" fill-opacity="0.08"/>
<g clip-path="url(#clip0_97_117)">
<path d="M28.7776 18.7721H14.5184C14.4763 18.7717 14.4352 18.7585 14.4006 18.7344C14.366 18.7102 14.3396 18.6762 14.3247 18.6367C14.3098 18.5972 14.3073 18.5542 14.3173 18.5132C14.3273 18.4722 14.3495 18.4352 14.3809 18.4071L18.2451 15.4071C18.4714 15.1938 18.606 14.9009 18.6206 14.5903C18.6352 14.2796 18.5286 13.9754 18.3233 13.7418C18.118 13.5082 17.83 13.3635 17.5201 13.338C17.2101 13.3126 16.9024 13.4084 16.6618 13.6054L10.6776 18.4713C10.4648 18.659 10.2944 18.8898 10.1776 19.1484C10.0609 19.407 10.0005 19.6875 10.0005 19.9713C10.0005 20.255 10.0609 20.5355 10.1776 20.7941C10.2944 21.0528 10.4648 21.2836 10.6776 21.4713L16.6601 26.3354C16.9009 26.53 17.2076 26.6239 17.5161 26.5976C17.8246 26.5713 18.1109 26.4268 18.3153 26.1943C18.5197 25.9618 18.6264 25.6593 18.613 25.35C18.5996 25.0407 18.4672 24.7486 18.2434 24.5346L14.3793 21.5346C14.3479 21.5065 14.3257 21.4695 14.3156 21.4285C14.3056 21.3875 14.3082 21.3445 14.3231 21.305C14.3379 21.2655 14.3644 21.2315 14.399 21.2073C14.4335 21.1832 14.4746 21.17 14.5168 21.1696H28.7776C29.0959 21.1696 29.4011 21.0432 29.6261 20.8181C29.8512 20.5931 29.9776 20.2879 29.9776 19.9696C29.9776 19.6513 29.8512 19.3461 29.6261 19.1211C29.4011 18.896 29.0959 18.7696 28.7776 18.7696V18.7721Z" fill="#009DE0" fill-opacity="0.4"/>
</g>
<defs>
<clipPath id="clip0_97_117">
<rect width="20" height="20" fill="white" transform="translate(10 10)"/>
</clipPath>
</defs>
</svg>
