<svg width="16" height="624" viewBox="0 0 16 624" fill="none" xmlns="http://www.w3.org/2000/svg">
<g clip-path="url(#clip0_97_77)">
<path d="M0.235989 211.943C0.235989 211.646 0.235989 211.424 0.235989 211.128C0.384087 211.202 0.458137 211.276 0.606235 211.35C2.53151 209.425 4.45679 207.5 6.30802 205.648C5.41943 204.76 4.60489 203.945 3.7163 203.057C2.75366 204.019 1.64292 205.13 0.606235 206.167C0.458137 206.093 0.384087 206.019 0.235989 205.945C0.235989 205.648 0.235989 205.352 0.235989 205.056C0.384087 205.13 0.458137 205.278 0.606235 205.278C1.49483 204.389 2.38342 203.501 3.27201 202.612C2.45746 201.798 1.56887 200.909 0.680284 200.021C0.532186 200.169 0.458137 200.243 0.310038 200.391C0.310038 199.873 0.310038 199.354 0.310038 198.836C0.384087 198.91 0.458137 198.91 0.606235 198.984C0.606235 198.762 0.606235 198.688 0.606235 198.54C0.606235 197.059 0.606235 195.504 0.606235 194.023C0.606235 193.8 0.532186 193.652 0.310038 193.504C0.310038 193.208 0.310038 192.986 0.310038 192.69C0.384087 192.69 0.458137 192.764 0.606235 192.838C0.606235 192.69 0.606235 192.542 0.606235 192.468C0.606235 190.987 0.606235 189.506 0.606235 188.025C0.606235 187.802 0.606235 187.58 0.310038 187.432C0.310038 187.136 0.310038 186.914 0.310038 186.618C0.384087 186.618 0.458137 186.692 0.606235 186.766C0.606235 186.618 0.606235 186.47 0.606235 186.321C0.606235 184.841 0.606235 183.36 0.606235 181.879C0.606235 181.656 0.606235 181.36 0.310038 181.286C0.310038 180.99 0.310038 180.768 0.310038 180.472C0.384087 180.472 0.458137 180.546 0.532186 180.62C0.532186 178.991 0.532186 177.362 0.532186 175.732C0.384087 175.732 0.384087 175.807 0.310038 175.881C0.310038 175.362 0.310038 174.918 0.310038 174.4C0.458137 174.548 0.606235 174.696 0.754333 174.77C1.64292 173.881 2.53151 172.993 3.34605 172.178C2.38342 171.215 1.34673 170.179 0.384087 169.068C0.384087 168.772 0.384087 168.55 0.384087 168.253C0.458137 168.328 0.606235 168.402 0.680284 168.476C1.64292 169.438 2.67961 170.475 3.64225 171.438C3.7163 171.512 3.79035 171.586 3.8644 171.66C4.75299 170.771 5.64158 169.883 6.53017 168.994C6.30802 168.772 6.01182 168.55 5.78968 168.328C4.0125 166.55 2.16127 164.699 0.384087 162.922C0.384087 162.626 0.384087 162.404 0.384087 162.107C0.532186 162.181 0.606235 162.256 0.680284 162.33C2.67961 164.329 4.67894 166.328 6.75232 168.402C6.82637 168.476 6.90041 168.55 6.97446 168.624C7.86305 167.735 8.75164 166.847 9.64023 166.032C6.53017 162.922 3.49415 159.886 0.384087 156.776C0.384087 156.48 0.384087 156.258 0.384087 155.961C0.532186 156.035 0.606235 156.109 0.754333 156.258C3.79035 159.294 6.82637 162.33 9.86238 165.366C9.93643 165.44 10.0845 165.514 10.0845 165.588C10.9731 164.699 11.8617 163.811 12.6763 162.996C8.75164 159.071 4.75299 155.073 0.754333 151.074C0.680284 151.148 0.532186 151.222 0.458136 151.296C0.458136 151 0.458136 150.778 0.458136 150.482C0.458136 150.408 0.532186 150.26 0.532186 150.185C0.532186 148.556 0.532186 146.927 0.532186 145.372C0.532186 145.298 0.532186 145.15 0.458136 145.076C0.458136 144.558 0.458136 144.039 0.458136 143.521C0.606235 143.669 0.680284 143.743 0.828382 143.817C3.79035 140.855 6.75232 137.893 9.64023 135.005C8.82569 134.117 7.9371 133.302 7.04851 132.414C5.04919 134.413 2.97581 136.486 0.902432 138.634C0.754333 138.486 0.680284 138.412 0.532186 138.338C0.532186 138.041 0.532186 137.819 0.532186 137.523C0.680284 137.597 0.754333 137.671 0.902432 137.745C2.82771 135.82 4.75299 133.895 6.60422 132.043C5.71563 131.155 4.90109 130.34 4.0125 129.452C3.04986 130.414 1.93912 131.525 0.902432 132.562C0.754333 132.488 0.680284 132.414 0.532186 132.34C0.532186 132.043 0.532186 131.747 0.532186 131.451C0.680284 131.525 0.754333 131.673 0.902432 131.673C1.79102 130.785 2.67961 129.896 3.5682 129.007C2.75366 128.193 1.86507 127.304 0.976481 126.416C0.828382 126.564 0.754333 126.638 0.606235 126.786C0.606235 126.268 0.606235 125.749 0.606235 125.231C0.680284 125.305 0.754333 125.305 0.902432 125.379C0.902432 125.157 0.902432 125.083 0.902432 124.935C0.902432 123.454 0.902432 121.899 0.902432 120.418C0.902432 120.196 0.828382 120.047 0.606235 119.899C0.606235 119.603 0.606235 119.381 0.606235 119.085C0.680284 119.085 0.754333 119.159 0.902432 119.233C0.902432 119.085 0.902432 118.937 0.902432 118.863C0.902432 117.382 0.902432 115.901 0.902432 114.42C0.902432 114.198 0.902432 113.975 0.606235 113.827C0.606235 113.531 0.606235 113.309 0.606235 113.013C0.680284 113.013 0.754333 113.087 0.902432 113.161C0.902432 113.013 0.902432 112.865 0.902432 112.717C0.902432 111.236 0.902432 109.755 0.902432 108.274C0.902432 108.052 0.902432 107.755 0.606235 107.681C0.606235 107.385 0.606235 107.163 0.606235 106.867C0.680284 106.867 0.754333 106.941 0.828382 107.015C0.828382 105.386 0.828382 103.757 0.828382 102.128C0.680284 102.128 0.680284 102.202 0.606235 102.276C0.606235 101.757 0.606235 101.313 0.606235 100.795C0.754333 100.943 0.902432 101.091 1.05053 101.165C1.93912 100.276 2.82771 99.3877 3.64225 98.5732C2.67961 97.6106 1.64292 96.5739 0.680284 95.4631C0.680284 95.1669 0.680284 94.9448 0.680284 94.6486C0.754333 94.7227 0.902432 94.7967 0.976481 94.8707C1.93912 95.8334 2.97581 96.8701 3.93845 97.8327C4.0125 97.9068 4.08655 97.9808 4.1606 98.0549C5.04919 97.1663 5.93778 96.2777 6.82637 95.3891C6.60422 95.1669 6.30802 94.9448 6.08587 94.7227C4.30869 92.9455 2.45746 91.0942 0.680284 89.3171C0.680284 89.0209 0.680284 88.7987 0.680284 88.5025C0.828382 88.5766 0.902432 88.6506 0.976481 88.7247C2.97581 90.724 4.97514 92.7233 7.04851 94.7967C7.12256 94.8708 7.19661 94.9448 7.27066 95.0189C8.15925 94.1303 9.04784 93.2417 9.93643 92.3531C6.82637 89.243 3.7163 86.133 0.606235 83.0969C0.606235 82.8007 0.606235 82.5786 0.606235 82.2824C0.754333 82.3564 0.828382 82.4305 0.976481 82.5786C4.0125 85.6146 7.04851 88.6506 10.0845 91.6866C10.1586 91.7607 10.3067 91.8347 10.3067 91.9088C11.1953 91.0202 12.0839 90.1316 12.8984 89.3171C8.89974 85.3925 4.97514 81.3938 0.976481 77.4692C0.902432 77.5432 0.754333 77.6173 0.680284 77.6913C0.680284 77.3951 0.680284 77.173 0.680284 76.8768C0.680284 76.8028 0.754333 76.6547 0.754333 76.5806C0.754333 74.9515 0.754333 73.3224 0.754333 71.7674C0.754333 71.6934 0.754333 71.5453 0.680284 71.4712C0.680284 70.9529 0.680284 70.4345 0.680284 69.9162C0.828382 70.0643 0.902432 70.1383 1.05053 70.2124C4.0125 67.2504 6.97446 64.2884 9.86238 61.4005C9.04784 60.5119 8.15925 59.6974 7.27066 58.8088C5.27133 60.8081 3.19796 62.8815 1.12458 65.0289C0.976481 64.8808 0.902432 64.8068 0.754333 64.7327C0.754333 64.4365 0.754333 64.2144 0.754333 63.9182C0.902432 63.9922 0.976481 64.0663 1.12458 64.1403C3.04986 62.2151 4.97514 60.2898 6.82637 58.4386C5.93778 57.55 5.12323 56.7354 4.23464 55.8468C3.27201 56.8095 2.16127 57.9202 1.12458 58.9569C0.976481 58.8828 0.902432 58.8088 0.754333 58.7348C0.754333 58.4386 0.754333 58.1424 0.754333 57.8462C0.902432 57.9202 0.976481 58.0683 1.12458 58.0683C2.01317 57.1797 2.90176 56.2911 3.79035 55.4025C2.97581 54.588 2.08722 53.6994 1.19863 52.8108C1.05053 52.9589 0.976481 53.033 0.828382 53.1811C0.828382 52.6627 0.828382 52.1444 0.828382 51.626C0.902432 51.7001 0.976481 51.7001 1.12458 51.7741C1.12458 51.552 1.12458 51.4779 1.12458 51.3298C1.12458 49.8489 1.12458 48.2938 1.12458 46.8128C1.12458 46.5907 1.05053 46.4426 0.828382 46.2945C0.828382 45.9983 0.828382 45.7761 0.828382 45.48C0.902432 45.48 0.976481 45.554 1.12458 45.6281C1.12458 45.48 1.12458 45.3319 1.12458 45.2578C1.12458 43.7768 1.12458 42.2958 1.12458 40.8149C1.12458 40.5927 1.12458 40.3706 0.828382 40.2225C0.828382 39.9263 0.828382 39.7041 0.828382 39.4079C0.902432 39.4079 0.976481 39.482 1.12458 39.556C1.12458 39.4079 1.12458 39.2598 1.12458 39.1117C1.12458 37.6307 1.12458 36.1498 1.12458 34.6688C1.12458 34.4466 1.12458 34.1504 0.828382 34.0764C0.828382 33.7802 0.828382 33.558 0.828382 33.2618C0.902432 33.2618 0.976481 33.3359 1.05053 33.4099C1.05053 31.7809 1.05053 30.1518 1.05053 28.5227C0.902432 28.5227 0.902432 28.5967 0.828382 28.6708C0.828382 28.1524 0.828382 27.7081 0.828382 27.1898C0.976481 27.3379 1.12458 27.486 1.27268 27.56C2.16127 26.6715 3.04986 25.7829 3.8644 24.9683C2.90176 24.0057 1.86507 22.969 0.902432 21.8583C0.902432 21.5621 0.902432 21.3399 0.902432 21.0437C0.976481 21.1178 1.12458 21.1918 1.19863 21.2659C2.16127 22.2285 3.19796 23.2652 4.1606 24.2278C4.23464 24.3019 4.30869 24.3759 4.38274 24.45C5.27133 23.5614 6.15992 22.6728 7.04851 21.7842C6.82637 21.5621 6.53017 21.3399 6.30802 21.1178C4.45679 19.2665 2.67961 17.4894 0.902432 15.6381C0.902432 15.3419 0.902432 15.1198 0.902432 14.8236C0.310038 14.3052 0.458137 14.3793 0.532186 14.4533C2.53151 16.4527 4.53084 18.452 6.60422 20.4513C6.67827 20.5254 6.75232 20.5994 6.82637 20.6735C7.71496 19.7849 8.60355 18.8963 9.49214 18.0818C6.38207 14.9717 3.27201 11.9357 0.235989 8.89966C0.235989 8.60346 0.235989 8.38131 0.235989 8.08511C0.384087 8.15916 0.458137 8.23321 0.606235 8.38131C3.64225 11.4173 6.67827 14.4533 9.71428 17.4894C9.78833 17.5634 9.93643 17.6375 9.93643 17.7115C10.825 16.8229 11.7136 15.9343 12.5282 15.1198C8.45545 11.1211 4.53084 7.12248 0.532186 3.19787C0.458137 3.19787 0.310038 3.27192 0.235989 3.42002C0.235989 2.60547 0.235989 1.86498 0.235989 1.05044C0.458137 1.05044 0.680284 1.05044 0.902432 1.05044C0.902432 1.42069 0.902432 1.86498 0.902432 2.23523C0.902432 2.38333 0.976481 2.60547 1.12458 2.75357C1.71697 3.42002 2.45746 4.08646 3.12391 4.7529C3.12391 4.7529 3.19796 4.82695 3.34605 4.901C3.34605 3.56811 3.34605 2.30928 3.34605 1.05044C3.5682 1.05044 3.7163 1.05044 3.93845 1.05044C3.93845 2.45738 3.93845 3.93836 3.93845 5.34529C4.0125 5.49339 4.08655 5.64149 4.1606 5.78959C4.82704 6.45603 5.49348 7.12248 6.23397 7.78892C6.30802 7.86297 6.38207 7.86297 6.45612 7.93702C6.45612 6.97438 6.45612 6.08579 6.45612 5.27125C6.45612 3.86431 6.45612 2.45738 6.45612 1.05044C6.67827 1.05044 6.82637 1.05044 7.04851 1.05044C7.04851 3.56811 7.04851 6.01174 7.04851 8.45536C7.04851 8.60346 7.12256 8.75156 7.19661 8.82561C7.86305 9.49205 8.5295 10.1585 9.19594 10.8249C9.26999 10.899 9.34404 10.899 9.41809 10.973C9.41809 10.7509 9.41809 10.6028 9.41809 10.4547C9.41809 7.41867 9.41809 4.38266 9.41809 1.34664C9.41809 1.19854 9.41809 1.05044 9.41809 0.902344C9.56619 0.902344 9.78833 0.902344 9.93643 0.902344C9.93643 1.05044 9.93643 1.19854 9.93643 1.42069C9.93643 4.67885 9.93643 7.93702 9.93643 11.2692C9.93643 11.4173 9.93643 11.6395 10.0845 11.7876C10.8991 12.6021 11.7136 13.4167 12.5282 14.2312C12.5282 14.7495 12.5282 15.2679 12.5282 15.7862C11.7877 16.5267 11.1212 17.2672 10.3807 18.0818C11.0472 18.7482 11.7877 19.4887 12.5282 20.2292C12.5282 20.5254 12.5282 20.7475 12.5282 21.0437C12.0098 20.5254 11.4915 20.0811 10.9731 19.5627C10.6029 19.1925 10.2326 18.8222 9.93643 18.526C9.04784 19.4146 8.15925 20.3032 7.34471 21.1178C7.34471 21.1178 7.41876 21.1918 7.49281 21.2659C9.12189 22.895 10.751 24.524 12.3801 26.1531C12.4541 26.2272 12.5282 26.2272 12.6022 26.3012C12.6022 26.5974 12.6022 26.8936 12.6022 27.1898C12.5282 27.1158 12.3801 27.0417 12.306 26.9677C10.6029 25.2645 8.89974 23.5614 7.19661 21.8583C7.04851 21.7102 7.04851 21.6361 6.97446 21.5621C6.01182 22.5247 5.19728 23.4133 4.30869 24.2278C4.30869 24.2278 4.38274 24.3019 4.45679 24.3759C7.12256 27.0417 9.78833 29.7075 12.3801 32.2992C12.4541 32.3732 12.5282 32.4473 12.6022 32.4473C12.6022 32.7435 12.6022 33.0397 12.6022 33.3359C12.4541 33.1878 12.3801 33.1137 12.306 33.0397C9.56618 30.2999 6.90041 27.6341 4.1606 24.8943C4.08655 24.7462 4.0125 24.6721 3.93845 24.5981C3.04986 25.4867 2.16127 26.3753 1.34673 27.1898C1.42078 27.2639 1.49482 27.3379 1.56887 27.4119C4.30869 30.1518 6.97446 32.8175 9.71428 35.5574C10.6769 36.52 11.7136 37.5567 12.6763 38.5193C12.6763 38.8155 12.6763 39.0377 12.6763 39.3339C12.6022 39.2598 12.4541 39.1858 12.3801 39.1117C10.751 37.4826 9.19594 35.9276 7.56686 34.2985C7.49281 34.2245 7.41876 34.0764 7.41876 33.9283C7.41876 33.9283 7.34471 34.0023 7.27066 34.0764C7.27066 37.6307 7.27066 41.1111 7.27066 44.6654C7.27066 44.6654 7.34471 44.6654 7.34471 44.7395C7.41876 44.6654 7.49281 44.5173 7.56686 44.4433C9.19594 42.8142 10.751 41.2591 12.306 39.7041C12.3801 39.6301 12.5282 39.556 12.6022 39.482C12.6022 39.7782 12.6022 40.0003 12.6022 40.2965C12.4541 40.4446 12.3801 40.5187 12.306 40.5927C10.4548 42.4439 8.60355 44.2952 6.75232 46.1464C4.97514 47.9236 3.27201 49.6267 1.49483 51.4039C1.42078 51.4779 1.34673 51.626 1.27268 51.626C2.16127 52.5146 3.04986 53.4032 3.93845 54.2918C4.0125 54.1437 4.08655 54.0697 4.1606 53.9216C6.90041 51.1817 9.56618 48.4419 12.306 45.7761C12.3801 45.7021 12.5282 45.628 12.6022 45.554C12.6022 45.8502 12.6022 46.1464 12.6022 46.4426C12.5282 46.5166 12.4541 46.5907 12.3801 46.6647C9.78833 49.2565 7.12256 51.9222 4.53084 54.5139C4.45679 54.588 4.38274 54.662 4.30869 54.7361C5.19728 55.6247 6.08587 56.5133 6.90041 57.3278C6.97446 57.2538 7.04851 57.1797 7.19661 57.1057C8.89974 55.4025 10.6029 53.6994 12.306 51.9963C12.3801 51.9222 12.5282 51.8482 12.6022 51.7741C12.6022 52.0703 12.6022 52.3665 12.6022 52.6627C12.5282 52.7368 12.4541 52.8108 12.3801 52.8108C10.751 54.4399 9.12189 56.069 7.49281 57.6981C7.41876 57.7721 7.34471 57.8462 7.34471 57.8462C8.2333 58.7347 9.12189 59.6233 9.93643 60.4379C10.5288 59.8455 11.2693 59.105 11.9358 58.4386C12.1579 58.2164 12.306 58.0683 12.5282 57.9202C12.5282 58.2164 12.5282 58.4386 12.5282 58.7348C11.7877 59.4752 11.0472 60.2157 10.3807 60.8822C11.1212 61.6227 11.8617 62.3632 12.5282 63.1037C12.5282 63.3999 12.5282 63.622 12.5282 63.9182C12.4541 63.8441 12.306 63.7701 12.232 63.696C11.5655 63.0296 10.8991 62.3632 10.2326 61.6967C10.1586 61.6227 10.0845 61.5486 9.93643 61.4746C9.93643 61.6967 9.93643 61.8448 9.93643 61.9929C9.93643 66.3618 9.93643 70.7307 9.93643 75.0996C9.93643 78.4318 9.93643 81.764 9.93643 85.1703C9.93643 85.3184 9.93643 85.5406 10.0845 85.6887C10.8991 86.5032 11.7136 87.3177 12.5282 88.1323C12.5282 88.6506 12.5282 89.169 12.5282 89.6873C11.7877 90.4278 11.1212 91.1683 10.3807 91.9828C11.0472 92.6493 11.7877 93.3898 12.5282 94.1303C12.5282 94.4265 12.5282 94.6486 12.5282 94.9448C12.0098 94.4265 11.4915 93.9822 10.9731 93.4638C10.6029 93.0936 10.2326 92.7233 9.93643 92.4271C9.04784 93.3157 8.15925 94.2043 7.34471 95.0189C7.34471 95.0189 7.41876 95.0929 7.49281 95.167C9.12189 96.796 10.751 98.4251 12.3801 100.054C12.4541 100.128 12.5282 100.128 12.6022 100.202C12.6022 100.498 12.6022 100.795 12.6022 101.091C12.5282 101.017 12.3801 100.943 12.306 100.869C10.6029 99.1656 8.89974 97.4625 7.19661 95.7593C7.04851 95.6112 7.04851 95.5372 6.97446 95.4631C6.01182 96.4258 5.19728 97.3144 4.30869 98.1289C4.30869 98.1289 4.38274 98.203 4.45679 98.277C7.12256 100.943 9.78833 103.609 12.3801 106.2C12.4541 106.274 12.5282 106.348 12.6022 106.348C12.6022 106.645 12.6022 106.941 12.6022 107.237C12.4541 107.089 12.3801 107.015 12.306 106.941C9.56618 104.201 6.90041 101.535 4.1606 98.7954C4.0125 98.6473 3.93845 98.5732 3.93845 98.5732C3.04986 99.4618 2.16127 100.35 1.34673 101.165C1.42078 101.239 1.49482 101.313 1.56887 101.387C4.30869 104.127 6.97446 106.793 9.71428 109.532C10.6769 110.495 11.7136 111.532 12.6763 112.494C12.6763 112.791 12.6763 113.013 12.6763 113.309C12.6022 113.235 12.4541 113.161 12.3801 113.087C10.751 111.458 9.19594 109.903 7.56686 108.274C7.49281 108.2 7.41876 108.052 7.41876 107.903C7.41876 107.903 7.34471 107.977 7.27066 108.052C7.27066 111.606 7.27066 115.086 7.27066 118.641H7.34471C7.41876 118.566 7.49281 118.492 7.56686 118.418C9.19594 116.789 10.751 115.234 12.306 113.679C12.3801 113.605 12.5282 113.531 12.6022 113.457C12.6022 113.753 12.6022 113.975 12.6022 114.272C12.4541 114.42 12.3801 114.494 12.306 114.568C10.4548 116.419 8.60355 118.27 6.75232 120.122C4.97514 121.899 3.27201 123.602 1.49483 125.379C1.42078 125.453 1.34673 125.601 1.27268 125.601C2.16127 126.49 3.04986 127.378 3.93845 128.267C4.0125 128.119 4.08655 128.045 4.1606 127.897C6.90041 125.157 9.56618 122.417 12.306 119.751C12.3801 119.677 12.5282 119.603 12.6022 119.529C12.6022 119.825 12.6022 120.122 12.6022 120.418C12.5282 120.492 12.4541 120.566 12.3801 120.64C9.78833 123.232 7.12256 125.897 4.53084 128.489C4.45679 128.563 4.38274 128.637 4.30869 128.711C5.19728 129.6 6.08587 130.488 6.90041 131.303C6.97446 131.229 7.04851 131.155 7.19661 131.081C8.89974 129.378 10.6029 127.675 12.306 125.971C12.3801 125.897 12.5282 125.823 12.6022 125.749C12.6022 126.045 12.6022 126.342 12.6022 126.638C12.5282 126.712 12.4541 126.786 12.3801 126.786C10.751 128.415 9.12189 130.044 7.49281 131.673C7.41876 131.747 7.34471 131.821 7.34471 131.821C8.2333 132.71 9.12189 133.598 9.93643 134.413C10.5288 133.821 11.2693 133.08 11.9358 132.414C12.1579 132.192 12.306 132.043 12.5282 131.895C12.5282 132.192 12.5282 132.414 12.5282 132.71C11.7877 133.45 11.0472 134.191 10.3807 134.857C11.1212 135.598 11.8617 136.338 12.5282 137.079C12.5282 137.375 12.5282 137.597 12.5282 137.893C12.4541 137.819 12.306 137.745 12.232 137.671C11.5655 137.005 10.8991 136.338 10.2326 135.672C10.1586 135.598 10.0845 135.524 9.93643 135.45C9.93643 135.672 9.93643 135.82 9.93643 135.968C9.93643 140.337 9.93643 144.706 9.93643 149.075C9.93643 152.407 9.93643 155.739 9.93643 159.145C9.93643 159.294 9.93643 159.516 10.0845 159.664C10.8991 160.478 11.7136 161.293 12.5282 162.107C12.5282 162.626 12.5282 163.144 12.5282 163.662C11.7877 164.403 11.1212 165.143 10.3807 165.958C11.0472 166.624 11.7877 167.365 12.5282 168.105C12.5282 168.402 12.5282 168.624 12.5282 168.92C12.0098 168.402 11.4915 167.957 10.9731 167.439C10.6029 167.069 10.2326 166.698 9.93643 166.402C9.04784 167.291 8.15925 168.179 7.34471 168.994C7.34471 168.994 7.41876 169.068 7.49281 169.142C9.12189 170.771 10.751 172.4 12.3801 174.029C12.4541 174.103 12.5282 174.103 12.6022 174.177C12.6022 174.474 12.6022 174.77 12.6022 175.066C12.5282 174.992 12.3801 174.918 12.306 174.844C10.6029 173.141 8.89974 171.438 7.19661 169.734C7.04851 169.586 7.04851 169.512 6.97446 169.438C6.01182 170.401 5.19728 171.29 4.30869 172.104C4.30869 172.104 4.38274 172.178 4.45679 172.252C7.12256 174.918 9.78833 177.584 12.3801 180.175C12.4541 180.249 12.5282 180.324 12.6022 180.324C12.6022 180.62 12.6022 180.916 12.6022 181.212C12.4541 181.064 12.3801 180.99 12.306 180.916C9.56618 178.176 6.90041 175.51 4.1606 172.77C4.0125 172.622 3.93845 172.548 3.93845 172.548C3.04986 173.437 2.16127 174.326 1.34673 175.14C1.42078 175.214 1.49482 175.288 1.56887 175.362C4.30869 178.102 6.97446 180.768 9.71428 183.508C10.6769 184.47 11.7136 185.507 12.6763 186.47C12.6763 186.766 12.6763 186.988 12.6763 187.284C12.6022 187.21 12.4541 187.136 12.3801 187.062C10.751 185.433 9.19594 183.878 7.56686 182.249C7.49281 182.175 7.41876 182.027 7.41876 181.879C7.41876 181.879 7.34471 181.953 7.27066 182.027C7.27066 185.581 7.27066 189.061 7.27066 192.69C7.41876 192.542 7.49281 192.468 7.56686 192.394C9.19594 190.764 10.751 189.209 12.306 187.654C12.3801 187.58 12.5282 187.506 12.6022 187.432C12.6022 187.728 12.6022 187.951 12.6022 188.247C12.4541 188.395 12.3801 188.469 12.306 188.543C10.4548 190.394 8.60355 192.245 6.75232 194.097C4.97514 195.874 3.27201 197.577 1.49483 199.354C1.42078 199.428 1.34673 199.576 1.27268 199.576C2.16127 200.465 3.04986 201.353 3.93845 202.242C4.0125 202.094 4.08655 202.02 4.1606 201.872C6.90041 199.132 9.56618 196.392 12.306 193.726C12.3801 193.652 12.5282 193.578 12.6022 193.504C12.6022 193.8 12.6022 194.097 12.6022 194.393C12.5282 194.467 12.4541 194.541 12.3801 194.615C9.78833 197.207 7.12256 199.873 4.53084 202.464C4.45679 202.538 4.38274 202.612 4.30869 202.686C5.19728 203.575 6.08587 204.464 6.90041 205.278C6.97446 205.204 7.04851 205.13 7.19661 205.056C8.89974 203.353 10.6029 201.65 12.306 199.947C12.3801 199.873 12.5282 199.798 12.6022 199.724C12.6022 200.021 12.6022 200.317 12.6022 200.613C12.5282 200.687 12.4541 200.761 12.3801 200.761C10.751 202.39 9.12189 204.019 7.49281 205.648C7.41876 205.722 7.34471 205.796 7.34471 205.796C8.2333 206.685 9.12189 207.574 9.93643 208.388C10.6029 207.722 11.2693 207.055 11.9358 206.389C12.1579 206.167 12.306 206.019 12.5282 205.87C12.5282 206.167 12.5282 206.389 12.5282 206.685C11.7877 207.426 11.0472 208.166 10.3807 208.832C11.1212 209.573 11.8617 210.313 12.5282 211.054C12.5282 211.35 12.5282 211.572 12.5282 211.868C12.4541 211.794 12.306 211.72 12.232 211.646C11.5655 210.98 10.8991 210.313 10.2326 209.647C10.1586 209.573 10.0845 209.499 9.93643 209.425C9.93643 209.647 9.93643 209.795 9.93643 209.943C9.93643 214.312 9.93643 218.681 9.93643 223.05C9.93643 226.382 9.93643 229.714 9.93643 233.121C9.93643 233.269 9.93643 233.491 10.0845 233.639C10.8991 234.453 11.7136 235.268 12.5282 236.083C12.5282 236.601 12.5282 237.119 12.5282 237.638C11.7877 238.378 11.1212 239.119 10.3807 239.933C11.0472 240.6 11.7877 241.34 12.5282 242.081C12.5282 242.377 12.5282 242.599 12.5282 242.895C12.0098 242.377 11.4915 241.932 10.9731 241.414C10.6029 241.044 10.2326 240.674 9.93643 240.377C9.04784 241.266 8.15925 242.155 7.34471 242.969C7.34471 242.969 7.41876 243.043 7.49281 243.117C9.12189 244.746 10.751 246.375 12.3801 248.004C12.4541 248.079 12.5282 248.079 12.6022 248.153C12.6022 248.449 12.6022 248.745 12.6022 249.041C12.5282 248.967 12.3801 248.893 12.306 248.819C10.6029 247.116 8.89974 245.413 7.19661 243.71C7.04851 243.562 7.04851 243.487 6.97446 243.413C6.01182 244.376 5.19728 245.265 4.30869 246.079C4.30869 246.079 4.38274 246.153 4.45679 246.227C7.12256 248.893 9.78833 251.559 12.3801 254.151C12.4541 254.225 12.5282 254.299 12.6022 254.299C12.6022 254.595 12.6022 254.891 12.6022 255.187C12.4541 255.039 12.3801 254.965 12.306 254.891C9.56618 252.151 6.90041 249.485 4.1606 246.746C4.0125 246.598 3.93845 246.523 3.93845 246.523C3.04986 247.412 2.16127 248.301 1.34673 249.115C1.42078 249.189 1.49482 249.263 1.56887 249.337C4.30869 252.077 6.97446 254.743 9.71428 257.483C10.6769 258.445 11.7136 259.482 12.6763 260.445C12.6763 260.741 12.6763 260.963 12.6763 261.259C12.6022 261.185 12.4541 261.111 12.3801 261.037C10.751 259.408 9.19594 257.853 7.56686 256.224C7.49281 256.15 7.41876 256.002 7.41876 255.854C7.41876 255.854 7.34471 255.928 7.27066 256.002C7.27066 259.556 7.27066 263.036 7.27066 266.591C7.27066 266.591 7.34471 266.591 7.34471 266.665C7.41876 266.591 7.49281 266.443 7.56686 266.369C9.19594 264.74 10.751 263.185 12.306 261.63C12.3801 261.555 12.5282 261.481 12.6022 261.407C12.6022 261.704 12.6022 261.926 12.6022 262.222C12.4541 262.37 12.3801 262.444 12.306 262.518C10.4548 264.369 8.60355 266.221 6.75232 268.072C4.97514 269.849 3.27201 271.552 1.49483 273.329C1.42078 273.403 1.34673 273.551 1.27268 273.551C2.16127 274.44 3.04986 275.329 3.93845 276.217C4.0125 276.069 4.08655 275.995 4.1606 275.847C6.90041 273.107 9.56618 270.367 12.306 267.702C12.3801 267.628 12.5282 267.553 12.6022 267.479C12.6022 267.776 12.6022 268.072 12.6022 268.368C12.5282 268.442 12.4541 268.516 12.3801 268.59C9.78833 271.182 7.12256 273.848 4.53084 276.439C4.45679 276.513 4.38274 276.587 4.30869 276.662C5.19728 277.55 6.08587 278.439 6.90041 279.253C6.97446 279.179 7.04851 279.105 7.19661 279.031C8.89974 277.328 10.6029 275.625 12.306 273.922C12.3801 273.848 12.5282 273.774 12.6022 273.7C12.6022 273.996 12.6022 274.292 12.6022 274.588C12.5282 274.662 12.4541 274.736 12.3801 274.736C10.751 276.365 9.12189 277.994 7.49281 279.623C7.41876 279.698 7.34471 279.772 7.34471 279.772C8.2333 280.66 9.12189 281.549 9.93643 282.363C10.6029 281.697 11.2693 281.03 11.9358 280.364C12.1579 280.142 12.306 279.994 12.5282 279.846C12.5282 280.142 12.5282 280.364 12.5282 280.66C11.7877 281.401 11.0472 282.141 10.3807 282.808C11.1212 283.548 11.8617 284.289 12.5282 285.029C12.5282 285.325 12.5282 285.547 12.5282 285.844C12.4541 285.77 12.306 285.695 12.232 285.621C11.5655 284.955 10.8991 284.289 10.2326 283.622C10.1586 283.548 10.0845 283.474 9.93643 283.4C9.93643 283.622 9.93643 283.77 9.93643 283.918C9.93643 288.287 9.93643 292.656 9.93643 297.025C9.93643 300.357 9.93643 303.689 9.93643 307.096C9.93643 307.244 9.93643 307.466 10.0845 307.614C10.8991 308.429 11.7136 309.243 12.5282 310.058C12.5282 310.576 12.5282 311.094 12.5282 311.613C11.7877 312.353 11.1212 313.094 10.3807 313.908C11.0472 314.575 11.7877 315.315 12.5282 316.056C12.5282 316.352 12.5282 316.574 12.5282 316.87C12.0098 316.352 11.4915 315.908 10.9731 315.389C10.6029 315.019 10.2326 314.649 9.93643 314.353C9.04784 315.241 8.15925 316.13 7.34471 316.944C7.34471 316.944 7.41876 317.018 7.49281 317.092C9.12189 318.721 10.751 320.351 12.3801 321.98C12.4541 322.054 12.5282 322.054 12.6022 322.128C12.6022 322.424 12.6022 322.72 12.6022 323.016C12.5282 322.942 12.3801 322.868 12.306 322.794C10.6029 321.091 8.89974 319.388 7.19661 317.685C7.04851 317.537 7.04851 317.463 6.97446 317.389C6.01182 318.351 5.19728 319.24 4.30869 320.054C4.30869 320.054 4.38274 320.128 4.45679 320.202C7.12256 322.868 9.78833 325.534 12.3801 328.126C12.4541 328.2 12.5282 328.274 12.6022 328.274C12.6022 328.57 12.6022 328.866 12.6022 329.162C12.4541 329.014 12.3801 328.94 12.306 328.866C9.56618 326.126 6.90041 323.461 4.1606 320.721C4.0125 320.573 4.0125 320.499 3.93845 320.425C2.97581 321.387 2.16127 322.202 1.19863 323.164C1.27268 323.238 1.34673 323.312 1.42078 323.387C3.34605 325.312 5.27133 327.237 7.12256 329.088C7.19661 329.162 7.27066 329.31 7.34471 329.385C7.04851 329.385 6.75232 329.385 6.45612 329.385C6.38207 329.31 6.30802 329.162 6.23397 329.088C5.64158 328.496 5.04919 327.904 4.45679 327.311C4.38274 327.163 4.30869 327.089 4.23464 326.941C4.1606 326.941 4.08655 327.015 4.08655 327.089C4.08655 327.829 4.08655 328.644 4.08655 329.459C3.8644 329.459 3.7163 329.459 3.49415 329.459C3.49415 328.496 3.49415 327.607 3.49415 326.645C3.49415 326.497 3.4201 326.274 3.34605 326.2C2.60556 325.46 1.93912 324.719 1.19863 324.053C1.12458 323.979 1.12458 323.979 0.976481 323.905C0.976481 324.127 0.976481 324.201 0.976481 324.349C0.976481 326.052 0.976481 327.755 0.976481 329.459C0.680284 329.459 0.384087 329.459 0.0878906 329.459C0.0878906 329.162 0.0878906 328.866 0.0878906 328.496C0.16194 328.496 0.235989 328.57 0.310038 328.644C0.310038 327.015 0.310038 325.386 0.310038 323.757C0.16194 323.757 0.16194 323.831 0.0878906 323.905C0.0878906 323.387 0.0878906 322.942 0.0878906 322.424C0.235989 322.572 0.384087 322.72 0.532186 322.794C1.42078 321.906 2.30937 321.017 3.12391 320.202C2.16127 319.24 1.12458 318.203 0.16194 317.092C0.16194 316.796 0.16194 316.574 0.16194 316.278C0.235989 316.352 0.384087 316.426 0.458136 316.5C1.42078 317.463 2.45746 318.499 3.4201 319.462C3.49415 319.536 3.5682 319.61 3.64225 319.684C4.53084 318.795 5.41943 317.907 6.30802 317.018C6.08587 316.796 5.78968 316.574 5.56753 316.352C3.79035 314.575 1.93912 312.723 0.16194 310.946C0.16194 310.65 0.16194 310.428 0.16194 310.132C0.310038 310.206 0.384087 310.28 0.458136 310.354C2.45746 312.353 4.45679 314.353 6.53017 316.426C6.60422 316.5 6.67827 316.574 6.75232 316.648C7.64091 315.759 8.5295 314.871 9.41809 313.982C6.38207 310.946 3.27201 307.91 0.235989 304.8C0.235989 304.504 0.235989 304.282 0.235989 303.986C0.384087 304.06 0.458137 304.134 0.606235 304.282C3.64225 307.318 6.67827 310.354 9.71428 313.39C9.78833 313.464 9.93643 313.538 9.93643 313.612C10.825 312.723 11.7136 311.835 12.5282 311.02C8.60355 307.096 4.60489 303.097 0.606235 299.098C0.532186 299.172 0.384087 299.246 0.310038 299.321C0.310038 299.024 0.310038 298.802 0.310038 298.506C0.310038 298.432 0.384087 298.284 0.384087 298.21C0.384087 296.581 0.384087 294.952 0.384087 293.397C0.384087 293.323 0.384087 293.174 0.310038 293.1C0.310038 292.582 0.310038 292.064 0.310038 291.545C0.458137 291.693 0.532186 291.768 0.680284 291.842C3.64225 288.88 6.60422 285.918 9.49214 283.03C8.67759 282.141 7.789 281.327 6.90041 280.438C4.90109 282.437 2.82771 284.511 0.754333 286.658C0.606235 286.51 0.532186 286.436 0.384087 286.362C0.384087 286.066 0.384087 285.844 0.384087 285.547C0.532186 285.621 0.606235 285.696 0.754333 285.77C2.67961 283.844 4.60489 281.919 6.45612 280.068C5.56753 279.179 4.75299 278.365 3.8644 277.476C2.90176 278.439 1.79102 279.549 0.754333 280.586C0.606235 280.512 0.532186 280.438 0.384087 280.364C0.384087 280.068 0.384087 279.772 0.384087 279.475C0.532186 279.549 0.606235 279.698 0.754333 279.698C1.64292 278.809 2.53151 277.92 3.4201 277.032C2.60556 276.217 1.71697 275.329 0.828382 274.44C0.680284 274.588 0.606235 274.662 0.458136 274.81C0.458136 274.292 0.458136 273.774 0.458136 273.255C0.532186 273.329 0.606235 273.329 0.754333 273.403C0.754333 273.181 0.754333 273.107 0.754333 272.959C0.754333 271.478 0.754333 269.923 0.754333 268.442C0.754333 268.22 0.680284 268.072 0.458136 267.924C0.458136 267.627 0.458136 267.405 0.458136 267.109C0.532186 267.109 0.606235 267.183 0.754333 267.257C0.754333 267.109 0.754333 266.961 0.754333 266.887C0.754333 265.406 0.754333 263.925 0.754333 262.444C0.754333 262.222 0.754333 262 0.458136 261.852C0.458136 261.555 0.458136 261.333 0.458136 261.037C0.532186 261.037 0.606235 261.111 0.754333 261.185C0.754333 261.037 0.754333 260.889 0.754333 260.741C0.754333 259.26 0.754333 257.779 0.754333 256.298C0.754333 256.076 0.754333 255.78 0.458136 255.706C0.458136 255.409 0.458136 255.187 0.458136 254.891C0.532186 254.891 0.606235 254.965 0.680284 255.039C0.680284 253.41 0.680284 251.781 0.680284 250.152C0.532186 250.152 0.532186 250.226 0.458136 250.3C0.458136 249.782 0.458136 249.337 0.458136 248.819C0.606235 248.967 0.754333 249.115 0.902432 249.189C1.79102 248.301 2.67961 247.412 3.49415 246.598C2.53151 245.635 1.49482 244.598 0.532186 243.487C0.532186 243.191 0.532186 242.969 0.532186 242.673C0.606235 242.747 0.754333 242.821 0.828382 242.895C1.79102 243.858 2.82771 244.894 3.79035 245.857C3.8644 245.931 3.93845 246.005 4.0125 246.079C4.90109 245.191 5.78968 244.302 6.67827 243.413C6.45612 243.191 6.15992 242.969 5.93778 242.747C4.1606 240.97 2.30937 239.119 0.532186 237.341C0.532186 237.045 0.532186 236.823 0.532186 236.527C0.680284 236.601 0.754333 236.675 0.828382 236.749C2.82771 238.748 4.82704 240.748 6.90041 242.821C6.97446 242.895 7.04851 242.969 7.12256 243.043C8.01115 242.155 8.89974 241.266 9.78833 240.451C6.23397 237.489 3.12391 234.379 0.0878906 231.343C0.0878906 231.047 0.0878906 230.825 0.0878906 230.529C0.235989 230.603 0.310038 230.677 0.458136 230.825C3.49415 233.861 6.53017 236.897 9.56619 239.933C9.64023 240.007 9.78833 240.081 9.78833 240.155C10.6769 239.267 11.5655 238.378 12.3801 237.564C8.45545 233.565 4.45679 229.64 0.458136 225.642C0.384087 225.716 0.235989 225.79 0.16194 225.864C0.16194 225.568 0.16194 225.345 0.16194 225.049C0.16194 224.975 0.235989 224.827 0.235989 224.753C0.235989 223.124 0.235989 221.495 0.235989 219.94C0.235989 219.866 0.235989 219.718 0.16194 219.644C0.16194 219.125 0.16194 218.607 0.16194 218.089C0.310038 218.237 0.384087 218.311 0.532186 218.385C3.49415 215.423 6.45612 212.461 9.34404 209.573C8.45545 208.684 7.64091 207.87 6.75232 206.981C4.75299 208.981 2.67961 211.054 0.606235 213.201C0.458137 212.165 0.310038 212.091 0.235989 211.943ZM1.12458 272.663C1.19863 272.663 1.19863 272.663 1.27268 272.589C2.01317 271.848 2.75366 271.108 3.49415 270.367C3.5682 270.293 3.64225 270.145 3.64225 269.997C3.64225 264.147 3.64225 258.297 3.64225 252.373C3.64225 252.225 3.5682 252.077 3.49415 252.003C2.75366 251.263 2.01317 250.522 1.27268 249.782C1.27268 249.782 1.19863 249.782 1.12458 249.708C1.12458 257.409 1.12458 265.036 1.12458 272.663ZM1.12458 28.0043C1.12458 35.7055 1.12458 43.3325 1.12458 51.0336C1.19863 51.0336 1.27268 50.9596 1.27268 50.9596C2.01317 50.2191 2.75366 49.4786 3.49415 48.7381C3.5682 48.6641 3.64225 48.516 3.64225 48.3679C3.64225 42.518 3.64225 36.6681 3.64225 30.8182C3.64225 30.6701 3.64225 30.5961 3.5682 30.448C2.75366 29.6334 2.01317 28.8189 1.12458 28.0043ZM1.12458 198.762C1.19863 198.762 1.27268 198.688 1.27268 198.688C2.01317 197.947 2.75366 197.207 3.49415 196.466C3.5682 196.392 3.64225 196.244 3.64225 196.096C3.64225 190.246 3.64225 184.396 3.64225 178.546C3.64225 178.398 3.5682 178.176 3.4201 178.028C2.75366 177.287 2.08722 176.621 1.34673 175.955C1.27268 175.881 1.19863 175.807 1.12458 175.807C1.12458 183.508 1.12458 191.135 1.12458 198.762ZM1.12458 101.905C1.12458 109.607 1.12458 117.234 1.12458 124.935C1.19863 124.935 1.19863 124.935 1.27268 124.861C2.01317 124.12 2.75366 123.38 3.5682 122.565C3.64225 122.491 3.7163 122.343 3.7163 122.195C3.7163 116.345 3.7163 110.495 3.7163 104.645C3.7163 104.497 3.7163 104.423 3.64225 104.275C2.75366 103.535 2.01317 102.72 1.12458 101.905ZM9.49214 283.474C8.75164 284.215 8.01115 284.955 7.27066 285.695C7.12256 285.844 7.04851 286.066 7.04851 286.214C7.04851 292.138 7.04851 297.988 7.04851 303.912C7.04851 304.06 7.12256 304.282 7.27066 304.43C7.9371 305.096 8.60355 305.763 9.26999 306.429C9.34404 306.503 9.41809 306.577 9.49214 306.651C9.49214 298.876 9.49214 291.249 9.49214 283.474ZM9.49214 85.0222C9.49214 77.247 9.49214 69.62 9.49214 61.8448C8.75164 62.5853 8.0852 63.2518 7.34471 63.9922C7.12256 64.2144 7.04851 64.4365 7.04851 64.7327C7.04851 70.4345 7.04851 76.2104 7.04851 81.9121C7.04851 82.4305 7.19661 82.8007 7.56686 83.171C8.2333 83.6893 8.82569 84.2817 9.49214 85.0222ZM9.41809 158.923C9.41809 151.148 9.41809 143.521 9.41809 135.746C8.6776 136.486 8.01115 137.153 7.27066 137.893C7.04851 138.115 6.97446 138.338 6.97446 138.634C6.97446 144.039 6.97446 149.519 6.97446 154.925C6.97446 155.443 6.82637 156.035 7.04851 156.48C7.27066 156.924 7.71496 157.22 8.0852 157.59C8.60355 157.961 8.97379 158.405 9.41809 158.923ZM9.49214 209.573C8.75164 210.313 8.15925 210.98 7.41876 211.646C7.12256 211.868 7.04851 212.165 7.04851 212.535C7.04851 213.942 7.04851 215.423 7.04851 216.83C7.04851 221.199 7.04851 225.568 7.04851 229.862C7.04851 230.159 7.12256 230.381 7.34471 230.529C7.86305 231.047 8.45545 231.64 8.97379 232.158C9.12189 232.306 9.26999 232.528 9.41809 232.676L9.49214 232.602C9.49214 224.975 9.49214 217.348 9.49214 209.573ZM6.30802 155.813L6.38207 155.739C6.38207 150.111 6.38207 144.484 6.38207 138.856C6.30802 138.856 6.30802 138.856 6.23397 138.93C5.49348 139.671 4.75299 140.411 4.08655 141.077C4.0125 141.151 4.0125 141.3 4.0125 141.448C4.0125 145.298 4.0125 149.223 4.0125 153.073C4.0125 153.222 4.08655 153.444 4.23464 153.592C4.75299 154.184 5.34538 154.702 5.86373 155.221C6.01182 155.443 6.15992 155.591 6.30802 155.813ZM6.38207 81.9121C6.38207 76.2104 6.38207 70.5826 6.38207 64.8808C6.23397 65.0289 6.15992 65.0289 6.08587 65.103C5.49348 65.7694 4.97514 66.3618 4.30869 66.9542C4.08655 67.1764 3.93845 67.4726 3.93845 67.7688C3.93845 71.3972 3.93845 74.9515 3.93845 78.5059C3.93845 79.2464 4.08655 79.7647 4.67894 80.209C5.27133 80.7274 5.78968 81.3197 6.38207 81.9121ZM6.30802 229.714C6.30802 229.714 6.38207 229.64 6.45612 229.64C6.45612 224.013 6.45612 218.385 6.45612 212.757C6.38207 212.757 6.38207 212.757 6.30802 212.831C5.56753 213.572 4.82704 214.312 4.1606 214.979C4.0125 215.053 4.0125 215.201 4.0125 215.349C4.0125 219.273 4.0125 223.124 4.0125 227.049C4.0125 227.197 4.08655 227.345 4.23464 227.493C4.67894 228.011 5.12323 228.381 5.56753 228.9C5.78968 229.122 6.08587 229.418 6.30802 229.714ZM6.38207 286.584C6.30802 286.584 6.30802 286.584 6.23397 286.658C5.49348 287.399 4.75299 288.139 4.08655 288.806C4.0125 288.954 4.0125 289.102 4.0125 289.25C4.0125 293.1 4.0125 297.025 4.0125 300.876C4.0125 301.024 4.08655 301.246 4.23464 301.394C4.75299 301.986 5.34538 302.505 5.86373 303.023C6.01182 303.171 6.15992 303.393 6.38207 303.615L6.45612 303.541C6.38207 297.914 6.38207 292.286 6.38207 286.584ZM4.30869 178.917C4.30869 184.544 4.30869 190.098 4.30869 195.726C5.04919 194.985 5.78968 194.245 6.53017 193.504C6.60422 193.43 6.67827 193.282 6.67827 193.134C6.67827 189.283 6.67827 185.433 6.67827 181.582C6.67827 181.434 6.67827 181.36 6.53017 181.212C5.78968 180.472 5.12323 179.731 4.30869 178.917ZM4.30869 105.015C4.30869 110.643 4.30869 116.197 4.30869 121.751C5.04919 121.01 5.78968 120.27 6.53017 119.529C6.60422 119.455 6.67827 119.307 6.67827 119.159C6.67827 115.308 6.67827 111.458 6.67827 107.607C6.67827 107.459 6.67827 107.385 6.53017 107.237C5.78968 106.571 5.04919 105.83 4.30869 105.015ZM4.23464 269.553C4.30869 269.479 4.38274 269.479 4.38274 269.405C5.04919 268.738 5.78968 268.072 6.45612 267.331C6.53017 267.257 6.60422 267.035 6.60422 266.887C6.60422 263.036 6.60422 259.26 6.60422 255.409C6.60422 255.261 6.53017 255.039 6.38207 254.891C5.78968 254.225 5.12323 253.632 4.45679 252.966C4.38274 252.892 4.30869 252.818 4.23464 252.818C4.23464 258.445 4.23464 263.925 4.23464 269.553ZM4.30869 47.9236C5.12323 47.109 5.86373 46.4426 6.53017 45.7021C6.60422 45.628 6.67827 45.48 6.67827 45.3319C6.67827 41.4813 6.67827 37.6307 6.67827 33.8542C6.67827 33.7061 6.60422 33.484 6.45612 33.3359C5.93778 32.8175 5.41943 32.2992 4.82704 31.7068C4.67894 31.5587 4.53084 31.3366 4.38274 31.1885L4.30869 31.2625C4.30869 36.7421 4.30869 42.2958 4.30869 47.9236ZM3.34605 215.793C3.19796 215.941 3.12391 215.941 3.12391 216.015C2.45746 216.682 1.79102 217.274 1.19863 218.015C1.05053 218.163 0.976481 218.385 0.976481 218.533C0.976481 220.384 0.976481 222.161 0.976481 224.013C0.976481 224.161 1.05053 224.383 1.19863 224.531C1.79102 225.197 2.53151 225.864 3.12391 226.53C3.19796 226.604 3.27201 226.678 3.34605 226.752C3.34605 222.976 3.34605 219.421 3.34605 215.793ZM3.34605 152.703C3.34605 149.075 3.34605 145.52 3.34605 141.892C3.27201 141.966 3.19796 141.966 3.19796 142.04C2.45746 142.781 1.79102 143.447 1.05053 144.188C0.976481 144.262 0.902432 144.41 0.902432 144.558C0.902432 146.409 0.902432 148.26 0.902432 150.037C0.902432 150.185 0.976481 150.408 1.12458 150.482C1.71697 151.148 2.38342 151.741 3.04986 152.407C3.12391 152.481 3.19796 152.555 3.34605 152.703ZM3.34605 67.9909C3.27201 67.9909 3.19796 68.0649 3.19796 68.0649C2.45746 68.8054 1.71697 69.5459 1.05053 70.2124C0.976481 70.2864 0.902432 70.4345 0.902432 70.5826C0.902432 72.4339 0.902432 74.211 0.902432 76.0623C0.902432 76.2104 0.976481 76.4325 1.12458 76.5806C1.79102 77.247 2.45746 77.9135 3.12391 78.5799C3.19796 78.654 3.27201 78.728 3.34605 78.728C3.34605 75.1737 3.34605 71.6193 3.34605 67.9909ZM3.34605 300.505C3.34605 296.877 3.34605 293.323 3.34605 289.694C3.27201 289.768 3.19796 289.768 3.19796 289.842C2.45746 290.583 1.79102 291.249 1.05053 291.99C0.976481 292.064 0.902432 292.212 0.902432 292.36C0.902432 294.211 0.902432 296.062 0.902432 297.84C0.902432 297.988 0.976481 298.21 1.12458 298.284C1.71697 298.95 2.38342 299.543 3.04986 300.209C3.12391 300.283 3.19796 300.357 3.34605 300.505Z" fill="#E4C590"/>
<path d="M0.236084 507.621C0.236084 507.325 0.236084 507.102 0.236084 506.806C0.384182 506.88 0.458232 506.954 0.60633 507.028C2.53161 505.103 4.45689 503.178 6.30812 501.327C5.41953 500.438 4.60499 499.623 3.7164 498.735C2.75376 499.698 1.64302 500.808 0.60633 501.845C0.458232 501.771 0.384182 501.697 0.236084 501.623C0.236084 501.327 0.236084 501.03 0.236084 500.734C0.384182 500.808 0.458232 500.956 0.60633 500.956C1.49492 500.068 2.38351 499.179 3.2721 498.291C2.45756 497.476 1.56897 496.587 0.680379 495.699C0.532281 495.847 0.458232 495.921 0.310133 496.069C0.310133 495.551 0.310133 495.032 0.310133 494.514C0.384182 494.588 0.458232 494.588 0.60633 494.662C0.60633 494.44 0.60633 494.366 0.60633 494.218C0.60633 492.737 0.60633 491.182 0.60633 489.701C0.60633 489.479 0.532281 489.331 0.310133 489.183C0.310133 488.886 0.310133 488.664 0.310133 488.368C0.384182 488.368 0.458232 488.442 0.60633 488.516C0.60633 488.368 0.60633 488.22 0.60633 488.146C0.60633 486.665 0.60633 485.184 0.60633 483.703C0.60633 483.481 0.60633 483.259 0.310133 483.111C0.310133 482.814 0.310133 482.592 0.310133 482.296C0.384182 482.296 0.458232 482.37 0.60633 482.444C0.60633 482.296 0.60633 482.148 0.60633 482C0.60633 480.519 0.60633 479.038 0.60633 477.557C0.60633 477.335 0.60633 477.039 0.310133 476.964C0.310133 476.668 0.310133 476.446 0.310133 476.15C0.384182 476.15 0.458232 476.224 0.532281 476.298C0.532281 474.669 0.532281 473.04 0.532281 471.411C0.384182 471.411 0.384182 471.485 0.310133 471.559C0.310133 471.041 0.310133 470.596 0.310133 470.078C0.458232 470.226 0.60633 470.374 0.754428 470.448C1.64302 469.56 2.53161 468.671 3.34615 467.856C2.38351 466.894 1.34682 465.857 0.384182 464.746C0.384182 464.45 0.384182 464.228 0.384182 463.932C0.458232 464.006 0.60633 464.08 0.680379 464.154C1.64302 465.117 2.67971 466.153 3.64235 467.116C3.7164 467.19 3.79044 467.264 3.86449 467.338C4.75308 466.449 5.64167 465.561 6.53026 464.672C6.30812 464.45 6.01192 464.228 5.78977 464.006C4.01259 462.229 2.16136 460.377 0.384182 458.6C0.384182 458.304 0.384182 458.082 0.384182 457.786C0.532281 457.86 0.60633 457.934 0.680379 458.008C2.67971 460.007 4.67903 462.007 6.75241 464.08C6.82646 464.154 6.90051 464.228 6.97456 464.302C7.86315 463.413 8.75174 462.525 9.64033 461.71C6.60431 458.674 3.49425 455.638 0.458232 452.528C0.458232 452.232 0.458232 452.01 0.458232 451.714C0.60633 451.788 0.680379 451.862 0.828477 452.01C3.86449 455.046 6.90051 458.082 9.93653 461.118C10.0106 461.192 10.1587 461.266 10.1587 461.34C11.0473 460.451 11.9359 459.563 12.7504 458.748C8.82579 454.824 4.82713 450.825 0.828477 446.826C0.754428 446.9 0.60633 446.975 0.532281 447.049C0.532281 446.752 0.532281 446.53 0.532281 446.234C0.532281 446.16 0.60633 446.012 0.60633 445.938C0.60633 444.309 0.60633 442.68 0.60633 441.125C0.60633 441.051 0.60633 440.903 0.532281 440.828C0.532281 440.31 0.532281 439.792 0.532281 439.273C0.680379 439.422 0.754428 439.496 0.902527 439.57C3.86449 436.608 6.82646 433.646 9.71438 430.758C8.89984 429.869 8.01125 429.055 7.12266 428.166C5.12333 430.165 3.04995 432.239 0.976576 434.386C0.828477 434.238 0.754428 434.164 0.60633 434.09C0.60633 433.794 0.60633 433.572 0.60633 433.275C0.754428 433.35 0.828477 433.424 0.976576 433.498C2.90185 431.572 4.82713 429.647 6.67836 427.796C5.78977 426.907 4.97523 426.093 4.08664 425.204C3.124 426.167 2.01326 427.277 0.976576 428.314C0.828477 428.24 0.754428 428.166 0.60633 428.092C0.60633 427.796 0.60633 427.5 0.60633 427.203C0.754428 427.277 0.828477 427.426 0.976576 427.426C1.86517 426.537 2.75376 425.648 3.64235 424.76C2.82781 423.945 1.93922 423.057 1.05062 422.168C0.902527 422.316 0.828477 422.39 0.680379 422.538C0.680379 422.02 0.680379 421.502 0.680379 420.983C0.754428 421.057 0.828477 421.057 0.976576 421.131C0.976576 420.909 0.976576 420.835 0.976576 420.687C0.976576 419.206 0.976576 417.651 0.976576 416.17C0.976576 415.948 0.902527 415.8 0.680379 415.652C0.680379 415.356 0.680379 415.133 0.680379 414.837C0.754428 414.837 0.828477 414.911 0.976576 414.985C0.976576 414.837 0.976576 414.689 0.976576 414.615C0.976576 413.134 0.976576 411.653 0.976576 410.172C0.976576 409.95 0.976576 409.728 0.680379 409.58C0.680379 409.284 0.680379 409.061 0.680379 408.765C0.754428 408.765 0.828477 408.839 0.976576 408.913C0.976576 408.765 0.976576 408.617 0.976576 408.469C0.976576 406.988 0.976576 405.507 0.976576 404.026C0.976576 403.804 0.976576 403.508 0.680379 403.434C0.680379 403.137 0.680379 402.915 0.680379 402.619C0.754428 402.619 0.828477 402.693 0.902527 402.767C0.902527 401.138 0.902527 399.509 0.902527 397.88C0.754428 397.88 0.754428 397.954 0.680379 398.028C0.680379 397.51 0.680379 397.065 0.680379 396.547C0.828477 396.695 0.976576 396.843 1.12467 396.917C2.01326 396.029 2.90185 395.14 3.7164 394.326C2.75376 393.363 1.71707 392.326 0.754428 391.216C0.754428 390.919 0.754428 390.697 0.754428 390.401C0.828477 390.475 0.976576 390.549 1.05062 390.623C2.01326 391.586 3.04995 392.622 4.01259 393.585C4.08664 393.659 4.16069 393.733 4.23474 393.807C5.12333 392.919 6.01192 392.03 6.90051 391.141C6.67836 390.919 6.38217 390.697 6.16002 390.475C4.38284 388.698 2.53161 386.847 0.754428 385.069C0.754428 384.773 0.754428 384.551 0.754428 384.255C0.902527 384.329 0.976576 384.403 1.05062 384.477C3.04995 386.476 5.04928 388.476 7.12266 390.549C7.19671 390.623 7.27076 390.697 7.34481 390.771C8.2334 389.883 9.12199 388.994 10.0106 388.105C6.97456 385.069 3.86449 382.033 0.828477 378.923C0.828477 378.627 0.828477 378.405 0.828477 378.109C0.976576 378.183 1.05062 378.257 1.19872 378.405C4.23474 381.441 7.27076 384.477 10.3068 387.513C10.3808 387.587 10.5289 387.661 10.5289 387.735C11.4175 386.847 12.3061 385.958 13.1206 385.143C9.19603 381.219 5.19738 377.22 1.19872 373.222C1.12467 373.296 0.976576 373.37 0.902527 373.444C0.902527 373.148 0.902527 372.925 0.902527 372.629C0.902527 372.555 0.976576 372.407 0.976576 372.333C0.976576 370.704 0.976576 369.075 0.976576 367.52C0.976576 367.446 0.976576 367.298 0.902527 367.224C0.902527 366.705 0.902527 366.187 0.902527 365.669C1.05062 365.817 1.12467 365.891 1.27277 365.965C4.23474 363.003 7.19671 360.041 10.0846 357.153C9.27008 356.264 8.38149 355.45 7.4929 354.561C5.49358 356.56 3.4202 358.634 1.34682 360.781C1.19872 360.633 1.12467 360.559 0.976576 360.485C0.976576 360.189 0.976576 359.967 0.976576 359.671C1.12467 359.745 1.19872 359.819 1.34682 359.893C3.2721 357.967 5.19738 356.042 7.04861 354.191C6.16002 353.302 5.34548 352.488 4.45689 351.599C3.49425 352.562 2.38351 353.673 1.34682 354.709C1.19872 354.635 1.12467 354.561 0.976576 354.487C0.976576 354.191 0.976576 353.895 0.976576 353.599C1.12467 353.673 1.19872 353.821 1.34682 353.821C2.23541 352.932 3.124 352.043 4.01259 351.155C3.19805 350.34 2.30946 349.452 1.42087 348.563C1.27277 348.711 1.19872 348.785 1.05062 348.933C1.05062 348.415 1.05062 347.897 1.05062 347.378C1.12467 347.452 1.19872 347.452 1.34682 347.526C1.34682 347.304 1.34682 347.23 1.34682 347.082C1.34682 345.601 1.34682 344.046 1.34682 342.565C1.34682 342.343 1.27277 342.195 1.05062 342.047C1.05062 341.751 1.05062 341.529 1.05062 341.232C1.12467 341.232 1.19872 341.306 1.34682 341.38C1.34682 341.232 1.34682 341.084 1.34682 341.01C1.34682 339.529 1.34682 338.048 1.34682 336.567C1.34682 336.345 1.34682 336.123 1.05062 335.975C1.05062 335.679 1.05062 335.456 1.05062 335.16C1.12467 335.16 1.19872 335.234 1.34682 335.308C1.34682 335.16 1.34682 335.012 1.34682 334.864C1.34682 333.383 1.34682 331.902 1.34682 330.421C1.34682 330.199 1.34682 329.903 1.05062 329.829C1.05062 329.533 1.05062 329.31 1.05062 329.014C1.12467 329.014 1.19872 329.088 1.27277 329.162C1.27277 327.533 1.27277 325.904 1.27277 324.275C1.12467 324.275 1.12467 324.349 1.05062 324.423C1.05062 323.905 1.05062 323.461 1.05062 322.942C1.19872 323.09 1.34682 323.238 1.49492 323.312C2.38351 322.424 3.2721 321.535 4.08664 320.721C3.124 319.758 2.08731 318.721 1.12467 317.611C1.12467 317.314 1.12467 317.092 1.12467 316.796C1.19872 316.87 1.34682 316.944 1.42087 317.018C2.38351 317.981 3.4202 319.018 4.38284 319.98C4.45689 320.054 4.53094 320.128 4.60499 320.202C5.49358 319.314 6.38217 318.425 7.27076 317.537C7.04861 317.314 6.75241 317.092 6.53026 316.87C4.75308 315.093 2.90185 313.242 1.12467 311.465C1.12467 311.168 1.12467 310.946 1.12467 310.65C1.27277 310.724 1.34682 310.798 1.42087 310.872C3.4202 312.871 5.41953 314.871 7.4929 316.944C7.56695 317.018 7.641 317.092 7.71505 317.166C8.60364 316.278 9.49223 315.389 10.3808 314.575C7.34481 311.539 4.23474 308.503 1.19872 305.393C1.19872 305.096 1.19872 304.874 1.19872 304.578C1.34682 304.652 1.42087 304.726 1.56897 304.874C4.60499 307.91 7.641 310.946 10.677 313.982C10.7511 314.056 10.8992 314.13 10.8992 314.204C11.7878 313.316 12.6763 312.427 13.4909 311.613C9.56628 307.688 5.56762 303.689 1.56897 299.691C1.49492 299.765 1.34682 299.839 1.27277 299.913C1.27277 299.172 1.27277 298.358 1.27277 297.543C1.49492 297.543 1.71707 297.543 1.93921 297.543C1.93921 297.914 1.93921 298.358 1.93921 298.728C1.93921 298.876 2.01326 299.098 2.16136 299.246C2.82781 299.913 3.49425 300.579 4.16069 301.246C4.23474 301.32 4.30879 301.394 4.38284 301.468C4.38284 300.135 4.38284 298.876 4.38284 297.617C4.60499 297.617 4.75308 297.617 4.97523 297.617C4.97523 299.024 4.97523 300.505 4.97523 301.912C4.97523 302.06 5.04928 302.282 5.12333 302.356C5.78977 303.023 6.45621 303.689 7.12266 304.356C7.19671 304.43 7.27076 304.43 7.34481 304.504C7.34481 303.541 7.34481 302.653 7.34481 301.838C7.34481 300.431 7.34481 299.024 7.34481 297.617C7.56695 297.617 7.71505 297.617 7.9372 297.617C7.9372 300.135 7.9372 302.579 7.9372 305.022C7.9372 305.17 8.01125 305.318 8.0853 305.393C8.75174 306.059 9.41818 306.725 10.0846 307.392C10.1587 307.466 10.2327 307.466 10.3068 307.54C10.3068 307.318 10.3068 307.17 10.3068 307.022C10.3068 303.986 10.3068 300.95 10.3068 297.914C10.3068 297.765 10.3068 297.617 10.3068 297.469C10.4549 297.469 10.677 297.469 10.8251 297.469C10.8251 297.617 10.8251 297.765 10.8251 297.988C10.8251 301.246 10.8251 304.504 10.8251 307.836C10.8251 307.984 10.8251 308.206 10.9732 308.354C11.7878 309.169 12.6023 309.984 13.4168 310.798C13.4168 311.316 13.4168 311.835 13.4168 312.353C12.6763 313.094 12.0099 313.834 11.2694 314.649C11.9359 315.315 12.6763 316.056 13.4168 316.796C13.4168 317.092 13.4168 317.314 13.4168 317.611C12.8985 317.092 12.3801 316.648 11.8618 316.13C11.4916 315.759 11.1213 315.389 10.8251 315.093C9.93653 315.982 9.04794 316.87 8.2334 317.685C8.2334 317.685 8.30744 317.759 8.38149 317.833C10.0106 319.462 11.6397 321.091 13.2687 322.72C13.3428 322.794 13.4168 322.794 13.4909 322.868C13.4909 323.164 13.4909 323.461 13.4909 323.757C13.4168 323.683 13.2687 323.609 13.1947 323.535C11.4916 321.831 9.78843 320.128 8.0853 318.425C7.9372 318.277 7.9372 318.203 7.86315 318.129C6.90051 319.092 6.08597 319.98 5.19738 320.795C5.19738 320.795 5.27143 320.869 5.34548 320.943C8.01125 323.609 10.677 326.274 13.2687 328.866C13.3428 328.94 13.4168 329.014 13.4909 329.014C13.4909 329.31 13.4909 329.607 13.4909 329.903C13.3428 329.755 13.2687 329.681 13.1947 329.607C10.4549 326.867 7.7891 324.201 5.04928 321.461C4.90118 321.313 4.82713 321.239 4.82713 321.239C3.93854 322.128 3.04995 323.016 2.23541 323.831C2.30946 323.905 2.38351 323.979 2.45756 324.053C5.19738 326.793 7.86315 329.459 10.603 332.198C11.5656 333.161 12.6023 334.198 13.5649 335.16C13.5649 335.456 13.5649 335.679 13.5649 335.975C13.4909 335.901 13.3428 335.827 13.2687 335.753C11.6397 334.124 10.0846 332.569 8.45554 330.939C8.38149 330.865 8.30744 330.717 8.30744 330.569C8.30744 330.569 8.2334 330.643 8.15935 330.717C8.15935 334.272 8.15935 337.752 8.15935 341.306C8.15935 341.306 8.2334 341.306 8.2334 341.38C8.30744 341.306 8.38149 341.158 8.45554 341.084C10.0846 339.455 11.6397 337.9 13.1947 336.345C13.2687 336.271 13.4168 336.197 13.4909 336.123C13.4909 336.419 13.4909 336.641 13.4909 336.937C13.3428 337.086 13.2687 337.16 13.1947 337.234C11.3435 339.085 9.49223 340.936 7.641 342.787C5.86382 344.565 4.16069 346.268 2.38351 348.045C2.30946 348.119 2.23541 348.267 2.16136 348.267C3.04995 349.156 3.93854 350.044 4.82713 350.933C4.90118 350.785 4.97523 350.711 5.04928 350.563C7.7891 347.823 10.4549 345.083 13.1947 342.417C13.2687 342.343 13.4168 342.269 13.4909 342.195C13.4909 342.491 13.4909 342.787 13.4909 343.084C13.4168 343.158 13.3428 343.232 13.2687 343.306C10.677 345.897 8.01125 348.563 5.41953 351.155C5.34548 351.229 5.27143 351.303 5.19738 351.377C6.08597 352.266 6.97456 353.154 7.7891 353.969C7.86315 353.895 7.9372 353.821 8.0853 353.747C9.78843 352.043 11.4916 350.34 13.1947 348.637C13.2687 348.563 13.4168 348.489 13.4909 348.415C13.4909 348.711 13.4909 349.007 13.4909 349.304C13.4168 349.378 13.3428 349.452 13.2687 349.452C11.6397 351.081 10.0106 352.71 8.38149 354.339C8.30744 354.413 8.2334 354.487 8.2334 354.487C9.12199 355.376 10.0106 356.264 10.8251 357.079C11.4175 356.486 12.158 355.746 12.8244 355.08C13.0466 354.857 13.1947 354.709 13.4168 354.561C13.4168 354.857 13.4168 355.08 13.4168 355.376C12.6763 356.116 11.9359 356.857 11.2694 357.523C12.0099 358.264 12.7504 359.004 13.4168 359.745C13.4168 360.041 13.4168 360.263 13.4168 360.559C13.3428 360.485 13.1947 360.411 13.1206 360.337C12.4542 359.671 11.7878 359.004 11.1213 358.338C11.0473 358.264 10.9732 358.19 10.8251 358.116C10.8251 358.338 10.8251 358.486 10.8251 358.634C10.8251 363.003 10.8251 367.372 10.8251 371.741C10.8251 375.073 10.8251 378.405 10.8251 381.811C10.8251 381.959 10.8251 382.182 10.9732 382.33C11.7878 383.144 12.6023 383.959 13.4168 384.773C13.4168 385.292 13.4168 385.81 13.4168 386.328C12.6763 387.069 12.0099 387.809 11.2694 388.624C11.9359 389.29 12.6763 390.031 13.4168 390.771C13.4168 391.067 13.4168 391.29 13.4168 391.586C12.8985 391.067 12.3801 390.623 11.8618 390.105C11.4916 389.735 11.1213 389.364 10.8251 389.068C9.93653 389.957 9.04794 390.845 8.2334 391.66C8.2334 391.66 8.30744 391.734 8.38149 391.808C10.0106 393.437 11.6397 395.066 13.2687 396.695C13.3428 396.769 13.4168 396.769 13.4909 396.843C13.4909 397.139 13.4909 397.436 13.4909 397.732C13.4168 397.658 13.2687 397.584 13.1947 397.51C11.4916 395.807 9.78843 394.103 8.0853 392.4C7.9372 392.252 7.9372 392.178 7.86315 392.104C6.90051 393.067 6.08597 393.955 5.19738 394.77C5.19738 394.77 5.27143 394.844 5.34548 394.918C8.01125 397.584 10.677 400.249 13.2687 402.841C13.3428 402.915 13.4168 402.989 13.4909 402.989C13.4909 403.286 13.4909 403.582 13.4909 403.878C13.3428 403.73 13.2687 403.656 13.1947 403.582C10.4549 400.842 7.7891 398.176 5.04928 395.436C4.90118 395.288 4.82713 395.214 4.82713 395.214C3.93854 396.103 3.04995 396.991 2.23541 397.806C2.30946 397.88 2.38351 397.954 2.45756 398.028C5.19738 400.768 7.86315 403.434 10.603 406.173C11.5656 407.136 12.6023 408.173 13.5649 409.135C13.5649 409.432 13.5649 409.654 13.5649 409.95C13.4909 409.876 13.3428 409.802 13.2687 409.728C11.6397 408.099 10.0846 406.544 8.45554 404.915C8.38149 404.841 8.30744 404.692 8.30744 404.544C8.30744 404.544 8.2334 404.618 8.15935 404.692C8.15935 408.247 8.15935 411.727 8.15935 415.282H8.2334C8.30744 415.207 8.38149 415.133 8.45554 415.059C10.0846 413.43 11.6397 411.875 13.1947 410.32C13.2687 410.246 13.4168 410.172 13.4909 410.098C13.4909 410.394 13.4909 410.616 13.4909 410.913C13.3428 411.061 13.2687 411.135 13.1947 411.209C11.3435 413.06 9.49223 414.911 7.641 416.762C5.86382 418.54 4.16069 420.243 2.38351 422.02C2.30946 422.094 2.23541 422.242 2.16136 422.242C3.04995 423.131 3.93854 424.019 4.82713 424.908C4.90118 424.76 4.97523 424.686 5.04928 424.538C7.7891 421.798 10.4549 419.058 13.1947 416.392C13.2687 416.318 13.4168 416.244 13.4909 416.17C13.4909 416.466 13.4909 416.762 13.4909 417.059C13.4168 417.133 13.3428 417.207 13.2687 417.281C10.677 419.873 8.01125 422.538 5.41953 425.13C5.34548 425.204 5.27143 425.278 5.19738 425.352C6.08597 426.241 6.97456 427.129 7.7891 427.944C7.86315 427.87 7.9372 427.796 8.0853 427.722C9.78843 426.019 11.4916 424.315 13.1947 422.612C13.2687 422.538 13.4168 422.464 13.4909 422.39C13.4909 422.686 13.4909 422.983 13.4909 423.279C13.4168 423.353 13.3428 423.427 13.2687 423.427C11.6397 425.056 10.0106 426.685 8.38149 428.314C8.30744 428.388 8.2334 428.462 8.2334 428.462C9.12199 429.351 10.0106 430.239 10.8251 431.054C11.4175 430.462 12.158 429.721 12.8244 429.055C13.0466 428.832 13.1947 428.684 13.4168 428.536C13.4168 428.832 13.4168 429.055 13.4168 429.351C12.6763 430.091 11.9359 430.832 11.2694 431.498C12.0099 432.239 12.7504 432.979 13.4168 433.72C13.4168 434.016 13.4168 434.238 13.4168 434.534C13.3428 434.46 13.1947 434.386 13.1206 434.312C12.4542 433.646 11.7878 432.979 11.1213 432.313C11.0473 432.239 10.9732 432.165 10.8251 432.091C10.8251 432.313 10.8251 432.461 10.8251 432.609C10.8251 436.978 10.8251 441.347 10.8251 445.716C10.8251 449.048 10.8251 452.38 10.8251 455.786C10.8251 455.934 10.8251 456.157 10.9732 456.305C11.7878 457.119 12.6023 457.934 13.4168 458.748C13.4168 459.267 13.4168 459.785 13.4168 460.303C12.6763 461.044 12.0099 461.784 11.2694 462.599C11.9359 463.265 12.6763 464.006 13.4168 464.746C13.4168 465.043 13.4168 465.265 13.4168 465.561C12.8985 465.043 12.3801 464.598 11.8618 464.08C11.4916 463.71 11.1213 463.339 10.8251 463.043C9.93653 463.932 9.04794 464.82 8.2334 465.635C8.2334 465.635 8.30744 465.709 8.38149 465.783C10.0106 467.412 11.6397 469.041 13.2687 470.67C13.3428 470.744 13.4168 470.744 13.4909 470.818C13.4909 471.115 13.4909 471.411 13.4909 471.707C13.4168 471.633 13.2687 471.559 13.1947 471.485C11.4916 469.782 9.78843 468.079 8.0853 466.375C7.9372 466.227 7.9372 466.153 7.86315 466.079C6.90051 467.042 6.08597 467.93 5.19738 468.745C5.19738 468.745 5.27143 468.819 5.34548 468.893C8.01125 471.559 10.677 474.225 13.2687 476.816C13.3428 476.89 13.4168 476.964 13.4909 476.964C13.4909 477.261 13.4909 477.557 13.4909 477.853C13.3428 477.705 13.2687 477.631 13.1947 477.557C10.4549 474.817 7.7891 472.151 5.04928 469.411C4.90118 469.263 4.82713 469.189 4.82713 469.189C3.93854 470.078 3.04995 470.966 2.23541 471.781C2.30946 471.855 2.38351 471.929 2.45756 472.003C5.19738 474.743 7.86315 477.409 10.603 480.149C11.5656 481.111 12.6023 482.148 13.5649 483.111C13.5649 483.407 13.5649 483.629 13.5649 483.925C13.4909 483.851 13.3428 483.777 13.2687 483.703C11.6397 482.074 10.0846 480.519 8.45554 478.89C8.38149 478.816 8.30744 478.668 8.30744 478.519C8.30744 478.519 8.2334 478.594 8.15935 478.668C8.15935 482.222 8.15935 485.702 8.15935 489.331C8.30744 489.183 8.38149 489.109 8.45554 489.034C10.0846 487.405 11.6397 485.85 13.1947 484.295C13.2687 484.221 13.4168 484.147 13.4909 484.073C13.4909 484.369 13.4909 484.592 13.4909 484.888C13.3428 485.036 13.2687 485.11 13.1947 485.184C11.3435 487.035 9.49223 488.886 7.641 490.738C5.86382 492.515 4.16069 494.218 2.38351 495.995C2.30946 496.069 2.23541 496.217 2.16136 496.217C3.04995 497.106 3.93854 497.994 4.82713 498.883C4.90118 498.735 4.97523 498.661 5.04928 498.513C7.7891 495.773 10.4549 493.033 13.1947 490.367C13.2687 490.293 13.4168 490.219 13.4909 490.145C13.4909 490.441 13.4909 490.738 13.4909 491.034C13.4168 491.108 13.3428 491.182 13.2687 491.256C10.677 493.848 8.01125 496.513 5.41953 499.105C5.34548 499.179 5.27143 499.253 5.19738 499.327C6.08597 500.216 6.97456 501.105 7.7891 501.919C7.86315 501.845 7.9372 501.771 8.0853 501.697C9.78843 499.994 11.4916 498.291 13.1947 496.588C13.2687 496.513 13.4168 496.439 13.4909 496.365C13.4909 496.662 13.4909 496.958 13.4909 497.254C13.4168 497.328 13.3428 497.402 13.2687 497.402C11.6397 499.031 10.0106 500.66 8.38149 502.289C8.30744 502.363 8.2334 502.437 8.2334 502.437C9.12199 503.326 10.0106 504.215 10.8251 505.029C11.4916 504.363 12.158 503.696 12.8244 503.03C13.0466 502.808 13.1947 502.66 13.4168 502.511C13.4168 502.808 13.4168 503.03 13.4168 503.326C12.6763 504.066 11.9359 504.807 11.2694 505.473C12.0099 506.214 12.7504 506.954 13.4168 507.695C13.4168 507.991 13.4168 508.213 13.4168 508.509C13.3428 508.435 13.1947 508.361 13.1206 508.287C12.4542 507.621 11.7878 506.954 11.1213 506.288C11.0473 506.214 10.9732 506.14 10.8251 506.066C10.8251 506.288 10.8251 506.436 10.8251 506.584C10.8251 510.953 10.8251 515.322 10.8251 519.691C10.8251 523.023 10.8251 526.355 10.8251 529.762C10.8251 529.91 10.8251 530.132 10.9732 530.28C11.7878 531.094 12.6023 531.909 13.4168 532.723C13.4168 533.242 13.4168 533.76 13.4168 534.279C12.6763 535.019 12.0099 535.76 11.2694 536.574C11.9359 537.241 12.6763 537.981 13.4168 538.721C13.4168 539.018 13.4168 539.24 13.4168 539.536C12.8985 539.018 12.3801 538.573 11.8618 538.055C11.4916 537.685 11.1213 537.315 10.8251 537.018C9.93653 537.907 9.04794 538.796 8.2334 539.61C8.2334 539.61 8.30744 539.684 8.38149 539.758C10.0106 541.387 11.6397 543.016 13.2687 544.645C13.3428 544.719 13.4168 544.719 13.4909 544.794C13.4909 545.09 13.4909 545.386 13.4909 545.682C13.4168 545.608 13.2687 545.534 13.1947 545.46C11.4916 543.757 9.78843 542.054 8.0853 540.351C7.9372 540.202 7.9372 540.128 7.86315 540.054C6.90051 541.017 6.08597 541.906 5.19738 542.72C5.19738 542.72 5.27143 542.794 5.34548 542.868C8.01125 545.534 10.677 548.2 13.2687 550.792C13.3428 550.866 13.4168 550.94 13.4909 550.94C13.4909 551.236 13.4909 551.532 13.4909 551.828C13.3428 551.68 13.2687 551.606 13.1947 551.532C10.4549 548.792 7.7891 546.126 5.04928 543.387C4.90118 543.238 4.82713 543.164 4.82713 543.164C3.93854 544.053 3.04995 544.942 2.23541 545.756C2.30946 545.83 2.38351 545.904 2.45756 545.978C5.19738 548.718 7.86315 551.384 10.603 554.124C11.5656 555.086 12.6023 556.123 13.5649 557.086C13.5649 557.382 13.5649 557.604 13.5649 557.9C13.4909 557.826 13.3428 557.752 13.2687 557.678C11.6397 556.049 10.0846 554.494 8.45554 552.865C8.38149 552.791 8.30744 552.643 8.30744 552.495C8.30744 552.495 8.2334 552.569 8.15935 552.643C8.15935 556.197 8.15935 559.677 8.15935 563.232C8.15935 563.232 8.2334 563.232 8.2334 563.306C8.30744 563.232 8.38149 563.084 8.45554 563.01C10.0846 561.381 11.6397 559.825 13.1947 558.27C13.2687 558.196 13.4168 558.122 13.4909 558.048C13.4909 558.345 13.4909 558.567 13.4909 558.863C13.3428 559.011 13.2687 559.085 13.1947 559.159C11.3435 561.01 9.49223 562.862 7.641 564.713C5.86382 566.49 4.16069 568.193 2.38351 569.97C2.30946 570.044 2.23541 570.192 2.16136 570.192C3.04995 571.081 3.93854 571.97 4.82713 572.858C4.90118 572.71 4.97523 572.636 5.04928 572.488C7.7891 569.748 10.4549 567.008 13.1947 564.343C13.2687 564.268 13.4168 564.194 13.4909 564.12C13.4909 564.417 13.4909 564.713 13.4909 565.009C13.4168 565.083 13.3428 565.157 13.2687 565.231C10.677 567.823 8.01125 570.489 5.41953 573.08C5.34548 573.154 5.27143 573.228 5.19738 573.302C6.08597 574.191 6.97456 575.08 7.7891 575.894C7.86315 575.82 7.9372 575.746 8.0853 575.672C9.78843 573.969 11.4916 572.266 13.1947 570.563C13.2687 570.489 13.4168 570.415 13.4909 570.34C13.4909 570.637 13.4909 570.933 13.4909 571.229C13.4168 571.303 13.3428 571.377 13.2687 571.377C11.6397 573.006 10.0106 574.635 8.38149 576.264C8.30744 576.338 8.2334 576.413 8.2334 576.413C9.12199 577.301 10.0106 578.19 10.8251 579.004C11.4916 578.338 12.158 577.671 12.8244 577.005C13.0466 576.783 13.1947 576.635 13.4168 576.487C13.4168 576.783 13.4168 577.005 13.4168 577.301C12.6763 578.042 11.9359 578.782 11.2694 579.449C12.0099 580.189 12.7504 580.929 13.4168 581.67C13.4168 581.966 13.4168 582.188 13.4168 582.485C13.3428 582.411 13.1947 582.336 13.1206 582.262C12.4542 581.596 11.7878 580.93 11.1213 580.263C11.0473 580.189 10.9732 580.115 10.8251 580.041C10.8251 580.263 10.8251 580.411 10.8251 580.559C10.8251 584.928 10.8251 589.297 10.8251 593.666C10.8251 596.998 10.8251 600.33 10.8251 603.737C10.8251 603.885 10.8251 604.107 10.9732 604.255C11.7878 605.07 12.6023 605.884 13.4168 606.699C13.4168 607.217 13.4168 607.735 13.4168 608.254C12.6763 608.994 12.0099 609.735 11.2694 610.549C11.9359 611.216 12.6763 611.956 13.4168 612.697C13.4168 612.993 13.4168 613.215 13.4168 613.511C12.8985 612.993 12.3801 612.548 11.8618 612.03C11.4916 611.66 11.1213 611.29 10.8251 610.993C9.93653 611.882 9.04794 612.771 8.2334 613.585C8.2334 613.585 8.30744 613.659 8.38149 613.733C10.0106 615.362 11.6397 616.991 13.2687 618.621C13.3428 618.695 13.4168 618.695 13.4909 618.769C13.4909 619.065 13.4909 619.361 13.4909 619.657C13.4168 619.583 13.2687 619.509 13.1947 619.435C11.4916 617.732 9.78843 616.029 8.0853 614.326C7.9372 614.178 7.9372 614.104 7.86315 614.029C6.90051 614.992 6.08597 615.881 5.19738 616.695C5.19738 616.695 5.27143 616.769 5.34548 616.843C8.01125 619.509 10.677 622.175 13.2687 624.767C13.3428 624.841 13.4168 624.915 13.4909 624.915C13.4909 625.211 13.4909 625.507 13.4909 625.803C13.3428 625.655 13.2687 625.581 13.1947 625.507C10.4549 622.767 7.7891 620.102 5.04928 617.362C4.90118 617.214 4.90118 617.14 4.82713 617.066C3.86449 618.028 3.04995 618.843 2.08731 619.805C2.16136 619.879 2.23541 619.953 2.30946 620.027C4.23474 621.953 6.16002 623.878 8.01125 625.729C8.0853 625.803 8.15935 625.951 8.2334 626.025C7.9372 626.025 7.641 626.025 7.34481 626.025C7.27076 625.951 7.19671 625.803 7.12266 625.729C6.53026 625.137 5.93787 624.544 5.34548 623.952C5.27143 623.804 5.19738 623.73 5.12333 623.582C5.04928 623.582 4.97523 623.656 4.97523 623.73C4.97523 624.47 4.97523 625.285 4.97523 626.099C4.75308 626.099 4.60499 626.099 4.38284 626.099C4.38284 625.137 4.38284 624.248 4.38284 623.286C4.38284 623.138 4.30879 622.915 4.23474 622.841C3.49425 622.101 2.82781 621.36 2.08731 620.694C1.93922 619.361 1.93921 619.361 1.79112 619.287C1.79112 619.509 1.79112 619.583 1.79112 619.731C1.79112 621.434 1.79112 623.138 1.79112 624.841C1.49492 624.841 1.19872 624.841 0.902527 624.841C0.902527 624.544 0.902527 624.248 0.902527 623.878C0.976576 623.878 1.05062 623.952 1.12467 624.026C1.12467 622.397 1.12467 620.768 1.12467 619.139C0.976576 619.139 0.976576 619.213 0.902527 619.287C0.902527 618.769 0.902527 618.324 0.902527 617.806C1.05062 617.954 1.19872 618.102 1.34682 618.176C2.23541 617.288 3.124 616.399 3.93854 615.585C2.9759 614.622 1.93921 613.585 0.976576 612.474C0.976576 612.178 0.976576 611.956 0.976576 611.66C1.05062 611.734 1.19872 611.808 1.27277 611.882C2.23541 612.845 3.2721 613.881 4.23474 614.844C4.30879 614.918 4.38284 614.992 4.45689 615.066C5.34548 614.178 6.23407 613.289 7.12266 612.4C6.90051 612.178 6.60431 611.956 6.38217 611.734C4.60499 609.957 2.75376 608.106 0.976576 606.328C0.976576 606.032 0.976576 605.81 0.976576 605.514C1.12467 605.588 1.19872 605.662 1.27277 605.736C3.2721 607.735 5.27143 609.735 7.34481 611.808C7.41885 611.882 7.4929 611.956 7.56695 612.03C8.45554 611.142 9.34413 610.253 10.2327 609.364C7.19671 606.328 4.08664 603.292 1.05062 600.182C1.05062 599.886 1.05062 599.664 1.05062 599.368C1.19872 599.442 1.27277 599.516 1.42087 599.664C4.45689 602.7 7.4929 605.736 10.5289 608.772C10.603 608.846 10.7511 608.92 10.7511 608.994C11.6397 608.106 12.5282 607.217 13.3428 606.402C9.41818 602.478 5.41953 598.479 1.42087 594.481C1.34682 594.555 1.19872 594.629 1.12467 594.703C1.12467 594.406 1.12467 594.184 1.12467 593.888C1.12467 593.814 1.19872 593.666 1.19872 593.592C1.19872 591.963 1.19872 590.334 1.19872 588.779C1.19872 588.705 1.19872 588.557 1.12467 588.483C1.12467 587.964 1.12467 587.446 1.12467 586.928C1.27277 587.076 1.34682 587.15 1.49492 587.224C4.45689 584.262 7.41885 581.3 10.3068 578.412C9.49223 577.523 8.60364 576.709 7.71505 575.82C5.71572 577.819 3.64235 579.893 1.56897 582.04C1.42087 581.892 1.34682 581.818 1.19872 581.744C1.19872 581.448 1.19872 581.226 1.19872 580.929C1.34682 581.004 1.42087 581.078 1.56897 581.152C3.49425 579.226 5.41953 577.301 7.27076 575.45C6.38217 574.561 5.56762 573.747 4.67903 572.858C3.7164 573.821 2.60566 574.932 1.56897 575.968C1.42087 575.894 1.34682 575.82 1.19872 575.746C1.19872 575.45 1.19872 575.154 1.19872 574.857C1.34682 574.932 1.42087 575.08 1.56897 575.08C2.45756 574.191 3.34615 573.302 4.23474 572.414C3.4202 571.599 2.53161 570.711 1.64302 569.822C1.49492 569.97 1.42087 570.044 1.27277 570.192C1.27277 569.674 1.27277 569.156 1.27277 568.637C1.34682 568.711 1.42087 568.711 1.56897 568.785C1.56897 568.563 1.56897 568.489 1.56897 568.341C1.56897 566.86 1.56897 565.305 1.56897 563.824C1.56897 563.602 1.49492 563.454 1.27277 563.306C1.27277 563.01 1.27277 562.787 1.27277 562.491C1.34682 562.491 1.42087 562.565 1.56897 562.639C1.56897 562.491 1.56897 562.343 1.56897 562.269C1.56897 560.788 1.56897 559.307 1.56897 557.826C1.56897 557.604 1.56897 557.382 1.27277 557.234C1.27277 556.938 1.27277 556.715 1.27277 556.419C1.34682 556.419 1.42087 556.493 1.56897 556.567C1.56897 556.419 1.56897 556.271 1.56897 556.123C1.56897 554.642 1.56897 553.161 1.56897 551.68C1.56897 551.458 1.56897 551.162 1.27277 551.088C1.27277 550.791 1.27277 550.569 1.27277 550.273C1.34682 550.273 1.42087 550.347 1.49492 550.421C1.49492 548.792 1.49492 547.163 1.49492 545.534C1.34682 545.534 1.34682 545.608 1.27277 545.682C1.27277 545.164 1.27277 544.719 1.27277 544.201C1.42087 544.349 1.56897 544.497 1.71707 544.571C2.60566 543.683 3.49425 542.794 4.30879 541.98C3.34615 541.017 2.30946 539.98 1.34682 538.87C1.34682 538.573 1.34682 538.351 1.34682 538.055C1.42087 538.129 1.56897 538.203 1.64302 538.277C2.60566 539.24 3.64235 540.277 4.60499 541.239C4.67903 541.313 4.75308 541.387 4.82713 541.461C5.71572 540.573 6.60431 539.684 7.4929 538.796C7.27076 538.573 6.97456 538.351 6.75241 538.129C4.97523 536.352 3.124 534.501 1.34682 532.723C1.34682 532.427 1.34682 532.205 1.34682 531.909C1.49492 531.983 1.56897 532.057 1.64302 532.131C3.64235 534.13 5.64167 536.13 7.71505 538.203C7.7891 538.277 7.86315 538.351 7.9372 538.425C8.82579 537.537 9.71438 536.648 10.603 535.834C7.56695 532.798 4.45689 529.762 1.42087 526.651C1.42087 526.355 1.42087 526.133 1.42087 525.837C1.56897 525.911 1.64302 525.985 1.79112 526.133C4.82713 529.169 7.86315 532.205 10.8992 535.241C10.9732 535.315 11.1213 535.389 11.1213 535.463C12.0099 534.575 12.8985 533.686 13.713 532.872C9.19603 528.577 5.19738 524.578 1.19872 520.653C1.12467 520.728 0.976576 520.802 0.902527 520.876C0.902527 520.579 0.902527 520.357 0.902527 520.061C0.902527 519.987 0.976576 519.839 0.976576 519.765C0.976576 518.136 0.976576 516.507 0.976576 514.952C0.976576 514.878 0.976576 514.73 0.902527 514.655C0.902527 514.137 0.902527 513.619 0.902527 513.1C1.05062 513.249 1.12467 513.323 1.27277 513.397C4.23474 510.435 7.19671 507.473 10.0846 504.585C9.19603 503.696 8.38149 502.882 7.4929 501.993C5.49358 503.992 3.4202 506.066 1.34682 508.213C0.458231 507.843 0.310133 507.695 0.236084 507.621ZM1.12467 568.341C1.19872 568.341 1.19872 568.341 1.27277 568.267C2.01326 567.527 2.75376 566.786 3.49425 566.046C3.5683 565.972 3.64235 565.823 3.64235 565.675C3.64235 559.825 3.64235 553.976 3.64235 548.052C3.64235 547.904 3.5683 547.755 3.49425 547.681C2.75376 546.941 2.01326 546.2 1.27277 545.46C1.27277 545.46 1.19872 545.46 1.12467 545.386C1.12467 553.013 1.12467 560.64 1.12467 568.341ZM1.12467 323.609C1.12467 331.31 1.12467 338.937 1.12467 346.638C1.19872 346.638 1.27277 346.564 1.27277 346.564C2.01326 345.823 2.75376 345.083 3.49425 344.342C3.5683 344.268 3.64235 344.12 3.64235 343.972C3.64235 338.122 3.64235 332.272 3.64235 326.422C3.64235 326.274 3.64235 326.2 3.5683 326.052C2.75376 325.238 2.01326 324.497 1.12467 323.609ZM1.12467 494.44C1.19872 494.44 1.27277 494.366 1.27277 494.366C2.01326 493.626 2.75376 492.885 3.49425 492.145C3.5683 492.071 3.64235 491.922 3.64235 491.774C3.64235 485.924 3.64235 480.075 3.64235 474.225C3.64235 474.077 3.5683 473.854 3.4202 473.706C2.75376 472.966 2.08731 472.299 1.34682 471.633C1.27277 471.559 1.19872 471.485 1.12467 471.485C1.12467 479.112 1.12467 486.739 1.12467 494.44ZM1.12467 397.51C1.12467 405.211 1.12467 412.838 1.12467 420.539C1.19872 420.539 1.19872 420.539 1.27277 420.465C2.01326 419.724 2.75376 418.984 3.5683 418.169C3.64235 418.095 3.7164 417.947 3.7164 417.799C3.7164 411.949 3.7164 406.099 3.7164 400.249C3.7164 400.101 3.7164 400.027 3.64235 399.879C2.75376 399.139 2.01326 398.398 1.12467 397.51ZM9.49223 579.152C8.75174 579.893 8.01125 580.633 7.27076 581.374C7.12266 581.522 7.04861 581.744 7.04861 581.892C7.04861 587.816 7.04861 593.666 7.04861 599.59C7.04861 599.738 7.12266 599.96 7.27076 600.108C7.9372 600.775 8.60364 601.441 9.27008 602.108C9.34413 602.182 9.41818 602.256 9.49223 602.33C9.49223 594.555 9.49223 586.853 9.49223 579.152ZM9.49223 380.626C9.49223 372.851 9.49223 365.224 9.49223 357.449C8.75174 358.19 8.0853 358.856 7.34481 359.597C7.12266 359.819 7.04861 360.041 7.04861 360.337C7.04861 366.039 7.04861 371.815 7.04861 377.516C7.04861 378.035 7.19671 378.405 7.56695 378.775C8.2334 379.294 8.82579 379.96 9.49223 380.626ZM9.41818 454.528C9.41818 446.752 9.41818 439.125 9.41818 431.35C8.67769 432.091 8.01125 432.757 7.27076 433.498C7.04861 433.72 6.97456 433.942 6.97456 434.238C6.97456 439.644 6.97456 445.123 6.97456 450.529C6.97456 451.047 6.82646 451.64 7.04861 452.084C7.27076 452.528 7.71505 452.824 8.0853 453.195C8.60364 453.639 8.97389 454.083 9.41818 454.528ZM9.49223 505.251C8.75174 505.992 8.15935 506.658 7.41885 507.325C7.12266 507.547 7.04861 507.843 7.04861 508.213C7.04861 509.62 7.04861 511.101 7.04861 512.508C7.04861 516.877 7.04861 521.246 7.04861 525.541C7.04861 525.837 7.12266 526.059 7.34481 526.207C7.86315 526.726 8.45554 527.318 8.97389 527.836C9.12199 527.984 9.27008 528.206 9.41818 528.355L9.49223 528.281C9.49223 520.653 9.49223 512.952 9.49223 505.251ZM6.30812 451.418L6.38217 451.343C6.38217 445.716 6.38217 440.088 6.38217 434.46C6.30812 434.46 6.30812 434.46 6.23407 434.534C5.49358 435.275 4.75308 436.015 4.08664 436.682C4.01259 436.756 4.01259 436.978 4.01259 437.052C4.01259 440.903 4.01259 444.827 4.01259 448.678C4.01259 448.826 4.08664 449.048 4.23474 449.196C4.75308 449.788 5.34548 450.307 5.86382 450.825C6.01192 451.047 6.16002 451.269 6.30812 451.418ZM6.38217 377.59C6.38217 371.889 6.38217 366.261 6.38217 360.559C6.23407 360.707 6.16002 360.707 6.08597 360.781C5.49358 361.374 4.90118 361.966 4.30879 362.558C4.08664 362.781 3.93854 363.077 3.93854 363.373C3.93854 367.001 3.93854 370.556 3.93854 374.11C3.93854 374.851 4.08664 375.369 4.67903 375.813C5.27143 376.406 5.78977 376.924 6.38217 377.59ZM6.30812 525.319C6.30812 525.319 6.38217 525.245 6.45622 525.245C6.45622 519.617 6.45622 513.989 6.45622 508.361C6.38217 508.361 6.38217 508.361 6.30812 508.435C5.56763 509.176 4.82713 509.916 4.16069 510.583C4.01259 510.731 4.01259 510.879 4.01259 510.953C4.01259 514.878 4.01259 518.728 4.01259 522.653C4.01259 522.801 4.08664 522.949 4.23474 523.097C4.67903 523.615 5.12333 523.986 5.56762 524.504C5.78977 524.8 6.08597 525.022 6.30812 525.319ZM6.38217 582.262C6.30812 582.262 6.30812 582.262 6.23407 582.336C5.49358 583.077 4.75308 583.817 4.08664 584.484C4.01259 584.558 4.01259 584.78 4.01259 584.854C4.01259 588.705 4.01259 592.629 4.01259 596.48C4.01259 596.628 4.08664 596.85 4.23474 596.998C4.75308 597.591 5.34548 598.109 5.86382 598.627C6.01192 598.775 6.16002 598.998 6.38217 599.22L6.45622 599.146C6.38217 593.518 6.38217 587.89 6.38217 582.262ZM4.30879 474.521C4.30879 480.149 4.30879 485.702 4.30879 491.33C5.04928 490.589 5.78977 489.849 6.53026 489.109C6.60431 489.034 6.67836 488.886 6.67836 488.738C6.67836 484.888 6.67836 481.037 6.67836 477.187C6.67836 477.039 6.67836 476.964 6.53026 476.816C5.78977 476.076 5.12333 475.335 4.30879 474.521ZM4.30879 400.694C4.30879 406.322 4.30879 411.875 4.30879 417.429C5.04928 416.688 5.78977 415.948 6.53026 415.207C6.60431 415.133 6.67836 414.985 6.67836 414.837C6.67836 410.987 6.67836 407.136 6.67836 403.286C6.67836 403.137 6.67836 403.063 6.53026 402.915C5.78977 402.175 5.04928 401.434 4.30879 400.694ZM4.23474 565.231C4.30879 565.157 4.38284 565.157 4.38284 565.083C5.04928 564.417 5.78977 563.75 6.45622 563.01C6.53026 562.936 6.60431 562.713 6.60431 562.565C6.60431 558.715 6.60431 554.938 6.60431 551.088C6.60431 550.94 6.53026 550.717 6.38217 550.569C5.78977 549.903 5.12333 549.311 4.45689 548.644C4.38284 548.57 4.30879 548.496 4.23474 548.496C4.23474 554.05 4.23474 559.603 4.23474 565.231ZM4.30879 343.528C5.12333 342.713 5.86382 342.047 6.53026 341.306C6.60431 341.232 6.67836 341.084 6.67836 340.936C6.67836 337.086 6.67836 333.235 6.67836 329.458C6.67836 329.31 6.60431 329.088 6.45622 328.94C5.93787 328.422 5.41953 327.903 4.82713 327.311C4.67903 327.163 4.53094 326.941 4.38284 326.793L4.30879 326.867C4.30879 332.42 4.30879 337.9 4.30879 343.528ZM3.34615 511.397C3.19805 511.545 3.124 511.545 3.124 511.619C2.45756 512.286 1.79112 512.878 1.19872 513.619C1.05062 513.767 0.976576 513.989 0.976576 514.137C0.976576 515.988 0.976576 517.766 0.976576 519.617C0.976576 519.765 1.05062 519.987 1.19872 520.135C1.79112 520.802 2.53161 521.468 3.124 522.134C3.19805 522.209 3.2721 522.283 3.34615 522.357C3.34615 518.58 3.34615 515.026 3.34615 511.397ZM3.34615 448.381C3.34615 444.753 3.34615 441.199 3.34615 437.57C3.2721 437.644 3.19805 437.644 3.19805 437.718C2.45756 438.459 1.79112 439.125 1.05062 439.866C0.976576 439.94 0.902527 440.088 0.902527 440.236C0.902527 442.087 0.902527 443.939 0.902527 445.716C0.902527 445.864 0.976576 446.086 1.12467 446.16C1.71707 446.826 2.38351 447.419 3.04995 448.085C3.124 448.159 3.19805 448.233 3.34615 448.381ZM3.34615 363.669C3.2721 363.669 3.19805 363.743 3.19805 363.743C2.45756 364.484 1.71707 365.224 1.05062 365.891C0.976576 365.965 0.902527 366.113 0.902527 366.261C0.902527 368.112 0.902527 369.889 0.902527 371.741C0.902527 371.889 0.976576 372.111 1.12467 372.259C1.79112 372.925 2.45756 373.592 3.124 374.258C3.19805 374.332 3.2721 374.406 3.34615 374.406C3.34615 370.852 3.34615 367.298 3.34615 363.669ZM3.34615 596.11C3.34615 592.481 3.34615 588.927 3.34615 585.298C3.2721 585.372 3.19805 585.372 3.19805 585.447C2.45756 586.187 1.79112 586.853 1.05062 587.594C0.976576 587.668 0.902527 587.816 0.902527 587.964C0.902527 589.815 0.902527 591.667 0.902527 593.444C0.902527 593.592 0.976576 593.814 1.12467 593.888C1.71707 594.555 2.38351 595.147 3.04995 595.813C3.124 595.887 3.19805 595.961 3.34615 596.11Z" fill="#E4C590"/>
</g>
<defs>
<clipPath id="clip0_97_77">
<rect width="12.8846" height="623.42" fill="white" transform="translate(0.310059 0.310059)"/>
</clipPath>
</defs>
</svg>
