<svg width="21" height="20" viewBox="0 0 21 20" fill="none" xmlns="http://www.w3.org/2000/svg">
<g clip-path="url(#clip0_97_96)">
<path fill-rule="evenodd" clip-rule="evenodd" d="M8.68359 0.833333C8.68359 0.61232 8.77139 0.400358 8.92767 0.244078C9.08395 0.0877974 9.29591 0 9.51693 0C9.73794 0 9.9499 0.0877974 10.1062 0.244078C10.2625 0.400358 10.3503 0.61232 10.3503 0.833333V5C10.3493 5.6892 10.1352 6.36123 9.73728 6.92397C9.33939 7.48671 8.7772 7.91263 8.12776 8.14333C8.04663 8.17208 7.97639 8.22525 7.9267 8.29553C7.87701 8.36581 7.85031 8.44976 7.85026 8.53583V19.1667C7.85026 19.3877 7.76246 19.5996 7.60618 19.7559C7.4499 19.9122 7.23794 20 7.01693 20C6.79591 20 6.58395 19.9122 6.42767 19.7559C6.27139 19.5996 6.18359 19.3877 6.18359 19.1667V8.53583C6.18354 8.44976 6.15684 8.36581 6.10715 8.29553C6.05746 8.22525 5.98722 8.17208 5.90609 8.14333C5.25666 7.91263 4.69446 7.48671 4.29657 6.92397C3.89869 6.36123 3.68458 5.6892 3.68359 5V0.833333C3.68359 0.61232 3.77139 0.400358 3.92767 0.244078C4.08395 0.0877974 4.29591 0 4.51693 0C4.73794 0 4.9499 0.0877974 5.10618 0.244078C5.26246 0.400358 5.35026 0.61232 5.35026 0.833333V5C5.35026 5.435 5.52109 5.85417 5.82609 6.165C5.8552 6.19428 5.89232 6.21429 5.93277 6.22251C5.97323 6.23073 6.01521 6.2268 6.05344 6.21121C6.09166 6.19561 6.12442 6.16906 6.14758 6.13489C6.17074 6.10071 6.18327 6.06045 6.18359 6.01917V0.833333C6.18359 0.61232 6.27139 0.400358 6.42767 0.244078C6.58395 0.0877974 6.79591 0 7.01693 0C7.23794 0 7.4499 0.0877974 7.60618 0.244078C7.76246 0.400358 7.85026 0.61232 7.85026 0.833333V6.02083C7.85058 6.06211 7.86311 6.10238 7.88627 6.13655C7.90944 6.17073 7.94219 6.19728 7.98042 6.21287C8.01864 6.22847 8.06063 6.2324 8.10108 6.22418C8.14154 6.21595 8.17866 6.19594 8.20776 6.16667C8.51359 5.855 8.68443 5.43583 8.68359 5V0.833333ZM17.4336 0.625C17.4336 0.45924 17.3677 0.300268 17.2505 0.183058C17.1333 0.065848 16.9744 0 16.8086 0C14.8653 0 12.9036 5.04583 12.8503 11.0358V11.0533C12.8536 11.625 13.3194 12.0867 13.8919 12.0833H15.3503C15.4608 12.0833 15.5667 12.1272 15.6449 12.2054C15.723 12.2835 15.7669 12.3895 15.7669 12.5V19.1667C15.7669 19.3877 15.8547 19.5996 16.011 19.7559C16.1673 19.9122 16.3792 20 16.6003 20C16.8213 20 17.0332 19.9122 17.1895 19.7559C17.3458 19.5996 17.4336 19.3877 17.4336 19.1667V0.625Z" fill="white"/>
</g>
<defs>
<clipPath id="clip0_97_96">
<rect width="20" height="20" fill="white" transform="translate(0.350098)"/>
</clipPath>
</defs>
</svg>
