<svg width="13" height="13" viewBox="0 0 13 13" fill="none" xmlns="http://www.w3.org/2000/svg">
<g clip-path="url(#clip0_97_1948)">
<path fill-rule="evenodd" clip-rule="evenodd" d="M3.14881 4.94099C3.28926 5.08154 3.48174 5.1606 3.67974 5.16067L3.69924 5.16068C3.80107 5.1586 3.90139 5.13551 3.99389 5.09287C4.08639 5.05023 4.1691 4.98895 4.23682 4.91287L5.81594 3.15992C5.94488 3.01667 6.01395 2.82942 6.0089 2.63675C6.00385 2.44408 5.92507 2.2607 5.7888 2.12441L4.99857 1.33313C4.85183 1.19028 4.65443 1.11146 4.44965 1.11394C4.24465 1.11887 4.04862 1.2093 3.91156 1.36125L2.33095 3.1167C2.20233 3.25958 2.1334 3.44634 2.13836 3.63852C2.14331 3.83069 2.22178 4.01365 2.35759 4.14971L3.14881 4.94099ZM6.30894 6.00809L7.03473 5.17884C7.72171 5.64367 8.53252 5.89132 9.36198 5.88966L9.69798 5.88977C9.8969 5.88984 10.0877 5.81089 10.2284 5.67029C10.3691 5.52968 10.4482 5.33895 10.4482 5.14003C10.4483 4.94112 10.3694 4.75033 10.2288 4.60963C10.0882 4.46893 9.89742 4.38984 9.69851 4.38977L9.36251 4.38966C8.6564 4.38738 7.97969 4.10668 7.47928 3.6085C7.40844 3.53346 7.32196 3.47493 7.22598 3.43705C7.12999 3.39917 7.02685 3.38287 6.92386 3.3893C6.82123 3.39266 6.72038 3.41705 6.62757 3.46096C6.53475 3.50488 6.45194 3.56739 6.38427 3.64462L4.63357 5.644C4.56331 5.72443 4.51103 5.81893 4.48023 5.92118C4.44943 6.02344 4.44083 6.13109 4.45499 6.23694C4.46916 6.34278 4.50576 6.44439 4.56236 6.53495C4.61896 6.62551 4.69424 6.70294 4.78318 6.76206L5.1151 6.98317C5.55181 7.2777 5.89004 7.69655 6.08599 8.1855C6.28194 8.67444 6.32658 9.21095 6.21414 9.72556C6.19071 9.82241 6.1868 9.92296 6.20266 10.0213C6.21852 10.1197 6.25383 10.2139 6.30652 10.2985C6.3592 10.3831 6.42822 10.4563 6.50953 10.5139C6.59083 10.5715 6.68281 10.6124 6.78007 10.634C6.87733 10.6557 6.97794 10.6577 7.07601 10.6401C7.17408 10.6224 7.26765 10.5854 7.35125 10.5312C7.43485 10.477 7.5068 10.4066 7.56291 10.3243C7.61902 10.2419 7.65815 10.1492 7.67803 10.0516C7.83836 9.31679 7.79564 8.55223 7.55445 7.83989C7.31326 7.12755 6.88269 6.49431 6.30894 6.00809ZM11.9468 9.39056C11.9469 9.05904 11.8153 8.74105 11.581 8.50655C11.3466 8.27204 11.0287 8.14024 10.6972 8.14012C10.3657 8.14001 10.0477 8.27159 9.81319 8.50593C9.57868 8.74027 9.44688 9.05816 9.44676 9.38969C9.44665 9.72121 9.57823 10.0392 9.81257 10.2737C10.0469 10.5082 10.3648 10.64 10.6963 10.6401C11.0278 10.6402 11.3458 10.5087 11.5803 10.2743C11.8148 10.04 11.9466 9.72208 11.9468 9.39056ZM12.9468 9.39091C12.9466 9.98764 12.7093 10.5599 12.2872 10.9817C11.8651 11.4035 11.2927 11.6403 10.696 11.6401C10.0992 11.6399 9.52703 11.4027 9.10522 10.9806C8.68341 10.5585 8.44655 9.98607 8.44676 9.38934C8.44697 8.7926 8.68422 8.22039 9.10633 7.79858C9.52843 7.37677 10.1008 7.13991 10.6975 7.14012C11.2943 7.14033 11.8665 7.37758 12.2883 7.79969C12.7101 8.22179 12.947 8.79417 12.9468 9.39091ZM4.44676 9.38794C4.44688 9.05642 4.31529 8.73843 4.08095 8.50393C3.84661 8.26943 3.52872 8.13762 3.1972 8.1375C2.86568 8.13739 2.54769 8.26897 2.31319 8.50331C2.07868 8.73765 1.94688 9.05555 1.94676 9.38707C1.94665 9.71859 2.07823 10.0366 2.31257 10.2711C2.54691 10.5056 2.8648 10.6374 3.19633 10.6375C3.52785 10.6376 3.84583 10.506 4.08034 10.2717C4.31484 10.0374 4.44665 9.71946 4.44676 9.38794ZM5.44676 9.38829C5.44655 9.98503 5.2093 10.5572 4.7872 10.979C4.36509 11.4009 3.79271 11.6377 3.19598 11.6375C2.59924 11.6373 2.02703 11.4 1.60522 10.9779C1.18341 10.5558 0.946553 9.98346 0.946762 9.38672C0.94697 8.78998 1.18422 8.21777 1.60633 7.79596C2.02843 7.37415 2.60081 7.1373 3.19755 7.1375C3.79428 7.13771 4.3665 7.37496 4.78831 7.79707C5.21012 8.21917 5.44697 8.79155 5.44676 9.38829ZM7.01179 2.13883C7.0119 1.82389 7.13712 1.52189 7.3599 1.29927C7.58267 1.07665 7.88476 0.95164 8.19971 0.951749C8.51465 0.951859 8.81665 1.07708 9.03927 1.29985C9.2619 1.52263 9.3869 1.82472 9.38679 2.13966C9.38668 2.45461 9.26147 2.75661 9.03869 2.97923C8.81591 3.20185 8.51382 3.32686 8.19888 3.32675C7.88393 3.32664 7.58193 3.20142 7.35931 2.97865C7.13669 2.75587 7.01168 2.45378 7.01179 2.13883Z" fill="#1FC70A"/>
</g>
<defs>
<clipPath id="clip0_97_1948">
<rect width="12" height="12" fill="white" transform="translate(0.950195 0.13916) rotate(0.02)"/>
</clipPath>
</defs>
</svg>
