<svg width="16" height="11" viewBox="0 0 16 11" fill="none" xmlns="http://www.w3.org/2000/svg">
<g clip-path="url(#clip0_97_1936)">
<path fill-rule="evenodd" clip-rule="evenodd" d="M15.6473 3.94029C15.6473 4.02317 15.6144 4.10265 15.5557 4.16123C15.4971 4.21982 15.4176 4.25271 15.3347 4.25269C14.9203 4.25254 14.5229 4.41702 14.2297 4.70995C13.9366 5.00287 13.7718 5.40024 13.7717 5.81464C13.7715 6.22904 13.936 6.62653 14.229 6.91965C14.5219 7.21278 14.9192 7.37754 15.3336 7.37769C15.4165 7.37771 15.496 7.41067 15.5546 7.46929C15.6132 7.52792 15.6461 7.60741 15.646 7.69029L15.6453 9.87779C15.6452 10.1264 15.5463 10.3649 15.3705 10.5406C15.1946 10.7164 14.9561 10.8151 14.7074 10.815L1.58245 10.8104C1.33381 10.8103 1.09538 10.7114 0.91963 10.5356C0.743876 10.3597 0.645187 10.1212 0.645274 9.87256L0.646038 7.68506C0.646067 7.60218 0.679018 7.5227 0.737644 7.46412C0.79627 7.40553 0.875767 7.37264 0.958647 7.37267C1.37305 7.37281 1.77053 7.20833 2.06366 6.91541C2.35679 6.62248 2.52155 6.22511 2.52169 5.81071C2.52184 5.39631 2.35736 4.99883 2.06443 4.7057C1.77151 4.41257 1.37414 4.24781 0.959738 4.24767C0.876857 4.24764 0.797383 4.21469 0.738799 4.15606C0.680214 4.09744 0.647318 4.01794 0.647347 3.93506L0.64811 1.74756C0.648197 1.49892 0.747052 1.2605 0.922929 1.08474C1.09881 0.908988 1.3373 0.810299 1.58594 0.810386L14.7109 0.814967C14.9596 0.815054 15.198 0.913909 15.3738 1.08979C15.5495 1.26566 15.6482 1.50415 15.6481 1.75279L15.6473 3.94029ZM10.3164 2.98218L5.31468 7.98044C5.23185 8.06927 5.18674 8.18678 5.18884 8.30822C5.19094 8.42966 5.24009 8.54554 5.32594 8.63146C5.4118 8.71737 5.52765 8.7666 5.64908 8.76879C5.77052 8.77097 5.88807 8.72594 5.97695 8.64317L10.9787 3.64491C11.0615 3.55608 11.1066 3.43857 11.1045 3.31713C11.1024 3.19569 11.0533 3.07981 10.9674 2.9939C10.8816 2.90798 10.7657 2.85875 10.6443 2.85656C10.5229 2.85438 10.4053 2.89941 10.3164 2.98218ZM5.02235 3.93659C5.02246 3.60506 5.15427 3.28717 5.38877 3.05283C5.62327 2.81849 5.94126 2.68691 6.27278 2.68702C6.6043 2.68714 6.9222 2.81894 7.15654 3.05345C7.39088 3.28795 7.52246 3.60594 7.52235 3.93746C7.52223 4.26898 7.39042 4.58688 7.15592 4.82121C6.92142 5.05555 6.60343 5.18714 6.27191 5.18702C5.94039 5.18691 5.62249 5.0551 5.38815 4.8206C5.15382 4.58609 5.02223 4.26811 5.02235 3.93659ZM11.271 7.68877C11.2712 7.35725 11.1396 7.03926 10.9052 6.80476C10.6709 6.57025 10.353 6.43845 10.0215 6.43833C9.68995 6.43822 9.37196 6.5698 9.13746 6.80414C8.90296 7.03848 8.77115 7.35637 8.77104 7.68789C8.77092 8.01941 8.90251 8.3374 9.13685 8.57191C9.37118 8.80641 9.68908 8.93821 10.0206 8.93833C10.3521 8.93845 10.6701 8.80686 10.9046 8.57252C11.1391 8.33818 11.2709 8.02029 11.271 7.68877Z" fill="white"/>
</g>
<defs>
<clipPath id="clip0_97_1936">
<rect width="15" height="10" fill="white" transform="translate(0.648438 0.810059) rotate(0.02)"/>
</clipPath>
</defs>
</svg>
