<svg width="13" height="13" viewBox="0 0 13 13" fill="none" xmlns="http://www.w3.org/2000/svg">
<g clip-path="url(#clip0_97_2022)">
<path fill-rule="evenodd" clip-rule="evenodd" d="M2.47889 4.94099C2.61934 5.08154 2.81182 5.1606 3.00982 5.16067L3.02932 5.16068C3.13115 5.1586 3.23146 5.13551 3.32397 5.09287C3.41647 5.05023 3.49918 4.98895 3.5669 4.91287L5.14601 3.15992C5.27496 3.01667 5.34403 2.82942 5.33898 2.63675C5.33393 2.44408 5.25515 2.2607 5.11888 2.12441L4.32865 1.33313C4.18191 1.19028 3.9845 1.11146 3.77973 1.11394C3.57473 1.11887 3.37869 1.2093 3.24164 1.36125L1.66103 3.1167C1.53241 3.25958 1.46348 3.44634 1.46844 3.63852C1.47339 3.83069 1.55186 4.01365 1.68767 4.14971L2.47889 4.94099ZM5.63902 6.00809L6.36481 5.17884C7.05179 5.64367 7.8626 5.89132 8.69206 5.88966L9.02806 5.88977C9.22697 5.88984 9.41777 5.81089 9.55847 5.67029C9.69917 5.52968 9.77825 5.33895 9.77832 5.14003C9.77839 4.94112 9.69944 4.75033 9.55884 4.60963C9.41823 4.46893 9.2275 4.38984 9.02858 4.38977L8.69258 4.38966C7.98648 4.38738 7.30977 4.10668 6.80936 3.6085C6.73852 3.53346 6.65204 3.47493 6.55605 3.43705C6.46007 3.39917 6.35692 3.38287 6.25393 3.3893C6.15131 3.39266 6.05046 3.41705 5.95764 3.46096C5.86483 3.50488 5.78202 3.56739 5.71434 3.64462L3.96365 5.644C3.89338 5.72443 3.8411 5.81893 3.81031 5.92118C3.77951 6.02344 3.77091 6.13109 3.78507 6.23694C3.79924 6.34278 3.83584 6.44439 3.89244 6.53495C3.94904 6.62551 4.02432 6.70294 4.11326 6.76206L4.44518 6.98317C4.88189 7.2777 5.22012 7.69655 5.41607 8.1855C5.61202 8.67444 5.65666 9.21095 5.54422 9.72556C5.52078 9.82241 5.51688 9.92296 5.53274 10.0213C5.5486 10.1197 5.58391 10.2139 5.6366 10.2985C5.68928 10.3831 5.7583 10.4563 5.8396 10.5139C5.92091 10.5715 6.01288 10.6124 6.11015 10.634C6.20741 10.6557 6.30802 10.6577 6.40609 10.6401C6.50416 10.6224 6.59772 10.5854 6.68132 10.5312C6.76492 10.477 6.83688 10.4066 6.89299 10.3243C6.9491 10.2419 6.98823 10.1492 7.00811 10.0516C7.16844 9.31679 7.12572 8.55223 6.88453 7.83989C6.64334 7.12755 6.21277 6.49431 5.63902 6.00809ZM11.2768 9.39056C11.277 9.05904 11.1454 8.74105 10.911 8.50655C10.6767 8.27204 10.3588 8.14024 10.0273 8.14012C9.69576 8.14001 9.37777 8.27159 9.14326 8.50593C8.90876 8.74027 8.77696 9.05816 8.77684 9.38969C8.77672 9.72121 8.90831 10.0392 9.14265 10.2737C9.37699 10.5082 9.69488 10.64 10.0264 10.6401C10.3579 10.6402 10.6759 10.5087 10.9104 10.2743C11.1449 10.04 11.2767 9.72208 11.2768 9.39056ZM12.2768 9.39091C12.2766 9.98764 12.0394 10.5599 11.6173 10.9817C11.1952 11.4035 10.6228 11.6403 10.0261 11.6401C9.42932 11.6399 8.8571 11.4027 8.43529 10.9806C8.01348 10.5585 7.77663 9.98607 7.77684 9.38934C7.77705 8.7926 8.0143 8.22039 8.4364 7.79858C8.85851 7.37677 9.43089 7.13991 10.0276 7.14012C10.6244 7.14033 11.1966 7.37758 11.6184 7.79969C12.0402 8.22179 12.277 8.79417 12.2768 9.39091ZM3.77684 9.38794C3.77696 9.05642 3.64537 8.73843 3.41103 8.50393C3.17669 8.26943 2.8588 8.13762 2.52728 8.1375C2.19576 8.13739 1.87777 8.26897 1.64326 8.50331C1.40876 8.73765 1.27696 9.05555 1.27684 9.38707C1.27672 9.71859 1.40831 10.0366 1.64265 10.2711C1.87699 10.5056 2.19488 10.6374 2.5264 10.6375C2.85792 10.6376 3.17591 10.506 3.41041 10.2717C3.64492 10.0374 3.77672 9.71946 3.77684 9.38794ZM4.77684 9.38829C4.77663 9.98503 4.53938 10.5572 4.11727 10.979C3.69517 11.4009 3.12279 11.6377 2.52605 11.6375C1.92932 11.6373 1.3571 11.4 0.935294 10.9779C0.513485 10.5558 0.276632 9.98346 0.27684 9.38672C0.277048 8.78998 0.514301 8.21777 0.936405 7.79596C1.35851 7.37415 1.93089 7.1373 2.52763 7.1375C3.12436 7.13771 3.69658 7.37496 4.11839 7.79707C4.54019 8.21917 4.77705 8.79155 4.77684 9.38829ZM6.34187 2.13883C6.34198 1.82389 6.4672 1.52189 6.68997 1.29927C6.91275 1.07665 7.21484 0.95164 7.52978 0.951749C7.84473 0.951859 8.14673 1.07708 8.36935 1.29985C8.59197 1.52263 8.71698 1.82472 8.71687 2.13966C8.71676 2.45461 8.59154 2.75661 8.36877 2.97923C8.14599 3.20185 7.8439 3.32686 7.52896 3.32675C7.21401 3.32664 6.91201 3.20142 6.68939 2.97865C6.46677 2.75587 6.34176 2.45378 6.34187 2.13883Z" fill="#1FC70A"/>
</g>
<defs>
<clipPath id="clip0_97_2022">
<rect width="12" height="12" fill="white" transform="translate(0.280029 0.13916) rotate(0.02)"/>
</clipPath>
</defs>
</svg>
