<svg width="13" height="13" viewBox="0 0 13 13" fill="none" xmlns="http://www.w3.org/2000/svg">
<g clip-path="url(#clip0_97_1981)">
<path fill-rule="evenodd" clip-rule="evenodd" d="M2.79872 4.95222C2.93917 5.09277 3.13164 5.17183 3.32964 5.1719L3.34914 5.17191C3.45098 5.16983 3.55129 5.14674 3.64379 5.1041C3.73629 5.06146 3.819 5.00018 3.88673 4.9241L5.46584 3.17115C5.59478 3.0279 5.66385 2.84065 5.6588 2.64798C5.65375 2.45532 5.57497 2.27193 5.4387 2.13564L4.64848 1.34436C4.50173 1.20151 4.30433 1.12269 4.09955 1.12517C3.89455 1.1301 3.69852 1.22053 3.56147 1.37248L1.98085 3.12793C1.85223 3.27081 1.7833 3.45757 1.78826 3.64975C1.79322 3.84192 1.87168 4.02488 2.00749 4.16094L2.79872 4.95222ZM5.95884 6.01932L6.68463 5.19007C7.37161 5.6549 8.18243 5.90255 9.01188 5.90089L9.34789 5.901C9.5468 5.90107 9.73759 5.82212 9.87829 5.68152C10.019 5.54092 10.0981 5.35018 10.0981 5.15127C10.0982 4.95235 10.0193 4.76156 9.87866 4.62086C9.73806 4.48016 9.54732 4.40107 9.34841 4.401L9.01241 4.40089C8.3063 4.39861 7.62959 4.11791 7.12918 3.61973C7.05834 3.54469 6.97187 3.48616 6.87588 3.44828C6.77989 3.4104 6.67675 3.3941 6.57376 3.40053C6.47113 3.40389 6.37028 3.42828 6.27747 3.47219C6.18465 3.51611 6.10184 3.57862 6.03417 3.65585L4.28347 5.65524C4.21321 5.73566 4.16093 5.83016 4.13013 5.93241C4.09934 6.03467 4.09073 6.14232 4.1049 6.24817C4.11906 6.35402 4.15567 6.45562 4.21226 6.54618C4.26886 6.63674 4.34415 6.71417 4.43308 6.77329L4.765 6.9944C5.20171 7.28893 5.53994 7.70778 5.73589 8.19673C5.93184 8.68567 5.97649 9.22218 5.86405 9.73679C5.84061 9.83364 5.83671 9.93419 5.85257 10.0326C5.86843 10.1309 5.90373 10.2252 5.95642 10.3097C6.00911 10.3943 6.07812 10.4676 6.15943 10.5252C6.24074 10.5828 6.33271 10.6236 6.42997 10.6453C6.52724 10.6669 6.62784 10.669 6.72591 10.6513C6.82398 10.6337 6.91755 10.5966 7.00115 10.5424C7.08475 10.4882 7.1567 10.4178 7.21281 10.3355C7.26892 10.2531 7.30806 10.1604 7.32793 10.0628C7.48827 9.32802 7.44555 8.56346 7.20435 7.85112C6.96316 7.13878 6.5326 6.50554 5.95884 6.01932ZM11.5967 9.40179C11.5968 9.07027 11.4652 8.75228 11.2309 8.51778C10.9965 8.28328 10.6786 8.15147 10.3471 8.15135C10.0156 8.15124 9.69759 8.28282 9.46309 8.51716C9.22859 8.7515 9.09678 9.0694 9.09666 9.40092C9.09655 9.73244 9.22813 10.0504 9.46247 10.2849C9.69681 10.5194 10.0147 10.6512 10.3462 10.6514C10.6777 10.6515 10.9957 10.5199 11.2302 10.2855C11.4647 10.0512 11.5965 9.73331 11.5967 9.40179ZM12.5967 9.40214C12.5965 9.99887 12.3592 10.5711 11.9371 10.9929C11.515 11.4147 10.9426 11.6516 10.3459 11.6514C9.74914 11.6511 9.17693 11.4139 8.75512 10.9918C8.33331 10.5697 8.09646 9.9973 8.09666 9.40057C8.09687 8.80383 8.33412 8.23162 8.75623 7.80981C9.17833 7.388 9.75071 7.15114 10.3474 7.15135C10.9442 7.15156 11.5164 7.38881 11.9382 7.81092C12.36 8.23302 12.5969 8.8054 12.5967 9.40214ZM4.09666 9.39917C4.09678 9.06765 3.96519 8.74966 3.73086 8.51516C3.49652 8.28066 3.17862 8.14885 2.8471 8.14873C2.51558 8.14862 2.19759 8.2802 1.96309 8.51454C1.72859 8.74888 1.59678 9.06678 1.59666 9.3983C1.59655 9.72982 1.72813 10.0478 1.96247 10.2823C2.19681 10.5168 2.51471 10.6486 2.84623 10.6487C3.17775 10.6488 3.49574 10.5173 3.73024 10.2829C3.96474 10.0486 4.09655 9.73069 4.09666 9.39917ZM5.09666 9.39952C5.09646 9.99626 4.8592 10.5685 4.4371 10.9903C4.01499 11.4121 3.44262 11.6489 2.84588 11.6487C2.24914 11.6485 1.67693 11.4113 1.25512 10.9892C0.833309 10.5671 0.596456 9.99469 0.596664 9.39795C0.596872 8.80121 0.834125 8.229 1.25623 7.80719C1.67833 7.38538 2.25071 7.14853 2.84745 7.14873C3.44419 7.14894 4.0164 7.3862 4.43821 7.8083C4.86002 8.2304 5.09687 8.80278 5.09666 9.39952ZM6.66169 2.15007C6.6618 1.83512 6.78702 1.53312 7.0098 1.3105C7.23258 1.08788 7.53466 0.96287 7.84961 0.96298C8.16455 0.96309 8.46656 1.08831 8.68918 1.31108C8.9118 1.53386 9.0368 1.83595 9.03669 2.15089C9.03658 2.46584 8.91137 2.76784 8.68859 2.99046C8.46581 3.21308 8.16372 3.33809 7.84878 3.33798C7.53384 3.33787 7.23183 3.21265 7.00921 2.98988C6.78659 2.7671 6.66158 2.46501 6.66169 2.15007Z" fill="#1FC70A"/>
</g>
<defs>
<clipPath id="clip0_97_1981">
<rect width="12" height="12" fill="white" transform="translate(0.600098 0.150391) rotate(0.02)"/>
</clipPath>
</defs>
</svg>
