<svg width="13" height="13" viewBox="0 0 13 13" fill="none" xmlns="http://www.w3.org/2000/svg">
<g clip-path="url(#clip0_97_1992)">
<path fill-rule="evenodd" clip-rule="evenodd" d="M6.70019 0.193989C10.0002 0.195141 12.6993 2.89608 12.6981 6.19608C12.6969 9.49608 9.99601 12.1951 6.69601 12.194C3.39601 12.1928 0.696949 9.49189 0.698101 6.19189C0.699253 2.89189 3.4002 0.192837 6.70019 0.193989ZM6.69985 1.19399C3.94985 1.19303 1.69906 3.44224 1.6981 6.19224C1.69714 8.94224 3.94636 11.193 6.69636 11.194C9.44636 11.1949 11.6971 8.94573 11.6981 6.19573C11.6991 3.44573 9.44985 1.19495 6.69985 1.19399ZM9.04772 7.29481C9.24766 7.44488 9.34758 7.69491 9.19749 7.94486C8.59716 8.89465 7.79697 9.44437 6.69695 9.49399C5.59697 9.4436 4.79712 8.99333 4.29745 8.04315C4.19754 7.79312 4.19761 7.59312 4.34768 7.39317C4.44773 7.2432 4.64775 7.19327 4.84773 7.24334C5.04772 7.29341 5.09766 7.44343 5.19761 7.59346C5.54739 8.24359 6.14728 8.5438 6.84732 8.44404C7.44733 8.39425 7.84744 8.09439 8.24759 7.64453C8.29763 7.54455 8.34766 7.44456 8.44768 7.3946C8.54775 7.19463 8.79777 7.14472 9.04772 7.29481ZM8.69897 3.69469C9.19897 3.69486 9.64883 4.09502 9.64864 4.64502C9.64845 5.19502 9.24831 5.59488 8.69831 5.59469C8.19831 5.59451 7.74845 5.19435 7.74864 4.64435C7.74883 4.09436 8.14897 3.69449 8.69897 3.69469ZM4.69897 3.69329C5.19897 3.69347 5.64883 4.09362 5.64864 4.64362C5.64845 5.19362 5.24833 5.54348 4.69833 5.54329C4.14833 5.5431 3.74847 5.14296 3.74866 4.59296C3.74883 4.09296 4.19897 3.69312 4.69897 3.69329Z" fill="#202125" fill-opacity="0.64"/>
</g>
<defs>
<clipPath id="clip0_97_1992">
<rect width="12" height="12" fill="white" transform="translate(0.700195 0.191895) rotate(0.02)"/>
</clipPath>
</defs>
</svg>
