<svg width="21" height="20" viewBox="0 0 21 20" fill="none" xmlns="http://www.w3.org/2000/svg">
<g clip-path="url(#clip0_97_101)">
<path fill-rule="evenodd" clip-rule="evenodd" d="M0.838138 0C0.695363 0 0.558436 0.0567171 0.457479 0.157674C0.356522 0.258631 0.299805 0.395558 0.299805 0.538333L0.299805 3.75C0.299816 4.35631 0.48878 4.94755 0.840416 5.44149C1.19205 5.93542 1.68888 6.30749 2.26179 6.50595C2.83471 6.7044 3.45523 6.71938 4.03705 6.5488C4.61888 6.37822 5.13308 6.03056 5.50814 5.55417C5.78084 5.90115 6.12884 6.18161 6.52585 6.37434C6.92286 6.56707 7.35849 6.66703 7.7998 6.66667C8.7298 6.66667 9.55814 6.23167 10.0915 5.55417C10.3834 5.92559 10.7612 6.22051 11.1923 6.41353C11.6235 6.60656 12.0951 6.6919 12.5666 6.66222C13.038 6.63254 13.4952 6.48872 13.8988 6.24315C14.3023 5.99757 14.6401 5.6576 14.8831 5.2525C15.2116 5.7991 15.7102 6.22299 16.3025 6.45927C16.8948 6.69555 17.5482 6.73119 18.1627 6.56073C18.7772 6.39028 19.3189 6.02313 19.7049 5.51549C20.0909 5.00785 20.2998 4.38771 20.2998 3.75V0.539167C20.2999 0.468402 20.2861 0.398309 20.2591 0.332899C20.2321 0.26749 20.1924 0.208046 20.1424 0.157969C20.0924 0.107892 20.033 0.0681636 19.9677 0.0410578C19.9023 0.0139519 19.8322 -8.47857e-08 19.7615 0L15.0048 0C14.9638 8.51991e-05 14.923 0.00483808 14.8831 0.0141667C14.8433 0.00483808 14.8024 8.51991e-05 14.7615 0L0.838138 0ZM1.96647 1.66667V3.75C1.96647 3.91415 1.9988 4.0767 2.06162 4.22835C2.12444 4.38001 2.21651 4.51781 2.33259 4.63388C2.44866 4.74996 2.58646 4.84203 2.73812 4.90485C2.88977 4.96767 3.05232 5 3.21647 5C3.38062 5 3.54317 4.96767 3.69483 4.90485C3.84648 4.84203 3.98428 4.74996 4.10035 4.63388C4.21643 4.51781 4.3085 4.38001 4.37132 4.22835C4.43414 4.0767 4.46647 3.91415 4.46647 3.75V1.66667H1.96647ZM16.1331 1.66667V3.75C16.1331 4.08152 16.2648 4.39946 16.4993 4.63388C16.7337 4.8683 17.0516 5 17.3831 5C17.7147 5 18.0326 4.8683 18.267 4.63388C18.5014 4.39946 18.6331 4.08152 18.6331 3.75V1.66667H16.1331ZM11.1331 3.75V1.66667H13.6331V3.75C13.6331 4.08152 13.5014 4.39946 13.267 4.63388C13.0326 4.8683 12.7147 5 12.3831 5C12.0516 5 11.7337 4.8683 11.4993 4.63388C11.2648 4.39946 11.1331 4.08152 11.1331 3.75ZM6.5498 1.66667V3.75C6.5498 4.08152 6.6815 4.39946 6.91592 4.63388C7.15034 4.8683 7.46828 5 7.7998 5C8.13133 5 8.44927 4.8683 8.68369 4.63388C8.91811 4.39946 9.0498 4.08152 9.0498 3.75V1.66667H6.5498Z" fill="#202125" fill-opacity="0.64"/>
<path fill-rule="evenodd" clip-rule="evenodd" d="M1.13314 18.3335V7.04185C1.58054 7.49944 2.16634 7.79673 2.7998 7.88768V18.3335H9.46647V10.0002H15.7165V18.3335H17.7998V7.88768C18.4334 7.79656 19.0192 7.49896 19.4665 7.04102V18.3335C19.6875 18.3335 19.8994 18.4213 20.0557 18.5776C20.212 18.7339 20.2998 18.9458 20.2998 19.1668C20.2998 19.3879 20.212 19.5998 20.0557 19.7561C19.8994 19.9124 19.6875 20.0002 19.4665 20.0002H1.13314C0.912124 20.0002 0.700163 19.9124 0.543882 19.7561C0.387602 19.5998 0.299805 19.3879 0.299805 19.1668C0.299805 18.9458 0.387602 18.7339 0.543882 18.5776C0.700163 18.4213 0.912124 18.3335 1.13314 18.3335ZM11.1331 18.3335H14.0498V11.6668H11.1331V18.3335Z" fill="#202125" fill-opacity="0.64"/>
<path d="M4.88298 10C4.77247 10 4.66649 10.0439 4.58835 10.122C4.51021 10.2002 4.46631 10.3062 4.46631 10.4167V12.9167C4.46631 13.0272 4.51021 13.1332 4.58835 13.2113C4.66649 13.2894 4.77247 13.3333 4.88298 13.3333H7.38298C7.49348 13.3333 7.59946 13.2894 7.6776 13.2113C7.75574 13.1332 7.79964 13.0272 7.79964 12.9167V10.4167C7.79964 10.3062 7.75574 10.2002 7.6776 10.122C7.59946 10.0439 7.49348 10 7.38298 10H4.88298Z" fill="#202125" fill-opacity="0.64"/>
</g>
<defs>
<clipPath id="clip0_97_101">
<rect width="20" height="20" fill="white" transform="translate(0.299805)"/>
</clipPath>
</defs>
</svg>
