<svg width="16" height="11" viewBox="0 0 16 11" fill="none" xmlns="http://www.w3.org/2000/svg">
<g clip-path="url(#clip0_97_1610)">
<path fill-rule="evenodd" clip-rule="evenodd" d="M15.6591 3.43004C15.659 3.51292 15.6261 3.59239 15.5675 3.65098C15.5088 3.70956 15.4293 3.74246 15.3465 3.74243C14.9321 3.74229 14.5346 3.90677 14.2414 4.19969C13.9483 4.49261 13.7836 4.88999 13.7834 5.30439C13.7833 5.71879 13.9477 6.11627 14.2407 6.4094C14.5336 6.70253 14.931 6.86729 15.3454 6.86743C15.4282 6.86746 15.5077 6.90041 15.5663 6.95904C15.6249 7.01766 15.6578 7.09716 15.6578 7.18004L15.657 9.36754C15.6569 9.61618 15.558 9.8546 15.3822 10.0304C15.2063 10.2061 14.9678 10.3048 14.7192 10.3047L1.59417 10.3001C1.34553 10.3 1.1071 10.2012 0.931349 10.0253C0.755595 9.84944 0.656906 9.61094 0.656993 9.3623L0.657756 7.1748C0.657785 7.09192 0.690737 7.01245 0.749363 6.95387C0.807988 6.89528 0.887485 6.86238 0.970365 6.86241C1.38477 6.86256 1.78225 6.69808 2.07538 6.40515C2.36851 6.11223 2.53327 5.71486 2.53341 5.30046C2.53356 4.88606 2.36907 4.48857 2.07615 4.19544C1.78323 3.90232 1.38586 3.73756 0.971456 3.73741C0.888576 3.73738 0.809102 3.70443 0.750517 3.64581C0.691933 3.58718 0.659036 3.50768 0.659065 3.4248L0.659829 1.2373C0.659916 0.988664 0.758771 0.750242 0.934648 0.574488C1.11052 0.398734 1.34902 0.300045 1.59766 0.300132L14.7227 0.304713C14.9713 0.3048 15.2097 0.403655 15.3855 0.579532C15.5612 0.755409 15.6599 0.9939 15.6598 1.24254L15.6591 3.43004ZM10.3281 2.47193L5.3264 7.47018C5.24357 7.55901 5.19845 7.67653 5.20055 7.79797C5.20266 7.91941 5.25181 8.03529 5.33766 8.1212C5.42352 8.20711 5.53936 8.25635 5.6608 8.25854C5.78224 8.26072 5.89978 8.21568 5.98867 8.13292L10.9904 3.13466C11.0732 3.04583 11.1184 2.92832 11.1163 2.80688C11.1142 2.68544 11.065 2.56956 10.9792 2.48364C10.8933 2.39773 10.7775 2.34849 10.656 2.34631C10.5346 2.34412 10.417 2.38916 10.3281 2.47193ZM5.03407 3.42633C5.03418 3.09481 5.16599 2.77691 5.40049 2.54258C5.63499 2.30824 5.95298 2.17665 6.2845 2.17677C6.61602 2.17688 6.93392 2.30869 7.16826 2.54319C7.4026 2.7777 7.53418 3.09568 7.53407 3.4272C7.53395 3.75872 7.40214 4.07662 7.16764 4.31096C6.93314 4.5453 6.61515 4.67688 6.28363 4.67677C5.95211 4.67665 5.63421 4.54485 5.39987 4.31034C5.16553 4.07584 5.03395 3.75785 5.03407 3.42633ZM11.2828 7.17851C11.2829 6.84699 11.1513 6.529 10.9169 6.2945C10.6826 6.06 10.3647 5.92819 10.0332 5.92808C9.70167 5.92796 9.38368 6.05955 9.14918 6.29389C8.91468 6.52822 8.78287 6.84612 8.78276 7.17764C8.78264 7.50916 8.91423 7.82715 9.14856 8.06165C9.3829 8.29615 9.7008 8.42796 10.0323 8.42808C10.3638 8.42819 10.6818 8.29661 10.9163 8.06227C11.1508 7.82793 11.2826 7.51003 11.2828 7.17851Z" fill="white"/>
</g>
<defs>
<clipPath id="clip0_97_1610">
<rect width="15" height="10" fill="white" transform="translate(0.660156 0.299805) rotate(0.02)"/>
</clipPath>
</defs>
</svg>
