<svg width="13" height="13" viewBox="0 0 13 13" fill="none" xmlns="http://www.w3.org/2000/svg">
<g clip-path="url(#clip0_97_1598)">
<path fill-rule="evenodd" clip-rule="evenodd" d="M6.04004 0.229633C9.34004 0.230785 12.0391 2.93173 12.0379 6.23173C12.0368 9.53173 9.33585 12.2308 6.03585 12.2296C2.73585 12.2285 0.0367927 9.52754 0.0379447 6.22754C0.0390966 2.92754 2.74004 0.228482 6.04004 0.229633ZM6.03969 1.22963C3.28969 1.22867 1.0389 3.47789 1.03794 6.22789C1.03698 8.97789 3.2862 11.2287 6.0362 11.2296C8.7862 11.2306 11.037 8.98138 11.0379 6.23138C11.0389 3.48138 8.78969 1.23059 6.03969 1.22963ZM8.38756 7.33045C8.58751 7.48052 8.68742 7.73056 8.53733 7.98051C7.937 8.9303 7.13681 9.48002 6.03679 9.52963C4.93681 9.47925 4.13697 9.02897 3.6373 8.0788C3.53739 7.82876 3.53746 7.62876 3.68753 7.42881C3.78758 7.27885 3.9876 7.22892 4.18758 7.27899C4.38756 7.32906 4.43751 7.47907 4.53746 7.62911C4.88723 8.27923 5.48712 8.57944 6.18716 8.47969C6.78718 8.42989 7.18728 8.13003 7.58744 7.68017C7.63747 7.58019 7.68751 7.48021 7.78753 7.43024C7.8876 7.23028 8.13761 7.18037 8.38756 7.33045ZM8.03882 3.73033C8.53882 3.73051 8.98868 4.13066 8.98848 4.68066C8.98829 5.23066 8.58815 5.63052 8.03815 5.63033C7.53815 5.63016 7.08829 5.23 7.08849 4.68C7.08868 4.13 7.48882 3.73014 8.03882 3.73033ZM4.03882 3.72894C4.53882 3.72911 4.98868 4.12927 4.98849 4.67927C4.98829 5.22927 4.58817 5.57913 4.03817 5.57893C3.48817 5.57874 3.08831 5.1786 3.0885 4.6286C3.08868 4.1286 3.53882 3.72876 4.03882 3.72894Z" fill="#202125" fill-opacity="0.64"/>
</g>
<defs>
<clipPath id="clip0_97_1598">
<rect width="12" height="12" fill="white" transform="translate(0.0400391 0.227539) rotate(0.02)"/>
</clipPath>
</defs>
</svg>
