<svg width="13" height="13" viewBox="0 0 13 13" fill="none" xmlns="http://www.w3.org/2000/svg">
<g clip-path="url(#clip0_97_1674)">
<path fill-rule="evenodd" clip-rule="evenodd" d="M3.13832 4.99763C3.27877 5.13818 3.47124 5.21724 3.66924 5.21731L3.68874 5.21732C3.79058 5.21524 3.89089 5.19215 3.98339 5.14951C4.07589 5.10687 4.1586 5.04559 4.22633 4.96951L5.80544 3.21656C5.93438 3.07332 6.00345 2.88606 5.9984 2.69339C5.99335 2.50073 5.91457 2.31734 5.7783 2.18105L4.98808 1.38977C4.84133 1.24692 4.64393 1.1681 4.43915 1.17058C4.23415 1.17551 4.03812 1.26594 3.90107 1.41789L2.32045 3.17334C2.19183 3.31622 2.1229 3.50298 2.12786 3.69516C2.13282 3.88733 2.21128 4.07029 2.34709 4.20635L3.13832 4.99763ZM6.29844 6.06473L7.02423 5.23548C7.71121 5.70031 8.52203 5.94796 9.35148 5.9463L9.68748 5.94641C9.8864 5.94648 10.0772 5.86753 10.2179 5.72693C10.3586 5.58633 10.4377 5.39559 10.4377 5.19668C10.4378 4.99776 10.3589 4.80697 10.2183 4.66627C10.0777 4.52557 9.88692 4.44648 9.68801 4.44641L9.35201 4.4463C8.6459 4.44402 7.96919 4.16332 7.46878 3.66514C7.39794 3.5901 7.31147 3.53157 7.21548 3.49369C7.11949 3.45581 7.01635 3.43951 6.91336 3.44594C6.81073 3.4493 6.70988 3.47369 6.61707 3.5176C6.52425 3.56152 6.44144 3.62403 6.37377 3.70126L4.62307 5.70065C4.55281 5.78107 4.50053 5.87557 4.46973 5.97782C4.43894 6.08008 4.43033 6.18773 4.4445 6.29358C4.45866 6.39943 4.49526 6.50103 4.55186 6.59159C4.60846 6.68215 4.68374 6.75958 4.77268 6.8187L5.1046 7.03981C5.54131 7.33434 5.87954 7.75319 6.07549 8.24214C6.27144 8.73108 6.31609 9.26759 6.20365 9.7822C6.18021 9.87905 6.17631 9.9796 6.19217 10.078C6.20803 10.1764 6.24333 10.2706 6.29602 10.3552C6.34871 10.4397 6.41772 10.513 6.49903 10.5706C6.58034 10.6282 6.67231 10.669 6.76957 10.6907C6.86684 10.7123 6.96744 10.7144 7.06551 10.6967C7.16358 10.6791 7.25715 10.642 7.34075 10.5878C7.42435 10.5336 7.4963 10.4633 7.55241 10.3809C7.60852 10.2986 7.64766 10.2059 7.66753 10.1082C7.82787 9.37343 7.78515 8.60887 7.54395 7.89653C7.30276 7.18419 6.8722 6.55095 6.29844 6.06473ZM11.9363 9.4472C11.9364 9.11568 11.8048 8.79769 11.5705 8.56319C11.3361 8.32869 11.0182 8.19688 10.6867 8.19676C10.3552 8.19665 10.0372 8.32823 9.80269 8.56257C9.56819 8.79691 9.43638 9.11481 9.43626 9.44633C9.43615 9.77785 9.56773 10.0958 9.80207 10.3303C10.0364 10.5648 10.3543 10.6966 10.6858 10.6968C11.0173 10.6969 11.3353 10.5653 11.5698 10.331C11.8043 10.0966 11.9361 9.77872 11.9363 9.4472ZM12.9363 9.44755C12.9361 10.0443 12.6988 10.6165 12.2767 11.0383C11.8546 11.4601 11.2822 11.697 10.6855 11.6968C10.0887 11.6966 9.51653 11.4593 9.09472 11.0372C8.67291 10.6151 8.43605 10.0427 8.43626 9.44598C8.43647 8.84924 8.67372 8.27703 9.09583 7.85522C9.51793 7.43341 10.0903 7.19655 10.687 7.19676C11.2838 7.19697 11.856 7.43422 12.2778 7.85633C12.6996 8.27843 12.9365 8.85081 12.9363 9.44755ZM4.43626 9.44458C4.43638 9.11306 4.30479 8.79507 4.07046 8.56057C3.83612 8.32607 3.51822 8.19426 3.1867 8.19414C2.85518 8.19403 2.53719 8.32561 2.30269 8.55995C2.06819 8.79429 1.93638 9.11219 1.93626 9.44371C1.93615 9.77523 2.06773 10.0932 2.30207 10.3277C2.53641 10.5622 2.85431 10.694 3.18583 10.6941C3.51735 10.6943 3.83534 10.5627 4.06984 10.3283C4.30434 10.094 4.43615 9.7761 4.43626 9.44458ZM5.43626 9.44493C5.43606 10.0417 5.1988 10.6139 4.7767 11.0357C4.35459 11.4575 3.78222 11.6944 3.18548 11.6941C2.58874 11.6939 2.01653 11.4567 1.59472 11.0346C1.17291 10.6125 0.936055 10.0401 0.936264 9.44336C0.936472 8.84662 1.17372 8.27441 1.59583 7.8526C2.01793 7.43079 2.59031 7.19394 3.18705 7.19414C3.78379 7.19435 4.356 7.43161 4.77781 7.85371C5.19962 8.27581 5.43647 8.84819 5.43626 9.44493ZM7.00129 2.19548C7.0014 1.88053 7.12662 1.57853 7.3494 1.35591C7.57218 1.13329 7.87426 1.00828 8.18921 1.00839C8.50415 1.0085 8.80615 1.13372 9.02878 1.35649C9.2514 1.57927 9.3764 1.88136 9.37629 2.1963C9.37618 2.51125 9.25097 2.81325 9.02819 3.03587C8.80541 3.25849 8.50332 3.3835 8.18838 3.38339C7.87343 3.38328 7.57143 3.25806 7.34881 3.03529C7.12619 2.81251 7.00118 2.51042 7.00129 2.19548Z" fill="#1FC70A"/>
</g>
<defs>
<clipPath id="clip0_97_1674">
<rect width="12" height="12" fill="white" transform="translate(0.939453 0.196289) rotate(0.02)"/>
</clipPath>
</defs>
</svg>
