<svg width="13" height="13" viewBox="0 0 13 13" fill="none" xmlns="http://www.w3.org/2000/svg">
<g clip-path="url(#clip0_97_1791)">
<path fill-rule="evenodd" clip-rule="evenodd" d="M3.13856 4.9986C3.27901 5.13915 3.47148 5.21822 3.66948 5.21829L3.68898 5.2183C3.79082 5.21621 3.89113 5.19313 3.98363 5.15049C4.07614 5.10784 4.15884 5.04656 4.22657 4.97048L5.80568 3.21753C5.93463 3.07429 6.0037 2.88703 5.99865 2.69437C5.9936 2.5017 5.91481 2.31832 5.77854 2.18203L4.98832 1.39075C4.84158 1.2479 4.64417 1.16907 4.4394 1.17156C4.23439 1.17649 4.03836 1.26692 3.90131 1.41887L2.3207 3.17432C2.19208 3.3172 2.12315 3.50396 2.1281 3.69613C2.13306 3.88831 2.21152 4.07127 2.34734 4.20733L3.13856 4.9986ZM6.29869 6.06571L7.02448 5.23646C7.71145 5.70129 8.52227 5.94894 9.35173 5.94727L9.68773 5.94739C9.88664 5.94746 10.0774 5.86851 10.2181 5.72791C10.3588 5.5873 10.4379 5.39656 10.438 5.19765C10.4381 4.99874 10.3591 4.80795 10.2185 4.66724C10.0779 4.52654 9.88717 4.44746 9.68825 4.44739L9.35225 4.44727C8.64614 4.445 7.96943 4.1643 7.46903 3.66612C7.39819 3.59108 7.31171 3.53255 7.21572 3.49467C7.11974 3.45679 7.01659 3.44049 6.9136 3.44692C6.81097 3.45027 6.71013 3.47466 6.61731 3.51858C6.5245 3.5625 6.44169 3.62501 6.37401 3.70223L4.62331 5.70162C4.55305 5.78204 4.50077 5.87654 4.46998 5.9788C4.43918 6.08105 4.43058 6.18871 4.44474 6.29455C4.4589 6.4004 4.49551 6.50201 4.55211 6.59257C4.6087 6.68313 4.68399 6.76056 4.77292 6.81967L5.10485 7.04079C5.54156 7.33532 5.87979 7.75417 6.07574 8.24311C6.27169 8.73206 6.31633 9.26857 6.20389 9.78317C6.18045 9.88003 6.17655 9.98058 6.19241 10.079C6.20827 10.1773 6.24358 10.2716 6.29626 10.3561C6.34895 10.4407 6.41796 10.5139 6.49927 10.5716C6.58058 10.6292 6.67255 10.67 6.76982 10.6916C6.86708 10.7133 6.96769 10.7154 7.06575 10.6977C7.16382 10.68 7.25739 10.643 7.34099 10.5888C7.42459 10.5346 7.49655 10.4642 7.55266 10.3819C7.60876 10.2995 7.6479 10.2068 7.66778 10.1092C7.82811 9.37441 7.78539 8.60985 7.5442 7.89751C7.30301 7.18517 6.87244 6.55193 6.29869 6.06571ZM11.9365 9.44818C11.9366 9.11665 11.805 8.79867 11.5707 8.56416C11.3364 8.32966 11.0185 8.19785 10.6869 8.19774C10.3554 8.19762 10.0374 8.32921 9.80293 8.56355C9.56843 8.79789 9.43662 9.11578 9.43651 9.4473C9.43639 9.77882 9.56798 10.0968 9.80232 10.3313C10.0367 10.5658 10.3546 10.6976 10.6861 10.6977C11.0176 10.6979 11.3356 10.5663 11.5701 10.3319C11.8046 10.0976 11.9364 9.7797 11.9365 9.44818ZM12.9365 9.44852C12.9363 10.0453 12.699 10.6175 12.2769 11.0393C11.8548 11.4611 11.2825 11.6979 10.6857 11.6977C10.089 11.6975 9.51677 11.4603 9.09496 11.0382C8.67315 10.6161 8.4363 10.0437 8.43651 9.44695C8.43672 8.85022 8.67397 8.278 9.09607 7.85619C9.51818 7.43438 10.0906 7.19753 10.6873 7.19774C11.284 7.19795 11.8562 7.4352 12.2781 7.8573C12.6999 8.27941 12.9367 8.85179 12.9365 9.44852ZM4.43651 9.44556C4.43662 9.11404 4.30504 8.79605 4.0707 8.56155C3.83636 8.32704 3.51846 8.19524 3.18694 8.19512C2.85542 8.19501 2.53744 8.32659 2.30293 8.56093C2.06843 8.79527 1.93662 9.11316 1.93651 9.44468C1.93639 9.77621 2.06798 10.0942 2.30232 10.3287C2.53665 10.5632 2.85455 10.695 3.18607 10.6951C3.51759 10.6952 3.83558 10.5637 4.07008 10.3293C4.30458 10.095 4.43639 9.77708 4.43651 9.44556ZM5.43651 9.44591C5.4363 10.0426 5.19905 10.6149 4.77694 11.0367C4.35484 11.4585 3.78246 11.6953 3.18572 11.6951C2.58899 11.6949 2.01677 11.4577 1.59496 11.0356C1.17315 10.6135 0.9363 10.0411 0.936508 9.44434C0.936716 8.8476 1.17397 8.27539 1.59607 7.85358C2.01818 7.43177 2.59056 7.19491 3.18729 7.19512C3.78403 7.19533 4.35624 7.43258 4.77805 7.85469C5.19986 8.27679 5.43672 8.84917 5.43651 9.44591ZM7.00154 2.19645C7.00165 1.88151 7.12686 1.57951 7.34964 1.35688C7.57242 1.13426 7.87451 1.00926 8.18945 1.00937C8.5044 1.00948 8.8064 1.13469 9.02902 1.35747C9.25164 1.58025 9.37665 1.88234 9.37654 2.19728C9.37643 2.51223 9.25121 2.81423 9.02843 3.03685C8.80566 3.25947 8.50357 3.38448 8.18862 3.38437C7.87368 3.38426 7.57168 3.25904 7.34906 3.03626C7.12643 2.81349 7.00143 2.5114 7.00154 2.19645Z" fill="#1FC70A"/>
</g>
<defs>
<clipPath id="clip0_97_1791">
<rect width="12" height="12" fill="white" transform="translate(0.939941 0.196777) rotate(0.02)"/>
</clipPath>
</defs>
</svg>
